<?xml version="1.0" encoding="UTF-8" standalone="no"?>
<!-- Generator: Adobe Illustrator 17.0.0, SVG Export Plug-In . SVG Version: 6.00 Build 0)  -->

<svg
   xmlns:dc="http://purl.org/dc/elements/1.1/"
   xmlns:cc="http://creativecommons.org/ns#"
   xmlns:rdf="http://www.w3.org/1999/02/22-rdf-syntax-ns#"
   xmlns:svg="http://www.w3.org/2000/svg"
   xmlns="http://www.w3.org/2000/svg"
   xmlns:sodipodi="http://sodipodi.sourceforge.net/DTD/sodipodi-0.dtd"
   xmlns:inkscape="http://www.inkscape.org/namespaces/inkscape"
   version="1.1"
   id="Layer_1"
   x="0px"
   y="0px"
   width="3039px"
   height="3039px"
   viewBox="0 0 3039 3039"
   enable-background="new 0 0 3039 3039"
   xml:space="preserve"
   sodipodi:docname="growl.svg"
   inkscape:version="0.92.4 (5da689c313, 2019-01-14)"><metadata
   id="metadata1510"><rdf:RDF><cc:Work
       rdf:about=""><dc:format>image/svg+xml</dc:format><dc:type
         rdf:resource="http://purl.org/dc/dcmitype/StillImage" /><dc:title></dc:title></cc:Work></rdf:RDF></metadata><defs
   id="defs1508" /><sodipodi:namedview
   pagecolor="#ffffff"
   bordercolor="#666666"
   borderopacity="1"
   objecttolerance="10"
   gridtolerance="10"
   guidetolerance="10"
   inkscape:pageopacity="0"
   inkscape:pageshadow="2"
   inkscape:window-width="1020"
   inkscape:window-height="754"
   id="namedview1506"
   showgrid="false"
   inkscape:zoom="0.14610069"
   inkscape:cx="1559.5053"
   inkscape:cy="1515.4011"
   inkscape:window-x="2125"
   inkscape:window-y="53"
   inkscape:window-maximized="0"
   inkscape:current-layer="Layer_1" />
<rect
   x="0"
   y="1"
   fill="#FFFFFF"
   width="3039"
   height="3039"
   id="rect761" />

<g
   id="g1503">
	<polygon
   fill="#231F20"
   points="2757.814,2758.103 2878.444,2837.493 2772.01,2757.086 2821.15,2703.835 2729.123,2708.154    2797.828,2711.648  "
   id="polygon1497" />
	<polygon
   fill="#231F20"
   points="2790.623,2878.307 2697.924,2706.675 2790.623,2610.244 2715.65,2707.558  "
   id="polygon1499" />
	<polygon
   fill="#231F20"
   points="2633.956,2901.64 2734.99,2794.436 2618.838,2705.778 2685.719,2705.629 2590.623,2701.334    2722.879,2798.034  "
   id="polygon1501" />
</g>
<path
   style="stroke-width:0.82931989"
   inkscape:connector-curvature="0"
   d="m 1068.835,295.85427 c -1.823,5.27829 -18.2419,45.24409 -37.3956,88.97984 -49.25247,119.14295 -71.14238,171.92752 -127.69167,318.21691 -28.27429,73.89886 -54.72411,134.22393 -59.28476,134.22393 -20.97818,0 -123.13102,-49.01405 -158.70213,-76.1605 -49.25247,-37.70359 -62.93368,-64.09617 -57.46117,-114.61853 4.55993,-49.01462 40.13176,-89.73429 93.03228,-107.83192 33.7468,-10.55658 39.21931,-10.55658 72.05424,1.50832 35.57112,13.57323 35.57112,13.57323 52.90038,-5.27828 18.24199,-18.85209 16.41753,-45.24409 -4.55992,-82.19381 -10.03302,-18.85151 -10.94489,-18.85151 -125.86721,-16.58929 -135.90036,2.2622 -155.96581,7.54048 -237.14134,64.85004 -108.53794,76.91493 -156.87767,184.74629 -167.8227,380.05029 -5.47251,97.27478 10.94503,227.72823 31.92306,245.07193 16.41754,13.5732 30.09875,-3.0161 24.62624,-28.6548 -8.2087,-35.4407 23.71364,-65.6038 71.14237,-67.1116 33.74665,-0.7545 34.65852,-0.7545 37.39485,30.1625 3.64877,43.7357 28.27486,72.3904 58.37289,69.3744 15.50567,-1.5084 24.62623,-8.295 28.27501,-20.3599 2.73618,-9.8032 15.50566,-24.8842 28.27428,-32.4252 30.09875,-18.8515 115.83405,-26.392 138.63655,-12.0649 15.50567,9.8026 15.50567,11.311 -1.82504,46.7524 -10.94502,19.6054 -19.15372,39.2114 -19.15372,42.9819 0,3.7699 -14.5938,37.703 -31.92306,74.6527 -17.32926,36.949 -31.92306,77.6688 -31.92306,90.4881 0,32.4247 -20.97746,28.6542 -51.98865,-8.2949 -39.21931,-47.5063 -63.8454,-67.1123 -85.73545,-67.1123 -19.15358,0 -19.15358,2.2623 -15.50552,55.8013 4.56064,55.0467 8.20869,62.5877 67.49417,144.781 14.59308,21.1138 14.59308,25.6382 3.6482,36.9492 -7.29625,7.541 -22.80192,33.933 -33.7468,59.5717 -26.45069,59.5712 -20.97818,64.8494 71.14223,64.8494 h 72.05424 v -22.622 c 0,-12.8188 2.73633,-22.622 5.47251,-22.622 2.73618,0 28.27501,14.3277 56.54929,32.4254 28.27429,18.0976 82.08726,46.7518 118.57024,64.8494 37.39557,18.0976 63.84626,35.4414 59.28562,38.4575 -12.76934,9.8032 -68.40619,21.8681 -140.46028,29.4086 -38.30745,4.5244 -79.35107,11.311 -92.12056,15.0815 -28.27428,9.0489 -40.13175,2.2623 -48.34045,-24.1303 -3.64805,-11.311 -9.12056,-21.8676 -12.76876,-23.3759 -2.73619,-1.5084 -42.86794,3.0161 -87.55977,11.311 -104.88974,18.0976 -176.03211,18.0976 -201.57007,0.7544 -23.71437,-15.8354 -40.1319,-40.7196 -40.1319,-61.0795 0,-19.606 -9.12057,-23.3765 -47.42797,-18.8521 l -31.92307,4.5245 0.91253,44.4901 c 0.91322,36.9492 3.64879,44.4903 17.33,44.4903 8.20874,0 15.50493,5.2783 15.50493,11.311 0,6.7866 -5.47248,9.0489 -13.68122,6.7866 -20.06557,-6.7866 -17.32932,6.7866 17.33002,67.1117 29.18616,49.7685 152.31704,209.6311 196.09699,254.1213 10.03315,10.5565 19.15444,21.8675 19.15444,24.8842 0,18.0977 278.18424,222.4499 303.72306,223.9582 3.64806,0 27.3617,12.0649 51.98793,26.3921 24.62609,14.3276 49.25233,26.3925 54.72556,26.3925 4.55992,0 13.68049,6.7866 20.06559,15.0816 6.38424,8.2944 19.15358,15.0809 28.27429,15.0809 8.20869,0 43.77981,11.3111 78.4392,25.6387 34.65856,14.3272 106.71356,38.457 161.43836,53.5385 54.7248,15.0816 107.6253,30.1631 117.6585,33.9331 10.0324,3.7705 30.0986,7.5411 43.7799,9.8032 28.2743,3.7699 43.7799,-13.5732 56.5486,-60.3256 11.8575,-45.9979 59.2855,-27.1464 105.8016,41.4735 28.2743,40.7198 43.7798,58.0635 136.8123,153.076 20.978,21.1138 44.6916,54.2929 52.9003,73.1445 20.0664,45.998 39.2201,48.2607 68.4062,9.8032 12.7694,-15.8354 27.3625,-31.6714 32.835,-34.6875 4.5606,-2.2621 9.1211,-12.8188 9.1211,-23.3759 0,-35.4414 25.5381,-15.0816 55.6369,44.4902 18.2418,36.9492 31.0104,19.6053 28.2742,-36.9497 -1.8251,-34.687 0.9132,-56.5551 9.1213,-65.6039 11.8568,-12.8188 16.4174,-12.065 83.911,13.5732 39.2199,15.0816 82.0873,27.9009 94.8566,28.6548 21.8901,1.5071 24.6262,-0.7545 24.6262,-24.8842 0,-24.8843 1.8231,-26.3927 30.0988,-24.8843 16.4174,0 37.3956,6.0327 45.6043,12.0649 8.2087,6.7866 38.3074,18.8515 65.6698,27.9009 27.3624,9.0488 60.1974,24.1297 72.966,33.1786 28.275,21.8681 59.2855,35.4414 67.4943,29.4086 2.7362,-2.2622 5.4725,-18.8515 5.4725,-35.4407 0,-17.3438 4.5605,-44.4903 10.033,-61.0796 5.4725,-16.5898 10.945,-39.2119 11.8569,-50.5229 1.823,-31.6709 10.945,-32.4248 61.1092,-6.7867 26.4506,13.5733 51.9887,22.622 58.3736,20.3599 6.3844,-1.5089 15.505,-33.1792 21.8899,-73.1444 6.3844,-38.4575 14.5931,-73.8989 20.0656,-79.1772 10.9451,-11.311 -0.9124,-57.309 -17.3292,-67.8661 -12.7694,-7.5405 -10.0332,-15.8354 20.0656,-64.85 31.0104,-52.0308 34.6592,-61.8334 36.4829,-128.9457 1.8258,-73.1444 -6.3843,-96.5203 -18.2411,-46.7518 -7.297,32.4247 -19.1537,39.9652 -34.6594,21.8676 -11.8567,-12.8188 -12.7693,-12.8188 -18.2418,2.2622 -3.6481,8.2949 -3.6481,20.3598 0,27.1464 7.2969,16.59 -40.1311,80.6855 -60.1974,80.6855 -26.4498,0 -41.0436,-20.3599 -29.1861,-40.7196 15.5049,-28.6549 40.1312,-116.8808 35.5712,-126.6834 -2.7363,-5.2784 -9.1213,1.5082 -15.5056,14.327 -11.8569,27.9008 -23.7144,30.917 -41.9555,11.311 -11.8575,-12.0649 -14.5938,-11.311 -35.5713,9.8033 -17.33,17.3432 -24.6261,20.3598 -32.8348,13.5732 -9.1213,-7.541 -7.2969,-12.8193 6.3843,-25.6386 16.4175,-15.8355 16.4175,-15.8355 -0.9125,-27.1465 -10.0331,-6.0322 -30.0987,-12.8188 -44.6925,-15.081 -23.7137,-3.7706 -25.538,-6.7866 -20.0655,-30.917 6.385,-34.687 10.9449,-36.9491 42.868,-21.1137 36.4831,18.0976 49.2524,12.0649 62.0218,-28.6548 14.5931,-48.2601 46.5154,-44.4902 63.8454,8.2949 8.2088,26.392 25.5381,27.1465 40.1312,2.2622 16.4173,-27.9008 37.3955,-26.3926 72.9666,3.7701 28.275,24.1302 33.7468,25.6386 56.5493,18.852 24.6263,-7.541 24.6263,-8.2949 9.1206,-22.6221 -14.5931,-13.5732 -15.5055,-23.3764 -9.1206,-99.537 6.3844,-70.8827 8.2087,-265.4323 2.7362,-307.6603 -2.7362,-24.8837 2.7363,-38.4569 13.6812,-35.4408 5.4725,1.5078 10.0325,9.0489 10.0325,15.8354 -1.8251,15.0816 17.3301,15.8355 32.8356,0.7539 9.1206,-9.0488 7.297,-15.8354 -13.6812,-38.4574 -13.6812,-14.3271 -29.1869,-24.8843 -34.6592,-23.376 -5.4726,1.5078 -19.1538,15.8355 -29.1869,31.6709 -23.7137,36.9491 -60.1974,59.5711 -85.7355,52.7846 -27.3624,-6.7866 -74.7911,-41.4736 -68.406,-49.7685 2.7362,-3.77 14.5931,-4.5245 27.3624,-2.2622 41.0436,9.0488 67.4943,-3.0161 86.6479,-37.7031 50.1643,-94.2586 -3.6488,-191.5334 -83.9117,-153.8298 -19.1536,9.8027 -26.4506,10.5566 -26.4506,3.016 0,-18.0976 41.0437,-40.7196 84.8236,-45.244 41.9562,-5.2784 44.6918,-4.5245 81.1756,24.8843 l 37.3948,30.9169 -6.3844,55.8006 c -6.3844,61.0795 3.6488,78.4233 41.0444,68.6206 18.2411,-5.2788 19.1537,-3.7706 13.6805,23.3759 -6.3843,27.9003 -5.4718,28.6548 9.1212,16.5893 18.2419,-15.0809 39.2194,-104.0614 39.2194,-174.1897 0.9131,-58.8172 -10.9451,-69.3739 -50.1642,-43.7357 -35.5713,22.6221 -49.2525,20.3598 -49.2525,-9.0488 0,-18.0976 -7.2968,-30.917 -27.3624,-46.7525 -29.1869,-22.622 -50.1649,-21.1136 -24.6263,2.2623 26.45,24.1303 19.1538,30.9169 -20.978,22.622 -34.6594,-7.5406 -36.483,-9.0488 -36.483,-37.7029 0,-16.59 -4.5606,-36.1953 -10.0331,-44.4903 -6.3844,-11.311 -6.3844,-18.0976 1.825,-26.3926 16.4175,-16.5893 24.6262,-12.8188 44.6924,18.8521 9.1206,16.5893 28.2743,36.9492 41.9555,45.2441 38.3074,24.8843 117.6585,18.0977 81.1755,-6.7866 -7.2968,-4.5245 -17.33,-6.7866 -22.8025,-3.7706 -5.4725,3.0161 -20.0656,0 -31.923,-6.7865 -88.4717,-48.2603 -64.7573,-229.23652 26.4505,-200.5823 25.5387,7.5411 51.0768,42.9819 51.0768,70.8827 0,9.8027 -8.2087,33.9331 -18.2411,53.5385 -14.5938,28.6547 -21.8907,33.9331 -35.5719,30.1631 -23.7143,-6.0328 -33.7468,9.8026 -15.5056,24.8842 13.6819,11.311 17.33,11.311 39.22,1.5078 28.2749,-13.5732 70.2304,-98.0287 62.0217,-123.6668 -14.5938,-41.4741 -35.5712,-66.3584 -64.758,-77.66935 -41.0437,-16.58931 -39.2193,-24.88425 4.5606,-24.88425 44.6918,0 68.4061,21.86817 82.0873,75.4072 11.8569,47.5063 1.8251,96.5203 -30.0986,135.7322 -25.5381,32.4247 -30.0988,52.0307 -12.7694,66.3578 17.3293,14.3271 28.275,10.5572 22.8018,-7.5404 -7.2962,-21.1144 8.2087,-43.7364 29.1869,-43.7364 23.7142,0 30.0986,-8.2944 15.5055,-21.8676 -10.9449,-10.5572 -10.9449,-15.8354 2.7363,-38.4574 10.0325,-16.59 14.5931,-38.4576 11.8568,-57.3095 -1.823,-18.0978 0.9126,-33.9332 6.3844,-36.1954 15.5055,-8.2943 11.8574,-17.3432 -7.2963,-21.8676 -10.033,-1.5083 -20.0654,-12.8193 -22.8025,-24.88421 -10.0324,-34.6875 -32.8349,-52.03069 -72.0541,-53.53901 -42.8681,-1.50833 -61.1092,-12.81935 -61.1092,-37.7036 0,-15.83543 2.7355,-17.34319 20.978,-12.81877 51.0761,13.57323 174.2071,104.81527 220.7233,163.63259 11.8569,15.0816 19.1537,18.8515 27.3624,12.8193 19.1537,-13.5731 3.648,-45.244 -57.4612,-119.89679 -112.186,-136.4867 -243.5256,-241.30197 -332.9098,-266.94066 -87.5597,-25.63812 -116.7459,-30.16253 -161.4384,-25.63812 -39.2192,3.77052 -51.9886,2.2622 -73.8786,-11.31103 -14.5931,-9.04881 -26.4498,-23.37591 -26.4498,-32.42474 0,-24.88423 -104.8899,-104.06138 -183.3284,-138.7489 -126.7798,-56.55509 -186.9771,-69.37388 -338.3823,-73.89829 -114.9223,-3.77052 -138.6367,-2.2622 -168.7353,9.04883 -41.0436,15.08097 -57.4612,30.9164 -57.4612,53.53845 0,22.62204 48.3406,43.73633 74.7912,32.4253 21.8892,-9.80326 102.1528,-2.2622 139.5484,14.32711 49.2523,20.35983 89.3835,49.76849 115.8341,83.70155 34.6593,45.24409 33.7467,59.57118 -2.7362,58.06343 -28.2743,-0.75445 -29.1869,0.75388 -41.0437,42.98187 -7.2969,24.1298 -17.3299,50.52238 -22.8019,58.81732 -10.033,15.83543 -10.033,15.83543 -37.3954,-5.27886 -14.5938,-12.06489 -31.0113,-28.6542 -35.5713,-36.94915 -4.5606,-8.29494 -11.8574,-20.35983 -16.4174,-26.39257 -5.4725,-6.03217 -21.89,-35.44082 -37.3955,-64.09559 -15.5057,-29.40865 -31.0106,-58.06343 -35.5713,-64.09559 -12.7693,-18.85209 -32.8349,-12.81935 -35.5711,11.31101 -8.2087,55.80067 -31.9223,48.26017 -90.2961,-27.14644 -19.1537,-24.13037 -38.3073,-44.49021 -43.7798,-44.49021 -4.5599,0 -22.8018,6.78661 -39.2193,15.08155 -34.6593,17.34319 -47.428,18.85151 -47.428,5.27829 -0.9126,-15.08155 -76.6155,-91.9965 -93.9449,-94.2587 -10.0324,-1.50776 -33.7466,13.57323 -62.0209,39.21192 -25.5389,23.37592 -50.1651,42.22743 -53.8131,42.22743 -3.6481,0 -24.6263,-18.85151 -45.6043,-42.22743 -41.9555,-45.99853 -41.0436,-45.24409 -24.6262,-149.30547 1.8257,-16.58988 -19.1538,-25.63869 -25.538,-10.55715 z m -4.5606,135.73225 c 0.9124,21.86817 2.7361,67.86612 5.4725,102.55306 5.4723,68.62058 -1.8225,84.45601 -39.2194,84.45601 -11.8574,0 -31.01059,3.76996 -41.0436,8.29437 -32.83493,14.32767 -33.7468,-3.01609 -0.91259,-79.93103 17.32929,-41.47355 38.30749,-93.50424 46.51619,-115.37241 7.2962,-21.11372 17.3292,-39.21135 21.8899,-39.21135 3.6482,0 7.2962,18.09763 7.2962,39.21135 z m 643.0172,9.8027 c 0,19.60596 -2.7362,22.62204 -22.8018,20.35984 -29.1869,-2.26221 -49.2524,-19.6054 -41.9562,-35.44083 3.6488,-8.29494 13.6819,-11.31102 34.6593,-9.80326 26.4506,2.2622 30.0987,4.52441 30.0987,24.88425 z m 180.592,-12.0649 c 4.5607,3.77053 0,10.55714 -11.8567,15.83543 -16.4175,7.54048 -25.5381,6.78662 -51.0768,-4.52441 -17.3294,-7.54049 -31.0106,-17.34375 -31.0106,-21.11371 0,-8.29494 82.9993,0.75388 93.9441,9.80269 z M 1618.82,445.91363 c 1.825,9.04882 -5.4725,13.57322 -25.5387,15.83543 -31.9225,3.77052 -42.8674,-4.52441 -26.45,-21.11372 14.5931,-14.32711 48.3406,-10.55714 51.9887,5.27829 z m 178.7677,7.54106 c 27.3624,13.57322 31.0112,18.09763 23.7142,30.16252 -11.8567,18.09765 -15.5055,18.09765 -51.9885,-0.75444 -28.275,-14.32711 -37.3956,-29.40865 -23.7144,-39.96523 9.1213,-8.29494 17.33,-6.7866 51.9887,10.55658 z m -481.5789,22.62203 c 20.0661,26.39201 21.8899,33.93307 12.7693,47.50629 -10.0331,16.58931 -0.9126,51.27626 16.4174,60.32508 3.6482,2.2622 28.2743,-11.31103 53.8131,-29.40866 25.538,-18.85151 50.1642,-33.93306 54.7241,-33.93306 3.6488,0.75444 29.1869,27.90089 56.5493,60.32562 27.3624,33.17919 54.7249,60.32564 62.0218,60.32564 7.2969,0 20.0656,-9.80327 28.2743,-22.62204 8.2087,-12.06547 18.2419,-22.62204 21.8899,-22.62204 10.945,0 60.1974,93.50425 52.9005,100.29086 -3.648,3.77053 -15.5049,3.01609 -24.6262,-0.75445 -10.0324,-4.5244 -40.131,-10.55657 -67.4936,-12.81877 -95.7685,-9.80327 -165.0864,-31.67086 -197.9213,-62.58784 -25.5388,-23.37593 -30.0995,-25.63813 -27.3624,-11.31102 3.648,21.11428 1.825,21.11428 -69.3186,9.80269 -62.9337,-9.80269 -88.4717,-27.90033 -99.4167,-71.63609 -4.5607,-19.60595 0.9126,-27.90089 41.9555,-62.58784 25.5381,-21.11371 50.1642,-39.21134 53.813,-39.21134 3.6482,0 17.3294,14.3271 31.0106,30.91641 z m 688.6215,-6.7866 c 19.1537,12.81877 35.5712,26.392 35.5712,28.6542 0,3.01666 -19.1537,7.54106 -41.9555,9.80326 -32.8349,3.01609 -48.3406,0 -72.9668,-12.81934 -33.7468,-18.09763 -38.3074,-30.16254 -14.5931,-41.47355 27.3619,-13.57323 56.5486,-9.04882 93.9442,15.83543 z M 749.60624,468.53566 c 3.64877,3.77054 -0.91259,14.32711 -10.03316,22.62205 l -17.32926,15.83543 -15.50567,-16.58931 c -9.12056,-9.04882 -13.68049,-19.60595 -10.9443,-23.37649 6.38438,-9.80269 46.51628,-8.29437 53.81239,1.50832 z m 68.40604,2.26222 c 5.47251,6.03273 9.12129,18.85151 7.29697,28.65476 -3.64877,24.88425 -47.42801,24.88425 -51.07678,0 -6.38438,-35.44138 19.15372,-52.03069 43.77981,-28.65476 z m 321.96492,38.45746 c 18.2413,23.37592 33.7468,45.99853 33.7468,51.27682 0,5.27828 6.3851,17.34319 14.5938,27.14645 18.2412,21.11372 10.0325,27.90032 -40.1317,33.93306 -27.3625,3.01609 -40.1319,2.2622 -41.9555,-4.5244 -7.297,-17.34377 -12.7695,-149.30549 -6.3851,-149.30549 2.7363,0 20.9781,18.85153 40.1317,41.47356 z m -451.48018,-9.8027 c 1.82504,8.29494 -5.47251,16.58931 -20.06559,21.86817 -20.06617,7.54049 -26.45055,6.78661 -41.95621,-4.52498 -29.18602,-21.86759 -22.80178,-30.9164 20.06631,-30.9164 29.18615,0.75388 40.13118,3.76996 41.95549,13.57321 z m 1213.06778,-2.2622 c 10.9451,8.29438 20.0656,17.34376 20.0656,21.11371 0,8.29495 -44.6916,44.49021 -47.428,39.21136 -1.825,-1.50776 -12.7686,-12.0649 -23.7136,-23.37593 -18.2419,-16.58929 -20.0662,-22.62203 -11.8575,-35.44138 12.7694,-19.60539 35.5711,-19.60539 62.9335,-1.50776 z m -1302.452,19.60539 c 26.45069,22.62205 30.09874,28.65478 21.89005,46.75241 -10.03244,24.88425 -21.89005,28.65478 -44.69183,14.32711 -17.32998,-10.55657 -17.32998,-11.31103 -0.91244,-25.63812 24.62609,-23.37593 9.12056,-36.94916 -18.24185,-15.83543 -19.15372,15.08155 -24.62624,15.83543 -45.6037,7.54049 l -24.62623,-9.04825 25.5381,-21.86817 c 33.7468,-29.40866 49.25233,-28.65478 86.6479,3.76996 z m 1514.9673,54.29291 c 9.1206,18.85207 15.5055,36.19526 13.6812,39.21191 -2.7363,3.01608 -25.5381,3.01608 -51.9887,0.75388 -45.6042,-3.76997 -49.2523,-5.27829 -69.3179,-36.94915 -10.9457,-18.09763 -19.1544,-34.68694 -17.3299,-37.70358 1.8257,-2.26222 27.3624,-3.01608 55.6367,-2.26222 51.9892,3.01666 51.9892,3.01666 69.3186,36.94972 z m -142.2848,2.2622 c 24.6263,32.4253 23.7137,45.24408 -3.648,45.24408 -9.1213,0 -23.7144,6.78662 -32.8349,15.08156 -21.8907,19.60595 -35.5711,19.60595 -22.8025,-0.75388 8.2087,-12.06547 7.2968,-18.09764 -3.6481,-28.65478 -20.0663,-18.09763 -18.2418,-29.40865 6.3843,-46.75241 27.3625,-18.85151 30.0987,-18.09763 56.5492,15.83543 z M 523.4105,572.59706 c 88.47178,36.94915 99.41666,59.57118 25.53811,55.04678 -41.9555,-3.01608 -42.86809,-3.76997 -37.39558,-24.88424 6.38439,-27.14645 -7.29625,-28.65422 -27.36241,-3.0161 -14.59308,18.85152 -60.19735,26.39258 -71.14238,12.81935 -5.47251,-7.54105 37.39558,-61.83396 48.3406,-61.83396 4.56065,0 32.83493,9.80327 62.02166,21.86817 z m 1665.46,4.52441 c 75.703,35.44138 75.703,52.78457 0.9125,47.50629 -30.0979,-2.26221 -36.483,-5.27829 -38.3068,-21.11372 -1.823,-10.55714 -7.2968,-21.86817 -11.8574,-26.39257 -10.0325,-9.04881 -10.9451,-18.85152 0,-18.85152 4.5606,0 26.4505,8.29437 49.2524,18.85152 z M 467.77308,644.98759 c 9.12071,2.2622 9.12071,49.01461 0,68.62 -4.55992,9.04883 -93.944,30.16311 -102.15284,23.37649 -5.47252,-3.77052 13.68121,-70.88277 25.5381,-89.73429 7.29683,-12.06489 32.83493,-12.81934 76.61474,-2.2622 z m 1713.80122,11.31102 c 72.0542,13.57323 86.6473,19.60596 122.2184,47.50629 55.6374,44.49021 121.3073,159.86262 156.8784,275.98891 23.7138,74.65279 19.1537,92.75039 -17.33,72.39049 -14.5931,-9.0487 -18.2411,-16.5892 -14.5931,-32.4246 7.297,-31.67095 -30.0986,-61.83406 -77.5266,-61.83406 -20.0663,0 -46.5161,-3.76995 -59.2855,-8.29437 -33.7467,-12.81934 -53.8131,-4.5244 -41.0437,18.09764 7.297,14.3271 6.3844,23.37592 -3.6481,40.71969 -8.2087,12.0648 -23.7143,52.7846 -34.6592,89.7336 -24.6263,83.7017 -29.1869,88.9805 -62.9337,74.6528 -14.5931,-6.0321 -28.2743,-14.3271 -31.0105,-18.0976 -6.3851,-7.5405 17.3293,-82.9471 100.3284,-325.00294 17.3301,-52.0307 31.0114,-104.0614 29.1869,-116.88075 -2.7362,-19.60595 -6.3844,-22.62203 -25.5381,-20.35983 -28.2749,3.01608 -174.2077,-11.31101 -223.4601,-22.62204 -66.5816,-14.32711 -62.9336,-12.0649 -49.2524,-25.63813 15.5057,-15.83543 113.0979,-10.55713 231.6689,12.0649 z m -1117.2999,-3.77052 c 21.8899,21.86816 -19.1538,37.70359 -44.6919,16.58987 -9.1213,-7.54106 -12.7693,-6.78661 -20.06559,3.76996 -10.03301,15.08155 -31.01119,18.09764 -40.13175,6.03273 -9.12057,-12.06489 11.85689,-28.6542 39.21931,-32.42473 47.42863,-6.03273 54.72483,-5.27885 65.66993,6.03217 z m 336.5579,18.85207 c 41.9561,12.06491 111.2742,27.90034 155.054,33.17862 109.4498,15.08155 148.6691,30.1631 197.9214,74.65273 49.2524,45.99854 63.8462,67.11226 76.6149,115.37243 5.4724,20.35983 11.8575,42.98244 14.5937,49.76905 8.2088,23.37592 -21.8907,15.08099 -37.3956,-9.04938 -9.1211,-15.08099 -20.978,-22.62204 -34.6592,-22.62204 -11.8569,0 -25.5381,-3.76997 -31.9224,-9.04825 -14.5938,-12.06547 -34.6594,3.01608 -48.3406,36.94914 -10.0331,25.63812 -7.2968,77.66884 6.3844,113.86414 4.5606,14.327 2.7362,17.3437 -10.945,15.0815 -13.6812,-2.2622 -16.4174,3.7706 -19.1537,39.2114 -1.8223,22.622 -9.1206,59.5717 -17.3293,82.1931 -17.3294,45.2446 -69.3179,98.7831 -96.6805,98.7831 -25.5387,0 -62.0216,22.6221 -62.0216,38.4574 0,24.8843 -18.2419,23.3765 -64.758,-4.5243 -56.5486,-34.6869 -50.1644,-44.4903 40.1317,-56.5552 55.6367,-8.2948 70.2305,-13.5731 94.8568,-35.4413 33.7468,-28.6542 47.428,-61.8334 53.8122,-126.6834 5.4725,-57.309 -7.2961,-79.931 -54.7248,-90.4882 -45.6036,-10.5565 -68.4061,-37.70297 -79.3511,-95.7664 -12.7686,-70.12833 -33.7468,-116.88074 -64.7573,-146.28939 -21.89,-20.35984 -24.6262,-26.392 -13.6812,-30.16254 7.2961,-2.2622 26.4499,1.50833 41.9555,7.5405 14.5931,6.78661 32.8349,12.06546 40.1318,12.06546 6.3844,0 23.7136,9.8027 38.3074,22.62204 24.6263,21.11372 24.6263,23.37592 10.945,36.19527 -19.1537,17.34319 -19.1537,31.67085 -2.7363,64.84947 22.8018,44.49021 81.1748,38.45804 60.1974,-6.03216 -4.5607,-11.31103 -9.1213,-35.44138 -9.1213,-53.53903 0,-27.14644 -5.4724,-37.70358 -31.0105,-59.57118 -16.4175,-15.08155 -36.483,-27.14645 -43.78,-27.14645 -7.2968,0 -26.4505,-5.27885 -42.8679,-12.06547 -15.5049,-6.78661 -48.3399,-12.81877 -72.0542,-12.81877 -55.6367,-1.50834 -60.1974,13.57322 -16.4176,57.30898 47.428,47.50628 68.4062,98.7831 93.9442,221.69601 3.6488,18.09766 9.1213,24.88426 22.8025,24.88426 25.5381,0 69.318,20.3598 80.2629,36.9492 10.945,18.0982 11.8569,76.161 0.9126,76.161 -4.5606,0 -10.945,-8.295 -13.6812,-18.0977 -10.945,-37.7036 -76.6149,-61.0795 -133.1635,-48.2601 -22.8025,5.2783 -23.7143,3.7699 -34.6592,-45.244 -6.3844,-30.1632 -28.275,-79.17724 -53.8131,-122.15912 -36.483,-60.32563 -55.6367,-82.19379 -124.0428,-137.99445 -45.6042,-36.94971 -91.2079,-70.12833 -103.0654,-73.89886 -40.1318,-12.0649 -24.6262,-28.65477 31.9231,-34.68694 18.2411,-2.2622 34.6586,-5.27886 37.3955,-7.5405 12.7687,-10.55713 148.669,6.78662 217.9869,27.90033 z m -804.45569,5.27829 c 9.12129,18.85151 10.94503,31.67086 4.56065,39.9658 -9.12129,12.81877 -82.99984,24.1298 -97.59292,15.08098 -4.55993,-3.76996 -7.29625,-23.37592 -6.38438,-44.48964 l 3.64805,-38.45746 h 40.1319 c 38.30744,0 41.9555,1.50832 55.6367,27.90032 z m 1279.65029,30.91698 c 0,10.55658 6.3842,24.88425 14.5931,32.42474 23.7143,21.86816 85.736,182.48466 74.7911,193.04123 -6.3851,6.78661 -2.737,12.06547 14.5931,18.09819 12.7693,5.2783 23.7136,12.06491 23.7136,15.83487 0,3.01665 -21.8893,26.39258 -49.2524,50.52294 -77.5266,69.3744 -76.6142,69.3744 -35.5704,131.9617 13.6812,21.1137 12.7686,22.622 -7.297,35.4414 -31.0112,19.6054 -34.6592,18.0976 -29.1869,-14.3277 5.4725,-39.2113 -10.9449,-54.2929 -74.7904,-64.8495 -47.4279,-7.5411 -53.813,-11.311 -61.1092,-30.917 -4.5607,-12.8192 -11.8575,-29.4086 -16.4174,-37.7035 -14.5938,-28.6542 -16.4175,-50.52238 -7.2968,-73.8983 4.5606,-13.57323 10.9448,-28.65478 12.7693,-34.6875 2.7362,-7.5405 17.3293,0 47.428,24.13036 43.7798,36.19527 88.4716,47.50634 98.5048,25.63869 6.3842,-15.08155 -30.0987,-131.2084 -51.0768,-161.37094 -19.1537,-27.14645 -19.1537,-28.65477 -4.56,-76.91494 23.7137,-75.40661 20.9774,-71.63665 36.4831,-61.07952 7.2968,5.2783 13.6812,18.09763 13.6812,28.65478 z m 616.5667,-16.58987 c 60.1973,14.32766 135.9003,55.80123 208.867,113.86465 51.0761,40.71968 141.3722,131.96172 141.3722,142.51886 0,3.01608 -18.2411,-9.04881 -40.1312,-25.63869 -22.8018,-17.34319 -70.2305,-42.98187 -107.6261,-58.06286 -54.7248,-22.62204 -73.8785,-27.14646 -106.7135,-24.13037 -27.3624,2.2622 -45.6035,9.04882 -55.6367,19.60596 -11.8567,14.3271 -20.0656,15.83543 -52.9005,11.31102 -20.978,-3.01665 -38.3073,-8.29493 -38.3073,-12.06547 0,-15.83543 -72.0549,-133.47004 -90.2961,-148.55103 -10.945,-9.04881 -17.33,-19.60595 -14.5938,-23.37648 8.2087,-11.31102 101.2411,-9.04882 155.966,4.52441 z M 1059.7137,824.4556 c 0,64.09616 -2.7356,119.14295 -6.3844,122.15903 -2.7362,2.2622 -24.6262,-12.06491 -47.428,-32.42474 -25.53796,-22.62204 -55.63671,-40.71968 -78.43921,-46.75241 -44.69167,-12.0649 -51.07606,-18.85151 -38.30744,-39.96523 12.76934,-21.11428 32.83493,-79.9316 33.74752,-98.02923 0,-11.31101 9.12057,-14.32709 53.81225,-17.34318 30.09878,-1.50833 56.54928,-4.52441 58.37378,-6.78662 19.1537,-15.83542 24.6255,10.55659 24.6255,119.14238 z m 891.1036,-110.09355 c 9.1213,6.7866 16.4174,16.58931 16.4174,21.86759 0,5.27885 5.4725,14.32767 12.7695,19.60596 17.3293,14.3271 60.1973,82.94767 60.1973,95.76645 0,14.32767 -26.4507,38.45747 -42.868,38.45747 -6.3844,0 -11.8569,-5.27829 -11.8569,-11.31101 0,-6.03218 -10.0331,-28.65422 -22.8025,-50.52237 -12.7687,-21.86817 -20.0655,-45.24409 -17.3293,-52.78459 3.6488,-9.04881 -4.5599,-23.37648 -22.8018,-40.71967 -15.5056,-14.32767 -28.2743,-27.90089 -28.2743,-29.40866 0,-9.04881 41.0437,-2.2622 56.5486,9.04883 z m -795.3344,33.93306 c 0,4.5244 8.2087,6.03216 19.153,3.76996 39.22,-8.29437 29.1869,17.34375 -20.0656,55.04734 -27.3624,20.35984 -51.9885,36.94916 -55.6367,37.70302 -10.9449,0 -8.2087,-97.27478 1.825,-113.86407 9.1207,-13.57323 10.9451,-13.57323 31.9232,-2.26222 12.7694,6.78662 22.8018,15.83543 22.8018,19.60597 z m 886.543,-11.31103 c 8.2086,7.54049 21.8899,25.63814 31.0106,39.96523 12.7693,20.35985 17.3292,23.37649 20.0654,12.81935 1.8258,-7.54049 -1.825,-18.85152 -8.2087,-24.88424 -13.6812,-14.32711 -2.7362,-23.37593 16.4176,-13.57323 35.5711,18.09763 35.5711,30.91698 -1.8252,62.58784 -36.4837,30.9164 -50.1642,33.17862 -50.1642,7.54049 0,-8.29493 -12.7694,-33.17918 -28.275,-55.80122 -25.538,-37.70303 -26.4499,-41.47356 -10.9449,-41.47356 10.033,0 24.6261,6.03274 31.9231,12.81934 z m -1514.05533,52.0307 c 56.54915,61.07951 57.46102,62.58727 52.9011,64.84948 -2.73619,1.50832 -21.89063,13.57322 -41.95622,26.39257 l -38.30744,24.13036 -18.24113,-16.58987 c -12.76934,-11.31103 -17.32998,-22.62204 -13.68193,-33.93306 3.64877,-12.06491 0.91331,-16.58931 -9.12057,-16.58931 -8.20869,0 -16.41739,3.01608 -19.15372,6.78662 -2.73618,3.01608 -18.24113,8.29492 -34.65852,11.31101 -15.50567,2.2622 -36.48371,10.55714 -45.60442,17.34375 -15.50552,11.31102 -16.41739,9.8027 -16.41739,-36.94971 0,-56.55511 10.94503,-72.39054 54.72484,-81.43935 74.79042,-14.3271 87.55976,-10.55657 129.5154,34.68751 z m 139.54842,-12.81935 c 40.13175,32.42474 93.03227,57.30899 196.0977,92.75037 86.6479,30.16254 111.27413,45.24409 150.49331,91.9965 35.5713,42.9819 54.725,91.242 62.9337,159.1082 3.648,24.8841 10.0332,48.2607 14.5931,52.0306 5.4725,4.5244 9.1205,12.0649 9.1205,18.0977 0,15.8353 -77.5266,7.5405 -107.62535,-11.3111 -32.83493,-20.3598 -97.59292,-84.4554 -90.29609,-89.7342 2.73633,-3.0161 23.71437,-6.7866 47.42873,-8.2944 23.71364,-2.2622 41.04363,-8.2949 41.04363,-13.5732 0,-19.606 -31.92306,-60.3256 -72.05482,-92.75038 -39.21931,-30.91697 -61.10922,-42.228 -165.08652,-84.456 -116.74664,-46.75184 -140.46028,-58.8173 -169.64716,-85.20931 -17.32998,-15.08155 -31.01047,-34.68751 -31.01047,-42.98188 0,-12.81934 6.38438,-15.08154 38.30672,-15.08154 32.83493,0 44.6924,4.5244 75.70302,29.40864 z m 1527.73651,25.63813 c 0,18.85208 -15.5055,29.40866 -35.5711,24.13036 -24.6263,-6.03273 -24.6263,-21.86815 1.825,-31.67086 21.89,-9.04881 33.7468,-6.03272 33.7468,7.5405 z m -918.466,48.26073 c 60.1973,87.47209 88.4716,158.35431 88.4716,223.20441 0,58.8167 -10.0324,99.5363 -31.0105,122.1589 -23.7143,26.392 -37.3956,3.0161 -37.3956,-66.3584 -0.9125,-54.2929 -4.5599,-67.866 -25.5381,-97.2746 -29.1867,-41.47365 -72.9666,-65.60402 -132.2514,-72.39062 l -42.8681,-5.27829 v -34.68751 c 0,-33.17862 2.7362,-36.19527 63.8454,-80.68491 34.6594,-25.63868 65.6699,-46.75241 69.3186,-46.75241 3.6481,0 24.6263,26.39257 47.4281,58.06343 z m 881.9823,-1.50832 c 9.1213,9.04881 9.1213,14.32767 1.8257,20.35983 -11.8574,9.80327 -38.3073,-4.5244 -38.3073,-21.11371 0,-14.32711 21.8899,-13.57323 36.483,0.75388 z m -64.7573,12.81935 c -16.4174,27.14644 -27.3624,36.19526 -36.4837,31.67085 -9.1206,-4.52441 27.3624,-46.7524 40.1318,-47.50628 3.6482,-0.75388 1.823,6.7866 -3.6481,15.83543 z m 534.4794,9.04881 c 20.0655,12.0649 12.7694,34.68694 -12.7694,34.68694 -10.0325,0 -23.7137,2.2622 -31.0105,4.52442 -20.0656,6.03272 -26.4506,-33.17863 -7.2968,-42.22745 20.0661,-9.80326 31.0112,-9.04881 51.0767,3.01609 z M 460.47625,889.30564 c 10.94575,12.81934 17.32998,27.90089 14.5938,33.93306 -9.12056,19.60597 21.88991,23.37649 45.60427,5.27886 l 20.06559,-15.83543 20.97804,18.09763 20.06559,18.09763 -34.65939,23.37593 c -19.15358,12.81935 -37.39543,23.37592 -41.04363,23.37592 -3.64805,0 -21.8899,-18.85151 -40.13103,-42.22743 -23.71437,-30.16311 -41.04378,-42.98188 -59.28563,-45.99854 -33.74665,-5.27829 -33.74665,-21.11371 -0.91244,-30.91641 34.65867,-10.55714 32.83493,-11.31102 54.72483,12.81878 z m 237.14134,4.52442 c 45.60427,18.85207 70.2305,34.6875 84.82358,53.53901 l 20.06631,27.14645 -35.57126,29.40868 c -29.18673,25.6381 -40.13176,30.1625 -62.93353,27.1465 -34.65939,-4.5245 -112.18672,8.2948 -138.63669,22.622 -11.85675,6.7866 -20.97804,18.0976 -20.97804,25.6381 0,21.8682 -16.41739,24.1303 -31.92234,4.5244 -20.06631,-24.8842 -1.82575,-56.5551 50.1642,-91.24204 l 41.04362,-26.39258 29.18616,23.37649 c 31.01119,24.88423 53.81311,24.12973 27.36313,0 -20.97803,-19.60596 -20.06616,-23.37649 19.15373,-51.27681 29.18615,-21.11373 31.92234,-24.88425 17.32926,-29.40866 -10.94488,-3.77053 -23.71422,0 -39.21989,12.0649 -18.24113,14.32768 -26.44997,15.83543 -46.51542,9.80326 -12.76948,-3.77052 -28.275,-12.81935 -33.74752,-20.35983 -8.20869,-11.31103 -5.47251,-15.83543 12.76934,-27.9009 30.09875,-19.60539 32.83493,-19.60539 107.62536,11.31103 z m 1447.47301,-3.76997 c 3.6487,4.52441 0.9133,12.81878 -4.56,18.85151 -8.2087,8.29493 -15.5056,9.04881 -29.1868,3.01609 -13.6812,-6.03217 -15.5056,-9.80271 -6.3843,-18.85152 12.7686,-12.0649 31.9224,-13.57322 40.1311,-3.01608 z m 351.1518,15.83543 c 11.8567,18.09763 5.4725,40.71967 -10.0332,33.17861 -11.8568,-6.78661 -25.5381,-35.44081 -20.0656,-43.73575 7.2963,-9.80271 20.0656,-5.27829 30.0988,10.55714 z m -443.2722,35.44082 c -6.3844,33.93307 -21.8894,43.73633 -21.8894,13.57322 0,-9.80269 -7.2968,-20.35984 -15.5055,-23.37592 -14.5931,-4.5244 -14.5931,-6.03273 5.4725,-19.60595 29.1867,-19.6054 39.2192,-9.80271 31.9224,29.40865 z M 453.18015,961.69618 c 23.71364,39.21182 23.71364,41.47412 -10.94503,41.47412 -16.41754,0 -41.04363,8.2944 -58.37303,18.8515 -16.41739,10.5571 -31.92306,18.8515 -33.74738,18.8515 -7.29625,0 -18.24127,-111.60186 -12.76876,-123.66677 4.55992,-9.80326 11.85689,-9.80326 51.07606,1.50834 38.30744,10.55657 49.25247,18.09763 64.75814,42.98187 z M 2541.8459,928.51756 c 0,7.54049 -3.6481,14.32711 -9.1206,14.32711 -4.5606,0 -9.1205,-9.04883 -9.1205,-19.60597 0,-10.55657 3.648,-17.34318 9.1205,-14.3271 5.4725,2.26221 9.1206,11.31102 9.1206,19.60596 z m 91.2087,25.63813 c -23.7144,21.11372 -57.4612,22.62204 -62.0218,3.01608 -1.8251,-8.29438 9.1205,-16.58931 31.923,-24.12981 44.6919,-15.08155 59.2848,-4.5244 30.0988,21.11373 z m -512.5901,-5.27886 c 1.8257,10.55715 -1.8252,16.58987 -10.0326,16.58987 -17.33,0 -36.4837,-19.60595 -29.1867,-30.16309 10.0331,-13.57323 36.4829,-4.52385 39.2193,13.57322 z M 862.7041,965.4667 c 33.74752,21.11372 42.86809,37.703 18.24186,37.703 -9.12057,0 -72.05424,-49.01401 -72.05424,-56.55507 0,-9.04825 17.3294,-2.26164 53.81238,18.85207 z m 1659.9881,3.01609 c 10.945,10.55714 -2.7362,57.30951 -17.3293,57.30951 -8.2087,0 -18.2418,-52.7851 -11.8569,-62.5878 5.4725,-8.29494 17.3294,-6.03273 29.1862,5.27829 z m -422.2933,15.08154 c 15.5055,9.80271 15.5055,12.06491 3.648,22.62207 -12.7686,10.5566 -16.4174,10.5566 -34.6592,0 -16.4175,-9.80328 -19.1532,-14.32712 -10.0324,-22.62207 12.7693,-13.57322 18.2418,-13.57322 41.0436,0 z m -902.0486,20.35987 c 51.9886,40.7196 60.1973,58.0629 62.0218,126.6834 1.8257,42.9819 -2.7364,76.9149 -12.7695,100.2908 -7.2968,19.606 -10.9449,37.7036 -8.2087,39.9658 10.0331,8.2943 25.5381,-3.7706 25.5381,-19.606 0,-21.1137 15.5055,-17.3437 31.0112,7.5406 17.3292,26.3925 92.1197,82.9476 134.0759,100.2913 17.3294,7.5405 62.0218,22.622 99.4166,34.6869 65.6699,21.1138 68.4061,22.6222 71.1424,49.0147 1.8258,16.5893 -4.5599,38.4575 -15.5057,57.309 -22.8017,36.1953 -23.7136,45.9979 -5.4717,45.9979 7.2962,0 13.6806,-5.2783 13.6806,-12.0649 0,-6.7865 5.4731,-10.5571 11.8575,-9.0488 16.4173,5.2783 20.0655,73.145 3.648,78.4233 -15.5055,4.5244 -87.5598,-9.8032 -103.0647,-20.3599 -10.9456,-7.5404 3.648,-65.6039 22.8018,-96.5209 13.6812,-20.3597 12.7693,-30.9169 -1.8251,-30.9169 -16.4175,0 -32.8349,26.3926 -45.6042,76.1611 -7.297,26.3925 -16.4176,40.7196 -24.6263,40.7196 -10.945,0 -12.7693,-10.5565 -10.945,-52.7845 2.7363,-58.0635 -10.9449,-85.2099 -38.3073,-76.915 -11.8569,3.7706 -13.6812,8.2944 -5.4725,20.3598 5.4725,8.2944 8.2087,45.2442 6.3842,86.7177 -0.9124,39.2119 -0.9124,71.6366 1.8259,71.6366 1.8251,0 8.2087,-5.2782 13.6812,-12.0649 10.0325,-10.5571 17.3293,-9.8032 78.4385,7.5406 83.9117,24.8842 113.0986,24.8842 141.3729,0.7538 25.538,-21.1137 28.2743,-45.998 9.1206,-90.4881 -7.2963,-16.5894 -13.6812,-49.0142 -13.6812,-72.3905 0,-48.2603 -12.7695,-61.8334 -70.2305,-78.4228 -48.3399,-13.5733 -59.285,-30.917 -31.0107,-49.7684 11.8577,-7.5411 28.275,-14.3277 36.4837,-14.3277 8.2089,0 24.6263,-5.2783 35.5706,-12.0649 11.8574,-6.7867 21.8906,-10.5572 23.7143,-9.8028 0.9132,1.5078 7.2969,23.376 13.6812,48.2603 15.5056,57.3089 67.4942,153.0759 88.4724,159.8625 10.9449,3.0161 22.8018,-2.2621 38.3067,-17.3437 54.7256,-54.2929 66.5823,-63.3418 74.7912,-59.5712 5.4723,3.016 9.1205,9.0488 9.1205,15.0809 0,10.5572 -165.0865,184.7469 -204.3058,214.1556 -12.7693,10.5571 -23.7142,21.8682 -23.7142,25.6381 0,4.5244 -16.4175,18.8521 -36.4837,33.1793 -23.7138,17.3437 -37.395,33.933 -41.9557,52.0306 -8.2087,36.9492 -49.2523,63.3418 -98.5046,63.3418 -21.89,0 -41.0438,-2.2623 -43.78,-4.5245 -3.648,-2.2622 11.8568,-24.8843 32.835,-50.5223 71.1423,-85.2099 73.8785,-125.9296 7.2968,-125.9296 -30.0986,0 -38.3074,4.5243 -71.1424,39.2113 -37.3954,40.7197 -94.8566,115.3725 -94.8566,124.4212 0,9.0489 -83.9117,70.1284 -96.6804,70.1284 -7.2969,0 -18.2419,-8.2944 -23.7143,-18.8515 -5.4725,-10.5571 -12.7694,-18.8515 -16.4175,-18.8515 -2.7362,0 -10.945,-12.0655 -17.3293,-27.1464 -12.7693,-30.1631 -37.3955,-40.7198 -93.0322,-40.7198 -34.6594,0 -37.39563,-1.5083 -54.72504,-35.4414 -20.97804,-40.7196 -59.28548,-85.2098 -72.96669,-85.2098 -4.56064,0 -20.06559,-6.0322 -33.7468,-14.3272 -13.6812,-7.5404 -49.25232,-27.1464 -79.35106,-42.9819 -90.29595,-47.5062 -122.21901,-71.6366 -178.76831,-134.2238 -62.93295,-68.6206 -86.64731,-103.3075 -95.76788,-143.2734 -8.2087,-39.9651 10.03243,-33.1785 41.9555,14.3277 31.01061,48.2602 121.30656,125.1751 169.64716,145.535 43.77981,18.0976 130.42712,30.1625 207.04259,27.9003 45.60369,-0.7539 51.98865,0.7544 45.60369,10.5572 -11.8569,20.3598 -4.55992,81.4393 11.85747,102.553 9.12057,11.3111 33.74677,26.3926 54.72427,33.9331 l 38.308,13.5732 6.3844,53.539 c 8.2087,68.62 25.538,70.8822 21.8899,3.016 l -3.648,-50.5223 35.5704,-6.7866 c 46.5168,-9.8026 106.7136,-59.5711 122.2191,-100.2909 15.5057,-43.7362 13.6812,-95.767 -4.5599,-126.6834 -12.7693,-22.622 -13.6812,-30.917 -3.6488,-58.8173 10.945,-27.9008 10.0332,-32.4253 -4.5599,-41.4741 -23.7144,-14.3271 -72.055,-19.6054 -93.033,-10.5565 -24.6262,11.311 -31.0106,2.2621 -15.5049,-22.6221 9.1205,-13.5733 10.0331,-22.6221 4.5606,-25.6388 -15.5057,-8.2943 -33.7475,9.8034 -40.1318,37.7036 -7.2969,30.917 -33.7468,44.4903 -99.4166,52.7847 -66.5825,8.2949 -72.96674,3.7705 -54.72561,-39.2114 8.2087,-19.606 19.15445,-43.7358 23.71437,-53.539 6.38496,-11.311 6.38496,-19.6054 0,-24.8843 -13.68121,-11.3109 -27.36242,6.0328 -47.42801,58.0634 -9.12129,25.6382 -22.80177,45.2442 -30.09875,46.7525 -8.20869,1.5078 -27.36241,-8.295 -42.86794,-21.1143 -25.5381,-21.1137 -27.36256,-27.1464 -21.89005,-55.0468 10.94503,-59.5711 46.51614,-125.9295 66.58245,-125.9295 13.68121,0 10.94431,21.1142 -10.94502,69.3745 -13.68121,31.6707 -16.41739,46.7523 -9.12129,52.7845 6.38438,5.2788 13.68121,0.7545 23.71437,-15.081 8.20869,-12.8194 14.59307,-27.9009 14.59307,-33.933 0,-5.2789 5.47252,-15.8354 11.85748,-23.3765 10.94502,-12.0649 13.68063,-12.0649 51.98865,6.0327 45.60368,21.8682 104.88918,25.6382 132.25158,9.0488 15.5057,-9.0488 16.4174,-12.8194 6.3844,-31.6708 -10.0324,-18.0976 -9.1206,-27.9004 12.7694,-79.931 13.6812,-32.4254 22.8017,-61.0795 19.1537,-63.3418 -13.6812,-12.0653 -31.9231,6.0323 -37.3956,37.7031 -8.2087,42.228 -23.7144,45.9985 -23.7144,5.2788 0,-15.8354 -5.4718,-42.9819 -12.7686,-59.5717 -10.0331,-22.622 -10.945,-32.42474 -2.7363,-39.21135 17.3294,-14.32711 85.7354,-4.52442 113.0979,15.83545 z m 1183.8816,-15.83545 c 9.1206,12.06495 -41.0436,24.88425 -55.6367,14.32705 -7.2968,-4.52439 -12.7693,-11.31097 -12.7693,-15.0815 0,-9.04825 61.1092,-8.29437 68.406,0.75445 z m 199.7459,41.47355 c -9.1207,15.0815 -23.7144,26.3925 -32.8349,26.3925 -20.0656,0 -21.8901,12.065 -2.7364,18.0978 20.0656,6.0327 18.2419,59.571 -2.7361,74.6526 -16.4176,12.8194 -25.5381,10.5566 -45.6043,-11.311 -10.0324,-9.8027 -9.1206,-17.3437 1.8257,-39.9658 8.2087,-15.8354 12.7687,-30.9164 10.0325,-34.687 -2.7363,-3.016 3.648,-9.8026 13.6812,-14.3276 10.0331,-4.5243 20.978,-17.3431 23.7144,-28.6541 10.033,-32.4254 21.8899,-42.22809 38.3073,-28.65487 12.7694,10.55707 12.7694,14.32767 -3.6481,38.45747 z m -275.4488,-21.1137 c 20.9781,15.8354 20.9781,27.1465 -0.9126,42.9818 -18.2418,13.5733 -46.5161,9.0489 -46.5161,-7.5409 0,-12.0649 19.1537,-48.26026 25.5387,-48.26026 2.7356,0 12.7687,5.27836 21.8893,12.81936 z m -1436.52807,18.8515 c 28.27501,22.6221 30.09875,23.3759 30.09875,7.5405 0,-21.1138 32.83493,-22.6215 41.04362,-1.5078 7.29683,20.3599 -2.73618,31.6709 -22.80177,26.392 -9.12057,-2.2622 -22.8025,0.7545 -30.09875,6.7867 -11.85675,10.5571 -17.32998,9.8032 -49.25232,-3.0162 -19.15372,-7.5405 -42.86808,-16.5892 -51.98865,-18.8515 -16.41739,-3.7705 -16.41739,-5.2788 3.64805,-22.622 28.27501,-24.88424 42.86809,-23.3765 79.35107,5.2783 z m 1136.45377,7.5405 c -6.3851,48.2607 -7.2969,49.0146 -47.4287,52.7851 -20.978,1.5084 -37.3956,1.5084 -37.3956,0 0,-5.2788 77.5274,-83.7015 83.9117,-83.7015 2.7364,-0.7545 3.6488,13.5732 0.9134,30.9164 z m 61.1093,-12.8188 c 15.5055,6.7866 27.3624,14.3271 27.3624,17.3437 0,8.2944 -53.813,50.5223 -58.3736,45.998 -1.8252,-1.5083 -6.3844,-18.8515 -9.1207,-39.2113 -7.2969,-39.2119 -2.7362,-42.228 40.1319,-24.1304 z m 321.9649,21.1138 c -2.7364,13.5731 -14.5938,32.4246 -26.4507,42.9818 -20.9781,17.3437 -22.8018,18.0976 -37.3955,5.2782 -15.5049,-12.8187 -15.5049,-14.327 9.1212,-31.6702 13.6813,-9.8032 24.6262,-21.1143 24.6262,-24.8848 0,-9.8027 20.0656,-24.1298 28.2743,-19.6054 4.5607,2.2622 5.4725,14.3271 1.823,27.9004 z m -293.6907,57.3095 c -5.4725,8.2944 -10.0324,23.3759 -10.0324,33.933 0,23.3759 -18.2418,25.6381 -34.6594,3.77 -10.9449,-14.3271 -9.1205,-18.8515 18.2413,-42.228 30.0993,-25.6381 43.7805,-23.3759 26.4505,4.525 z m 215.2515,6.7866 c 5.4723,10.5565 -12.7695,31.6703 -26.4507,31.6703 -5.4724,0 -7.2961,-6.7866 -4.5599,-15.081 6.3843,-18.8521 -6.385,-25.6388 -20.9781,-11.311 -13.6812,13.5732 -27.3624,8.2948 -27.3624,-10.5572 0,-24.8842 19.1536,-31.6708 48.3405,-17.3438 14.593,6.7866 28.2742,17.3438 31.0106,22.6227 z m -1450.20933,-1.5084 30.09874,18.8516 -18.24185,19.6059 c -10.03316,10.5566 -18.24185,25.6381 -18.24185,33.1786 0,7.5411 -11.8569,33.9331 -25.5381,58.0635 -28.27429,48.2601 -29.18616,84.4554 -3.64806,109.3396 31.92306,30.1631 78.43848,46.7524 143.19647,50.5229 l 63.84608,3.77 -2.7361,26.3925 c -0.9126,14.3272 -3.6488,30.917 -6.385,35.4414 -6.3844,14.3271 -188.80088,12.8188 -247.17391,-1.5083 -51.07679,-12.0649 -91.20782,-41.4736 -82.08726,-60.3256 3.64806,-9.0488 0.91259,-11.311 -11.85747,-7.5405 -9.12056,2.2621 -21.88933,-0.7545 -28.27428,-7.5405 -14.59308,-15.0815 -12.76949,-15.8354 35.57111,-21.1142 l 39.21989,-3.7701 -5.47309,36.9492 c -6.38438,38.4575 3.64877,49.0146 21.89063,22.622 6.38438,-9.8027 6.38438,-49.0145 0,-120.6507 -6.38511,-83.7015 -5.47324,-113.8646 3.64805,-141.7649 7.29625,-20.3598 15.50495,-45.998 18.24185,-58.0635 5.47179,-19.6053 9.12057,-21.1136 34.65867,-16.5892 15.50567,2.2622 41.95621,13.5732 59.28548,24.1303 z m 1602.52703,-22.622 c 8.2087,2.2622 14.5931,12.8188 14.5931,22.622 0,12.8188 -3.6481,16.5893 -13.6812,13.5733 -7.297,-3.0167 -15.5057,0.7539 -19.1537,7.5405 -2.7364,6.7865 -12.7694,12.0649 -21.8899,12.0649 -9.1207,0 -20.9782,5.2788 -27.3626,11.311 -13.6812,13.5731 -60.1973,15.0815 -69.3179,2.2621 -9.1213,-12.0649 76.6149,-73.8982 102.1528,-73.8982 10.9451,0 26.4507,2.2622 34.6594,4.5244 z m -950.3891,28.6542 c 41.9561,33.933 51.9886,75.4072 23.7143,100.2914 -29.1868,25.6381 -41.0437,21.1137 -46.5162,-17.3438 -4.5606,-36.9491 -43.7798,-79.931 -69.3186,-76.9149 -23.7136,3.7705 -16.4174,-19.606 8.2088,-24.8842 41.0437,-9.8027 51.0768,-6.7866 83.9117,18.8515 z m 466.9859,3.0166 c 1.8223,3.0161 -3.6482,14.3271 -12.7695,24.1299 -16.4174,17.3437 -18.2411,18.0976 -32.8349,6.0326 -8.2087,-6.7865 -12.7694,-18.0975 -10.0325,-24.1302 5.4718,-12.0649 47.428,-16.5894 55.6369,-6.0323 z m -250.8227,99.537 c -24.6261,45.2441 -44.6917,86.7176 -44.6917,91.242 0,4.5244 -5.4725,6.7867 -10.945,4.5244 -17.3293,-4.5244 -9.1206,-41.4735 19.1537,-88.2259 14.5931,-22.622 29.1869,-53.539 32.8349,-67.8661 9.1206,-36.1953 11.8569,-39.2114 31.9224,-30.1625 15.5057,6.7866 13.6819,12.8187 -28.2743,90.4881 z m 308.2837,-56.5551 c -3.648,8.2944 -60.1973,18.8515 -64.758,12.0649 -2.7362,-3.016 4.5607,-16.5893 14.5931,-30.1625 l 19.1544,-24.8843 16.4174,17.3433 c 9.1206,9.8032 15.505,21.1142 14.5931,25.6386 z m -206.1307,-18.852 c 9.1211,4.5244 17.33,14.3276 17.33,21.8681 0,15.0815 -52.9005,152.3215 -75.703,196.8118 -7.2969,14.327 -16.4176,44.4901 -20.0656,65.6039 -3.6488,21.8681 -10.0332,39.9657 -14.5931,39.9657 -11.8575,0 -42.8681,-43.7363 -49.2523,-69.3745 -3.6488,-12.8192 0,-30.1625 8.2087,-44.4901 8.2087,-13.5732 14.593,-29.4086 14.593,-34.6869 0,-6.0327 11.8568,-32.4248 26.4506,-57.309 13.6812,-25.6387 29.1861,-55.0473 32.8349,-65.6039 9.1206,-24.8842 31.0106,-60.3256 37.3949,-60.3256 2.7363,0 12.7693,3.7705 22.8019,7.5405 z m 436.8871,28.6547 c 0,7.5406 -5.4725,20.3598 -12.7688,27.9003 -10.9449,12.0655 -14.5936,12.8194 -27.3624,4.5244 -17.33,-12.0649 -19.1537,-39.2113 -3.6488,-52.0306 13.6812,-11.3111 43.78,2.2622 43.78,19.6059 z m 216.1633,-1.5077 c 1.8257,4.5243 -13.6814,18.8515 -33.7468,32.4247 -20.0656,13.5732 -48.3406,37.7035 -61.1092,54.2929 l -23.7144,30.1625 -10.0332,-19.6054 c -5.4725,-10.5571 -23.7136,-24.8842 -41.0436,-32.4253 -37.3948,-15.0809 -41.9555,-23.3759 -25.5381,-42.2274 11.8569,-12.8194 17.3294,-13.5733 57.4612,-5.2789 41.9555,9.0489 44.6917,8.295 59.2855,-8.2944 16.4175,-18.0976 72.0542,-24.8841 78.4386,-9.0487 z m -422.2935,16.5892 c 1.8223,3.0162 -3.648,18.8516 -12.7693,35.4414 -10.0324,16.5894 -17.3294,36.1952 -18.2413,42.9819 0,7.5405 -10.9456,14.3271 -29.1867,17.3431 -15.5057,3.0167 -54.7248,15.0816 -86.648,27.1465 -54.7249,20.3599 -56.5486,21.8682 -48.3398,40.7197 5.4718,12.0654 5.4718,18.8521 0,18.8521 -12.7695,0 -27.3631,-33.1792 -27.3631,-58.8173 0,-33.1792 23.7143,-80.6855 41.9562,-83.7015 9.1206,-1.5084 24.6261,-6.7866 35.5711,-12.0655 10.0332,-5.2782 36.483,-12.0649 59.2855,-15.081 22.8018,-3.0166 47.428,-8.2949 54.7248,-12.0655 17.3294,-8.2944 25.5381,-8.2944 31.0106,-0.7539 z m 102.1529,20.3599 c 9.1213,6.0327 26.4505,11.311 37.3956,11.311 10.945,0 26.4505,6.0328 35.5711,12.8194 8.2088,7.5405 20.0656,13.5732 25.5381,13.5732 5.4725,0 23.7143,6.0322 40.1317,13.5731 24.6263,11.311 28.2743,16.5894 23.7144,33.9332 -10.9449,40.7196 -23.7144,69.3739 -31.0112,69.3739 -13.6812,0 -8.2087,62.5878 6.385,71.6366 12.7687,7.5404 12.7687,14.3271 3.6482,49.7684 -6.3844,22.6221 -14.5931,47.5064 -19.1538,55.8013 -3.648,8.2944 -10.0331,21.1137 -12.7693,28.6541 -3.6482,9.8034 -10.945,12.0656 -28.2743,8.295 -20.0656,-3.7705 -22.8019,-2.2621 -22.8019,14.3272 0,10.5571 -3.6488,21.8681 -9.1211,24.1303 -20.9775,10.5571 -8.2089,33.9331 28.2748,49.0147 31.9225,13.5732 36.4831,18.8515 31.9225,33.933 -6.3844,21.1137 10.033,33.9331 18.2418,13.5732 2.7362,-7.5411 9.1206,-19.606 13.6813,-27.1465 7.2968,-10.5571 3.648,-15.8354 -19.1538,-26.3925 -55.6367,-24.8842 -58.373,-27.1465 -46.5161,-45.998 9.1206,-12.8194 13.6812,-15.0815 23.7144,-8.2949 14.593,9.8027 16.4174,7.5404 31.9223,-39.9658 6.385,-19.6053 14.5938,-35.4408 18.2419,-35.4408 3.648,0 9.1205,14.3271 12.7693,31.6708 3.648,17.3432 10.0324,35.4408 13.6812,39.9652 4.5599,3.7706 10.0324,15.8355 12.7688,26.3926 8.2087,27.9003 60.1973,75.4067 93.9447,87.4722 44.6918,15.8354 106.7136,13.5731 125.8672,-3.7706 17.3294,-15.8354 2.7363,-31.6709 -15.5055,-16.5893 -14.5931,12.0649 -40.1318,10.5565 -92.1204,-4.5244 -32.835,-9.8033 -51.0762,-21.8682 -71.1424,-45.9986 -34.6587,-42.2274 -31.0106,-58.0628 13.6812,-58.8173 26.4505,-0.7538 38.3074,3.7705 51.9887,17.3438 10.0331,10.5571 20.978,16.5893 26.4505,14.3271 4.5606,-2.2622 15.5057,-2.2622 23.7144,0 11.8567,3.7705 13.6812,11.311 9.1205,33.933 -8.2087,40.7198 8.2087,37.7037 31.0106,-4.5243 13.6813,-25.6382 22.8024,-33.9332 38.3073,-33.9332 20.0664,0 20.0664,0.7545 13.6812,80.6855 -7.2961,91.2421 -7.2961,86.7177 0,123.6674 6.3852,34.6869 -8.2086,44.4897 -72.054,48.2602 -35.5713,2.2621 -52.9006,0 -61.1093,-7.5405 -5.4725,-5.2789 -16.4175,-8.2949 -23.7143,-6.0328 -17.3293,5.2783 -40.1318,-11.311 -40.1318,-28.6547 0,-17.3432 15.5055,-18.0976 37.3954,-2.2623 8.2089,6.0328 33.7468,12.0655 55.6369,13.5733 32.8349,1.5083 42.8679,-1.5078 56.5491,-16.5893 19.1538,-21.1137 11.8569,-30.917 -12.7693,-18.0976 -28.2743,14.327 -67.4935,10.5571 -103.9772,-9.8028 -41.0437,-23.3764 -41.9556,-23.3764 -41.9556,-0.7543 0,10.5571 -3.648,21.1136 -9.1206,23.3763 -4.5606,2.2623 -9.1212,12.065 -9.1212,21.1138 0,37.703 121.3072,73.1444 189.7134,55.0468 19.1537,-5.2783 20.0655,-3.7705 20.0655,35.4414 0,21.8676 -2.7362,42.9818 -5.4724,45.2441 -3.6482,2.2621 -16.4175,-2.2623 -29.1869,-9.8032 -25.5381,-17.3433 -48.3398,-18.8517 -63.8454,-6.0323 -9.1207,7.5405 -16.4175,4.5245 -34.6594,-15.0815 -12.7686,-12.8194 -30.0987,-24.1304 -38.3074,-24.1304 -18.2411,0 -56.5486,29.4087 -56.5486,42.9819 0,6.0328 -4.5606,17.3438 -10.0331,26.3925 -10.033,15.0816 -10.033,15.0816 -34.6593,-4.5244 -21.8899,-17.3437 -27.3624,-18.8515 -36.483,-9.8026 -9.1205,9.8026 -49.2524,154.5837 -57.4611,208.8766 -3.6481,23.376 -16.4176,23.376 -105.8016,-3.016 -82.0874,-24.1304 -111.2742,-18.8521 -111.2742,19.6054 0,14.3276 8.2087,36.9497 18.2419,51.2767 20.978,30.1626 30.0986,46.7525 45.6043,80.6855 6.3842,12.8188 17.3292,25.6382 24.626,28.6542 19.1538,6.0327 25.5381,-0.7539 13.6814,-13.5731 -12.7695,-12.8188 -5.4725,-20.3599 19.1536,-20.3599 12.7695,0 16.4175,3.7705 12.7695,15.0815 -2.7364,8.295 -0.9126,16.5894 2.7361,18.8515 10.9451,6.0327 28.2743,-22.622 21.8899,-36.1953 -2.7361,-6.0321 -0.9124,-13.5732 3.6482,-15.8353 13.6813,-6.7867 40.1318,14.3277 51.0768,40.7196 12.7686,31.6709 34.6585,44.4902 54.7249,30.917 8.2087,-6.0327 14.593,-18.0976 14.593,-27.9003 0,-24.1304 14.5931,-29.4086 41.0437,-15.0816 25.5381,14.3271 30.0987,42.9819 9.1205,57.309 -7.2961,5.2789 -13.6812,12.0655 -13.6812,15.8354 0,11.311 36.4837,7.5411 41.9562,-4.5244 6.3844,-12.8188 27.3625,-15.081 35.5711,-4.5245 7.2963,11.3112 -21.8899,30.917 -45.6042,30.917 -25.538,0 -38.3075,12.8194 -23.7144,24.8843 15.5057,12.8194 82.9999,-7.5404 131.3397,-41.4735 24.6263,-17.3438 47.4288,-27.9009 51.9887,-24.1304 4.5606,3.7706 3.6488,21.8682 -0.9126,40.7196 -5.4724,18.8521 -10.9449,50.5224 -13.6812,71.6368 -7.2968,56.555 -9.1206,58.8173 -32.8349,48.2601 -11.8568,-5.2782 -56.5492,-30.917 -100.3284,-57.309 -80.2637,-49.0146 -186.0653,-91.2426 -198.8341,-79.9316 -4.5606,3.0167 -9.1211,12.8194 -10.9448,21.1143 -2.7364,12.0649 -10.0332,15.0815 -38.3075,14.3272 -18.2418,-0.7545 -42.8681,-4.5245 -53.813,-9.0489 -10.945,-3.7699 -38.3074,-13.5732 -61.1092,-21.1138 -47.428,-16.5898 -104.8891,-56.555 -123.131,-85.9636 -14.5931,-23.3766 -20.0663,-75.4073 -10.0331,-88.9805 3.6487,-5.2783 12.7693,-9.0488 20.0663,-9.0488 12.7686,0 15.5049,11.311 16.4174,67.8662 0.9125,25.6386 2.7356,26.3925 41.9555,30.917 63.8455,7.5404 71.1423,-3.0162 35.5712,-59.5713 -27.3624,-45.244 -44.6918,-58.8173 -44.6918,-35.4414 0,15.0816 -14.5938,14.3272 -21.8906,-0.7539 -6.3844,-14.3276 1.8257,-27.9008 13.6819,-21.8681 12.7686,6.7866 10.0324,-9.8026 -6.3851,-30.1625 -15.5055,-20.3599 -17.3293,-18.0977 27.3626,-29.4087 6.3842,-2.2622 14.593,-16.5899 18.2418,-32.4253 16.4174,-79.931 65.6699,-243.5636 83.9117,-277.4966 6.3843,-12.8194 14.5931,-33.1793 18.2411,-45.2442 3.6481,-12.8193 30.0986,-78.4232 59.2855,-147.0432 28.2743,-68.6206 67.4936,-163.6332 85.7355,-211.1395 18.2418,-47.5062 39.2191,-91.9959 46.5161,-98.7825 17.3293,-15.8354 8.2087,-33.933 -21.8899,-42.9819 -33.7468,-11.311 -115.8342,-24.1304 -147.7572,-24.1304 -29.1869,0 -32.835,-6.7866 -17.3293,-32.4246 26.4505,-40.7198 54.7248,-51.2769 86.6472,-31.6709 z m 348.4154,52.7845 c -3.6487,39.9659 -31.0111,44.4903 -61.1097,10.5571 l -20.9775,-23.3758 31.0105,-21.1143 c 27.3625,-19.6054 31.0106,-20.3598 41.9555,-9.0488 6.3851,6.7866 10.945,26.3926 9.1212,42.9818 z M 1390.7999,1234.669 c 1.825,18.8515 -0.9126,24.8842 -17.3301,28.6547 -12.7686,3.7699 -24.6261,0.7539 -33.7467,-6.7866 -12.7695,-10.5571 -12.7695,-13.5732 7.2961,-30.917 27.3632,-23.3759 40.1319,-21.1142 43.7807,9.0489 z m -669.46795,60.325 c -7.29683,39.2119 -10.94502,47.5063 -21.8899,47.5063 -17.32999,0 -19.15372,-18.8515 -4.56065,-47.5063 18.24185,-36.1952 31.92306,-35.4408 26.45055,0 z m 1715.62495,-7.5405 c 12.7693,15.0815 13.6812,22.622 5.4723,31.6709 -5.4723,6.7866 -13.6812,19.606 -19.1535,28.6547 -5.4725,11.311 -16.4176,17.3438 -31.9232,17.3438 -27.3625,0 -30.0986,-21.8682 -8.2087,-67.8662 17.3299,-35.4413 31.923,-37.7035 53.8131,-9.8032 z m -255.3826,18.8515 c 36.4831,8.295 56.5485,21.1143 31.0106,21.1143 -5.4725,0 -22.8019,8.2944 -38.3075,18.0976 -16.4175,10.5566 -39.2193,20.3599 -51.9886,23.376 -25.5381,5.2783 -38.3075,-8.295 -49.2523,-51.2763 -5.4725,-19.606 -4.5607,-20.3599 31.0104,-20.3599 20.0663,0 54.7249,3.77 77.5274,9.0483 z m -144.1091,7.5411 c 12.7693,12.8188 22.8018,50.5223 16.4175,58.8173 -6.3843,9.0487 -95.7686,-36.9497 -95.7686,-49.7685 0,-8.2949 11.8569,-11.311 60.1974,-17.3438 5.4725,0 14.5931,3.7705 19.1537,8.295 z m 684.9735,37.7035 c -3.6488,28.6543 -20.0662,35.4409 -34.6593,13.5733 -9.1213,-13.5733 -7.297,-18.0982 6.3844,-27.1464 25.538,-15.8361 31.9231,-12.8194 28.2749,13.5731 z m -764.3246,8.2944 c 41.0437,28.6548 135.9004,69.3745 179.6804,76.9149 16.4173,3.0167 31.9223,7.5405 33.7466,9.8034 6.3844,8.2944 -4.5605,46.7518 -13.6812,46.7518 -3.6481,0 -41.0436,-13.5733 -82.9991,-29.4087 -108.538,-42.228 -220.724,-128.9456 -165.999,-128.9456 8.2087,0 30.0986,11.311 49.2523,24.8842 z m -722.3683,4.5244 c 2.7362,6.7866 -0.9126,8.295 -13.6812,5.2784 -14.5938,-3.77 -26.4505,3.0166 -50.1642,27.1464 -29.1868,29.4092 -105.8017,70.8827 -115.8349,62.5878 -1.825,-2.2622 2.7363,-9.8027 10.945,-17.3437 10.0332,-9.0483 11.8575,-16.5894 6.3851,-24.1299 -14.5938,-18.8514 -10.945,-22.622 48.3398,-45.9979 58.3737,-22.6226 106.7136,-26.3926 114.0104,-7.5411 z m 1308.8364,17.3437 c 15.5056,17.3439 16.4174,21.1138 2.7362,61.8335 -16.4174,52.0307 -35.5711,72.3905 -70.2298,72.3905 -33.7475,0 -53.8129,-24.8843 -53.8129,-67.8661 0,-39.9658 18.2418,-65.604 58.3729,-79.931 34.6593,-12.0655 41.0436,-11.311 62.9336,13.5731 z m -717.8078,-6.0327 c 2.7363,6.0327 -4.5606,21.8682 -16.4174,34.687 -23.7143,27.1464 -31.923,18.8521 -16.4175,-18.8515 10.945,-27.9004 24.6262,-33.933 32.8349,-15.8355 z m 571.875,9.8033 c 1.8223,3.77 0.9125,33.1786 -2.7363,66.3578 -5.4724,46.7518 -3.648,64.0956 6.3844,76.9149 11.8575,15.0811 10.945,17.3432 -7.2961,25.6382 -18.2419,7.5411 -22.8025,6.7866 -31.0114,-4.5244 -4.5599,-7.5405 -16.4173,-19.606 -24.626,-27.1465 -14.5931,-12.8194 -14.5931,-16.5893 -0.9126,-48.2602 13.6812,-33.933 13.6812,-35.4413 -5.4725,-52.0306 -28.2743,-24.8843 -17.3293,-42.228 26.4505,-42.228 20.0656,0 37.395,2.2621 39.2193,5.2788 z m -500.7326,18.0977 c -2.7362,3.7699 -9.1213,5.2782 -13.6812,2.2621 -4.5607,-2.2621 -6.3844,-7.541 -2.7362,-11.311 2.7362,-3.7705 9.1206,-5.2788 13.6812,-2.2621 4.5607,2.2621 6.3842,7.5405 2.7362,11.311 z m -696.8304,6.7866 c 0,3.7699 -1.825,7.5404 -3.648,7.5404 -2.7362,0 -7.2968,-3.7705 -10.0332,-7.5404 -2.7362,-4.5245 -0.9124,-7.5411 3.6482,-7.5411 5.4731,0 10.033,3.0166 10.033,7.5411 z m 1514.0554,17.3432 c 0,30.1631 -4.5606,34.6875 -28.275,30.1631 -19.1537,-4.5244 -21.8899,-18.0977 -8.2087,-40.7197 15.5057,-24.1303 36.4837,-18.0976 36.4837,10.5566 z m -745.1708,13.5732 c 20.9781,12.0655 57.4611,32.4253 80.2635,43.7364 37.395,18.8514 42.8674,26.3919 56.5486,65.6039 12.7695,36.9491 12.7695,49.014 3.6488,70.8821 -12.7693,30.917 -14.5937,32.4248 -33.7474,27.1464 -7.2968,-1.5082 -33.7468,-8.2948 -58.373,-15.0815 -39.2199,-10.5565 -47.4286,-10.5565 -59.2855,-1.5077 -17.3293,12.8187 -89.3835,34.687 -95.7685,29.4086 -2.7363,-2.2621 10.0331,-15.0815 27.3625,-28.6548 16.4174,-13.5732 31.0104,-30.1625 31.0104,-37.7036 0,-7.5404 16.4176,-24.8841 36.4837,-39.2113 40.1319,-28.6547 45.6037,-43.7357 18.2419,-51.2768 -14.5937,-3.7699 -18.2419,-11.311 -18.2419,-34.6869 0,-27.9003 -0.9124,-29.4087 -22.8017,-24.8843 -19.1538,3.7705 -22.8025,2.2622 -22.8025,-11.311 0,-21.8681 11.8574,-19.606 57.4611,7.5405 z m -823.6094,38.4574 c 0,34.6876 65.6699,61.0795 78.4392,32.4254 9.1206,-18.8521 21.8901,-12.8194 21.8901,9.8026 0,40.7198 -35.5713,50.5224 -86.6481,24.1304 -24.6262,-12.8194 -31.0105,-21.1143 -33.7468,-47.5063 -2.7362,-17.3437 -2.7362,-33.933 -0.9124,-37.7036 7.2961,-9.8027 20.9773,3.0161 20.9773,18.8515 z m 100.3293,-16.5893 c 0,3.7705 -3.6482,7.5406 -9.1208,7.5406 -4.5606,0 -9.1211,-3.7701 -9.1211,-7.5406 0,-4.5243 4.5605,-7.5405 9.1211,-7.5405 5.4726,0 9.1208,3.0162 9.1208,7.5405 z m 653.0504,8.295 c 7.2961,10.5566 -14.5938,44.4896 -29.1869,44.4896 -18.2419,0 -22.8025,-24.1298 -7.2969,-38.4574 18.2419,-16.5894 27.3625,-18.0977 36.4838,-6.0322 z m -1282.38665,38.4574 c 0,9.0489 -25.53868,7.5405 -31.92306,-1.5082 -3.64805,-4.5245 -3.64805,-14.3277 0,-21.1144 5.47251,-12.0649 7.29697,-11.311 19.15372,1.5084 7.29697,8.295 12.76934,17.3437 12.76934,21.1136 z m 478.84275,-8.2949 c 0,9.8027 3.6481,25.6382 8.2087,35.4414 7.2968,18.0976 68.4061,54.2929 92.1204,54.2929 23.7137,0 15.505,12.8188 -19.1537,29.4086 -41.9562,21.1138 -93.0329,20.3599 -132.2522,-1.5083 -36.483,-20.3598 -51.98865,-61.8339 -29.1861,-82.1938 7.2962,-7.5405 11.8567,-18.0976 8.2087,-24.8842 -2.7362,-7.5405 0.9125,-13.5733 10.9443,-15.8354 8.2087,-2.2622 21.8906,-6.7866 29.1869,-10.5566 20.978,-9.8033 31.923,-4.5244 31.923,15.8354 z m 861.9167,12.8194 c 0,10.5565 -20.978,24.1298 -38.3074,24.1298 -19.1536,0 -20.978,-8.2944 -5.4724,-21.1138 11.8568,-9.8026 43.7798,-12.0649 43.7798,-3.016 z m -112.186,21.1137 c 7.297,15.8355 -11.8567,31.6708 -25.5379,20.3598 -11.8576,-9.8027 -4.5607,-32.4247 10.0324,-32.4247 5.4724,0 11.8575,5.2782 15.5055,12.0649 z m -1251.37522,3.0161 c 10.03243,13.5731 -5.47252,37.7035 -23.71437,37.7035 -20.06617,0 -20.06617,0 -8.20869,-25.638 9.12056,-20.3599 21.8899,-24.8843 31.92306,-12.0655 z m 63.84554,0.7545 c 6.38424,8.2943 -20.06559,36.949 -33.74752,36.949 -13.68049,0 -19.153,-22.622 -7.29625,-33.933 13.68121,-13.5733 32.83493,-15.0815 41.04377,-3.016 z m 1142.83808,58.8172 c -6.3851,8.2943 -17.33,15.8354 -23.7144,15.8354 -20.0663,0 -22.8018,-22.622 -5.4725,-38.4574 13.6812,-12.8193 18.2411,-13.5732 29.1869,-4.5245 10.0324,9.0489 10.9448,13.5733 0,27.1465 z m 93.0322,-26.3926 c 0,6.0328 -10.0331,21.1138 -21.8906,32.4248 -17.3294,15.8354 -24.6262,18.8521 -32.8349,12.0655 -8.2087,-6.0328 -6.3844,-13.5733 10.0331,-31.6709 21.8899,-24.8843 44.6924,-30.917 44.6924,-12.8194 z m -138.6365,68.6201 c -4.5606,19.6059 -31.9232,31.6708 -45.6044,20.3598 -8.2087,-6.7866 -6.3843,-12.8188 10.945,-27.9004 22.8025,-19.6059 41.0436,-15.8353 34.6594,7.5406 z m 65.6697,24.8842 c -0.9124,27.9009 -28.2743,56.555 -48.3404,49.7685 -22.8018,-6.7866 -19.1538,-33.1786 9.1205,-57.309 27.3632,-23.3759 39.2199,-21.1138 39.2199,7.5405 z m 217.0752,5.2789 c 21.8899,7.5405 38.3074,18.8515 38.3074,25.6381 0,6.7866 -12.7687,40.7196 -28.2743,76.161 -33.7468,77.6688 -61.1099,156.846 -72.0542,205.1061 -11.8575,55.8013 -36.4837,129.7001 -44.6924,136.4868 -7.2963,6.0321 -99.4167,-9.8033 -167.8227,-28.6548 -20.9782,-5.2782 -73.8786,-18.8515 -117.6585,-30.1625 -44.6924,-11.3111 -80.263,-22.6221 -80.263,-26.3926 0,-6.0327 34.6587,-16.5893 159.614,-50.5224 97.5922,-25.6386 141.3729,-29.4086 176.0314,-14.3276 31.9231,13.5731 47.4288,15.0815 47.4288,5.2788 0,-3.0167 -18.2419,-14.3277 -41.0437,-24.1303 -22.8024,-9.8028 -41.0436,-23.3759 -40.1317,-29.4087 0,-6.0327 9.1206,-31.6709 20.0654,-56.5551 19.1538,-41.4736 22.8025,-45.2441 45.6043,-43.7358 20.9775,1.5078 28.2744,-3.7705 40.1319,-24.8842 14.5931,-24.8843 14.5931,-26.3927 -8.2087,-46.7524 -23.7144,-20.3599 -23.7144,-20.3599 -6.3851,-38.4575 9.1213,-9.8027 17.33,-23.3759 17.33,-30.1626 0,-14.3276 9.1206,-25.6387 17.3294,-21.1142 2.7362,1.5083 22.8018,9.0488 44.6917,16.5899 z m -580.0837,15.8353 c -1.8251,7.5406 -10.0325,20.3599 -18.2412,27.9004 -8.2087,7.5404 -15.5056,18.8516 -16.4174,25.6382 -3.6487,18.0976 -28.275,34.6875 -43.7806,30.1631 -18.2412,-6.0329 -19.153,-30.917 -0.9125,-42.9819 7.2969,-5.279 13.6812,-13.5733 13.6812,-18.8521 0,-12.8188 45.6043,-42.9819 58.3736,-39.2114 5.4726,1.5084 8.2087,9.8028 7.2963,17.3437 z m 238.0532,-6.0327 c 17.33,15.0816 11.8569,24.1304 -12.7694,24.1304 -20.0656,0 -30.098,-12.0655 -22.8017,-26.3925 6.3843,-15.0816 17.3299,-14.3272 35.5711,2.2621 z m 230.7571,22.6221 c -8.2087,12.8193 -33.7476,34.6869 -58.3738,49.7684 -36.483,21.8683 -46.5161,32.4248 -50.1642,55.0468 -7.2968,33.1793 -2.7362,38.4575 21.8899,26.3926 30.0988,-15.8354 35.5713,-3.7705 17.3294,38.4575 -13.6812,32.4247 -22.8017,41.4736 -51.9886,52.0307 -19.1537,7.5405 -43.78,13.5732 -54.7248,13.5732 -10.9451,0 -21.8901,3.0161 -24.6263,6.7867 -2.7363,3.7705 -20.0656,9.0487 -38.3074,12.0649 -18.2412,2.2621 -51.0761,12.0654 -72.966,21.1142 -21.8906,8.2944 -41.9562,14.3271 -43.7799,12.0649 -4.5607,-3.7705 55.6367,-134.9783 66.5817,-144.0272 2.7362,-2.2622 23.7143,-2.2622 46.5161,1.5084 38.3075,6.7866 42.8681,5.2782 66.5818,-15.8355 20.0661,-18.0976 25.5386,-29.4087 22.8017,-50.5223 -1.825,-22.6221 0.9132,-27.901 16.4174,-30.917 20.9782,-4.5245 60.1981,-40.7196 70.2305,-64.0957 5.4725,-11.311 9.1213,-12.0654 20.0656,-4.5243 10.0332,6.7866 17.33,6.0321 33.7475,-3.0166 25.538,-15.0811 31.0105,-5.2784 12.7694,24.1303 z m -1634.45015,11.311 c 10.94503,14.3271 2.73618,24.1304 -17.32926,18.0977 -15.50567,-5.2783 -19.15372,-38.4575 -2.73633,-33.9332 5.47251,1.5084 14.59308,9.0489 20.06559,15.8355 z m 305.54738,19.6059 c 10.94502,16.5894 2.73633,26.3921 -13.68121,15.081 -8.2087,-6.0321 -13.68121,-3.7699 -20.97804,6.7867 -9.12056,13.5732 -52.90052,26.3926 -66.58172,19.606 -16.4174,-9.0489 10.94502,-37.7037 43.77995,-45.9981 47.42801,-12.0654 47.42801,-12.0654 57.46102,4.5244 z m 1068.04707,-0.7543 c 0,7.5409 -5.4725,19.6058 -11.8569,27.1464 -10.9449,12.8193 -12.7694,12.0654 -33.7468,-2.2622 -22.8025,-15.8355 -22.8025,-15.8355 -5.4724,-27.1465 24.6261,-15.8354 51.0761,-14.3271 51.0761,2.2623 z m -721.45664,7.5409 c 7.29697,11.311 0.91331,21.1138 -30.09788,51.2763 -40.13191,37.7036 -60.19807,70.8828 -42.86809,70.8828 5.47251,0 10.03316,-5.2789 10.03316,-11.311 0,-8.2949 10.03243,-11.311 34.65852,-11.311 19.15372,0 37.39557,1.5077 40.1319,3.7699 2.73619,2.2622 0.91245,19.606 -2.73633,39.9658 -3.64805,19.6054 -2.73618,38.4574 1.82518,42.9819 4.5605,3.7699 8.2087,20.3598 8.2087,36.9492 v 30.1625 l -27.36242,-21.8676 c -27.36242,-21.1143 -35.57126,-41.4742 -18.24127,-41.4742 18.24127,0 8.20884,-14.3271 -10.94488,-16.5892 -13.68121,-1.5084 -21.89063,-8.295 -23.71437,-19.6054 -3.64877,-18.0977 -20.06631,-23.3765 -20.06631,-6.0328 0,17.3432 27.36314,74.6528 41.04377,87.4716 17.32998,15.8354 9.12114,22.622 -23.71379,22.622 -15.50552,0 -29.18673,-5.2783 -34.65924,-13.5733 -4.55992,-6.7866 -28.27429,-17.3431 -52.90052,-22.622 -43.77981,-10.5565 -175.11953,-52.7845 -186.97714,-61.0795 -9.12057,-6.786 16.41753,-95.0121 33.74752,-116.8802 11.85689,-15.0815 27.36241,-18.8515 98.50478,-27.1464 45.60427,-5.2784 104.88917,-14.3271 129.51526,-19.606 61.10922,-12.8187 66.58245,-12.8187 76.61489,3.0166 z m -590.116,4.5245 c 17.32926,6.0322 41.04362,9.0488 51.07678,6.7865 10.94488,-2.2621 20.06544,-0.7543 20.06544,3.0162 0,12.8193 -20.06544,58.0635 -31.01119,69.3745 -5.47179,5.2782 -10.9443,25.638 -11.85675,45.244 -5.47251,66.3578 -15.50494,69.3739 -56.54857,15.081 -27.36256,-36.1952 -28.27501,-39.2114 -12.76948,-49.014 9.12071,-5.2789 26.45069,-7.5411 39.21931,-5.2789 20.97818,4.5244 21.8899,3.7705 7.29682,-8.2944 -14.59307,-12.0654 -15.50552,-14.3277 -1.82503,-31.6708 19.153,-23.3765 10.03243,-32.4253 -13.68193,-15.0815 -31.01047,23.3759 -73.87856,-7.5406 -44.69168,-31.6709 13.68121,-11.311 16.41739,-11.311 54.72484,1.5083 z m 1373.59424,21.8676 c 19.1538,25.6387 7.297,45.9986 -30.0986,49.0146 -39.22,3.7705 -45.6042,-8.295 -20.9781,-42.9819 23.7143,-34.6869 30.0987,-35.4414 51.0767,-6.0327 z m 232.5809,12.8193 c -5.4725,15.8354 -33.7468,21.1137 -43.78,7.5405 -2.7362,-3.77 -0.9126,-14.3271 4.5599,-22.6221 13.682,-20.3597 46.5169,-7.5404 39.2201,15.0816 z m -57.4612,-15.0816 c 0,12.0655 -27.3624,43.7364 -41.9555,48.2609 -17.33,5.2782 -16.4175,-2.2623 5.4725,-31.6709 17.3293,-23.3765 36.483,-32.4254 36.483,-16.59 z m -1613.47193,30.917 c 12.76934,15.0816 16.41739,25.6382 10.03301,30.917 -5.47237,4.5244 -15.50553,-1.5082 -28.27429,-18.8521 -20.97803,-28.6542 -23.71436,-35.4408 -10.94488,-35.4408 4.55992,0 17.32926,10.5567 29.18616,23.3759 z m 1339.84763,3.7706 c 0,16.5893 -26.4507,21.8676 -42.8681,8.2943 -11.8569,-9.8026 -12.7688,-14.327 -3.6482,-23.3759 14.5931,-14.327 46.5163,-3.7705 46.5163,15.0816 z m -1016.97099,-3.0167 c -3.64806,9.8032 -14.59308,22.622 -24.62609,29.4087 -15.50495,9.8033 -16.41754,12.8193 -5.47251,16.5899 9.12056,2.2621 11.85747,11.311 9.12056,27.1464 -4.55992,27.9004 -15.50495,35.4408 -56.54857,40.7192 -17.32998,2.2621 -45.60427,6.7865 -62.02181,9.8032 -29.18673,4.5244 -30.0986,3.7699 -27.36242,-15.8355 1.82576,-16.5893 9.12129,-23.3759 30.09875,-28.6547 15.50552,-3.77 41.04363,-12.0649 58.37289,-18.0977 27.36314,-9.8026 29.18687,-12.8188 15.50567,-18.8515 -10.94503,-5.2783 -20.06559,-3.7705 -31.01062,3.7706 -8.2087,6.7865 -27.36242,12.8188 -42.86794,14.327 -22.80177,1.5084 -26.44997,0 -24.62623,-12.8193 4.56064,-22.622 38.30744,-49.0141 62.93367,-49.0141 11.85675,0 20.97804,3.7701 20.97804,8.2944 0,4.5244 10.94502,0.7545 23.71364,-7.5405 33.74752,-21.8681 62.02181,-21.1136 53.81297,0.7539 z m 364.83228,-1.5078 c 8.20884,21.8677 -1.82504,30.1627 -37.39486,30.1627 -36.4837,0 -38.30744,-4.5245 -10.94488,-27.9004 23.71365,-21.1143 41.04363,-21.8681 48.33974,-2.2623 z m 404.05231,11.311 c 1.8258,12.8188 -2.7363,15.0811 -27.3624,14.3272 -44.6918,-1.5084 -45.6037,-1.5084 -34.6587,-18.8515 13.6813,-20.3598 58.3729,-17.3438 62.0211,4.5243 z m -295.5143,6.0323 c 15.5056,9.0488 15.5056,11.311 -3.6481,41.4741 -10.945,17.3432 -23.7144,33.933 -28.2743,36.1953 -4.5606,2.2621 -8.2088,18.8515 -8.2088,36.9491 0,23.3759 -4.5605,35.4414 -15.5056,41.4736 -13.6812,6.0327 -11.8574,6.7866 8.2088,3.0166 28.2742,-5.2789 46.5161,14.3271 37.3948,42.2275 -4.5599,14.3276 -2.7355,16.5898 10.0332,12.8192 10.0331,-3.016 26.4505,0.7539 41.9562,9.8028 23.7136,13.5733 25.5379,18.0976 17.3292,39.2119 -4.5606,12.8188 -5.4725,25.6381 -2.7361,27.9004 2.7361,2.2621 28.2742,4.5243 57.4611,4.5243 41.9555,0 60.1974,-4.5243 90.296,-21.1137 20.9781,-11.311 38.3074,-26.3925 38.3074,-32.4253 0,-9.8027 -2.7362,-10.5566 -12.7693,-3.77 -7.2963,5.2784 -22.8018,6.7866 -36.483,3.77 -20.0656,-3.77 -23.7144,-2.2622 -23.7144,10.5572 0,12.0648 -8.2088,16.5892 -36.4831,20.3598 -41.0436,6.0328 -60.1974,0 -46.5161,-14.3271 5.4725,-5.2789 21.89,-8.295 37.3955,-6.0327 40.1312,4.5243 33.7468,-9.8027 -9.1213,-21.1138 -20.0654,-5.2789 -40.131,-13.5732 -44.6916,-18.0975 -10.0332,-9.8034 -28.2743,-118.3892 -21.8899,-127.4379 2.7361,-3.77 9.1205,-3.0162 14.593,1.5082 19.1536,15.8355 58.3736,8.295 98.5047,-18.0976 21.89,-14.327 44.6925,-26.3925 50.1643,-26.3925 5.4731,0 12.7694,19.6059 15.5055,42.9819 13.6812,104.8157 122.2192,253.3668 211.6034,288.0543 42.8674,16.5893 47.428,30.9164 9.1206,30.9164 -44.6917,0 -51.9887,42.228 -13.6812,85.2099 14.5931,16.5899 27.3624,38.4575 27.3624,47.5063 0,21.1137 -33.7468,55.8012 -54.7248,55.8012 -9.1206,0 -18.2419,6.7866 -20.9782,15.0815 -6.3843,21.1138 -18.2419,18.8515 -57.461,-11.3116 -18.2419,-14.327 -36.4832,-26.3919 -40.1312,-26.3919 -3.6488,0 -9.1213,15.0809 -12.7694,33.933 -2.7361,18.8515 -9.1205,40.7197 -14.5938,49.0146 -8.2087,12.8188 -12.7686,13.5733 -34.6585,6.0322 -96.6812,-34.6869 -294.6025,-182.4847 -308.2837,-231.4987 -3.6482,-10.5571 -11.85692,-24.1304 -20.06561,-28.6548 -7.29697,-5.2782 -19.15372,-21.8682 -25.5381,-36.1952 -10.03316,-24.1304 -9.12129,-27.9004 8.20869,-37.7036 32.83493,-18.8516 48.33992,-12.8188 98.50482,37.7036 26.45,27.1464 49.2525,49.0146 50.1643,49.0146 3.6481,0 66.5818,-22.6221 86.6479,-30.917 8.2087,-3.0161 29.1862,-8.295 46.5155,-10.5571 29.1868,-4.5245 32.8356,-3.0161 74.7911,41.4741 47.428,51.2762 50.1642,51.2762 123.131,24.8843 23.7137,-8.295 28.2743,-12.8194 17.3293,-15.0816 -8.2087,-1.5084 -23.7137,0.7544 -33.7468,4.5243 -41.9562,18.8516 -72.0541,1.5084 -110.3616,-62.5877 -7.2968,-12.0649 -19.1537,-23.3759 -26.4505,-25.6382 -7.297,-2.2622 -44.6925,5.2783 -82.9993,15.8354 -39.2199,11.311 -77.5273,20.3599 -84.8241,20.3599 -8.2081,0 -26.45,-14.3272 -41.0437,-32.4248 -14.593,-17.3437 -36.4831,-38.4574 -47.428,-46.7524 -19.1537,-14.3271 -20.0656,-14.3271 -77.52674,2.2623 -54.72484,15.8354 -59.28548,15.8354 -101.24098,3.7705 -54.72483,-14.3277 -65.66986,-21.8683 -51.07678,-33.933 6.38496,-5.279 10.94488,-16.59 10.94488,-25.6388 0,-9.0488 10.03316,-21.8676 21.89005,-27.9004 23.71436,-13.5731 38.30744,-8.2948 22.8025,6.7867 -11.85762,12.0649 -16.41754,9.8027 77.5266,32.4247 64.75797,15.8354 86.64807,14.3278 69.31797,-3.0161 -7.2962,-6.7865 -7.2962,-11.311 0,-15.0815 13.6813,-6.7866 28.275,3.0166 25.5388,17.3438 -1.8251,8.2949 2.7362,12.0648 11.8567,10.5571 7.297,-0.7545 22.802,5.2782 33.7468,13.5732 22.8025,18.0976 42.8681,19.6054 34.6594,3.016 -2.7363,-6.7865 -5.4725,-15.0815 -5.4725,-18.8514 0,-3.7706 -10.0331,-10.5572 -22.8017,-14.3277 -12.7695,-3.7699 -22.8025,-10.5565 -22.8025,-15.081 0,-3.7705 -5.4726,-7.541 -12.7688,-7.541 -17.33,0 -58.37365,-61.8334 -62.0217,-91.9959 -1.82518,-19.606 0.91245,-24.8843 15.5055,-27.1465 35.5713,-5.2789 36.4832,-16.5899 0.9126,-16.5899 -33.74751,0 -34.65937,0 -28.27427,-24.8842 3.64805,-12.8188 11.85675,-29.4087 18.24113,-35.4408 5.47254,-6.0328 13.68124,-17.3438 16.41754,-24.8843 7.2968,-15.0815 50.1642,-17.3437 73.8786,-3.0166 z m 493.4364,21.8681 c 27.3624,9.8027 26.4499,21.8682 -5.4726,79.1772 -9.1212,17.3437 -17.3299,36.9491 -17.3299,42.9819 0,15.0815 -1.8223,15.0815 -41.0437,-3.7705 -45.6042,-22.6221 -40.1311,-40.7198 11.8569,-39.9653 40.1318,0.7539 54.7256,-15.0815 22.8025,-24.8843 -9.1207,-2.2621 -23.7143,-9.8032 -32.8349,-15.8354 -15.5057,-11.311 -14.5938,-12.8193 9.1206,-28.6547 31.0111,-21.1138 24.626,-19.606 52.9011,-9.0489 z m -170.5597,33.1793 c 1.8258,10.5565 -5.4725,20.3597 -20.0655,28.6541 -13.6813,6.7867 -23.7144,18.0977 -23.7144,24.8843 0,10.5571 2.7363,10.5571 19.1537,-2.2623 19.1537,-14.3271 19.1537,-13.5732 36.483,3.7705 13.6819,13.5733 17.3301,27.1465 14.5938,56.5552 -1.825,24.1303 -6.385,38.4575 -13.6812,37.7036 -6.3844,-0.7545 -16.4174,-1.5084 -23.7144,-2.2622 -13.6812,-0.7544 -26.4505,-24.8843 -46.5161,-88.226 -16.4174,-49.7685 -3.6481,-79.9316 31.923,-76.915 15.5057,1.5078 23.7144,7.5405 25.5381,18.0978 z m 63.8462,19.6053 c 4.5599,43.7363 -24.6263,33.9331 -38.3075,-11.311 -5.4731,-19.6054 -3.6487,-21.1137 14.5931,-18.8516 17.3294,1.5084 21.8901,7.5406 23.7144,30.1626 z m -363.0086,24.8842 c 0,6.0328 -3.648,11.311 -9.1213,11.311 -4.5599,0 -9.1205,-5.2782 -9.1205,-11.311 0,-6.0321 4.5606,-11.311 9.1205,-11.311 5.4733,0 9.1213,5.2789 9.1213,11.311 z m -510.7658,19.606 c 49.25246,8.295 57.46116,24.1304 15.50567,27.9003 -25.53811,2.2622 -79.35107,-16.5893 -79.35107,-28.6542 0,-9.8032 6.38438,-9.0487 63.8454,0.7539 z m 141.37287,37.7036 c 17.32926,13.5733 -10.03315,21.8676 -57.46116,16.5893 -54.72484,-5.2783 -60.19735,-12.0649 -17.32998,-22.622 30.09932,-8.295 59.28547,-6.0327 74.79114,6.0327 z m -294.6025,-0.7544 c 44.6924,10.5571 51.07679,21.1142 24.62624,39.2118 l -21.88991,14.3272 27.36242,-4.5244 c 22.80249,-3.0161 32.83493,0 50.16419,15.0815 22.8025,20.3599 19.15444,28.6543 -15.50495,36.9491 -16.41739,4.5245 -28.27428,-3.7705 -69.31791,-45.9979 -61.10994,-62.5879 -60.19735,-69.3745 4.55992,-55.0473 z m 1068.04763,17.3437 c 20.9775,11.311 23.7136,16.5893 14.5931,24.8843 -7.2969,7.5405 -23.7144,10.5571 -43.7798,9.0487 -31.0114,-2.2621 -32.835,-3.7705 -29.1869,-24.8841 5.4725,-39.2114 6.3844,-39.2114 58.3736,-9.0489 z m -909.34549,12.8194 c 20.06559,0 14.5938,13.5732 -10.03243,27.1465 -21.88991,12.0649 -24.62624,12.0649 -41.04363,-0.7545 -29.18688,-21.8682 -23.71436,-36.9492 10.03243,-30.917 15.50567,2.2621 34.65925,4.5244 41.04363,4.5244 z m 394.9316,14.3271 c 5.47249,7.5404 6.38439,15.8354 3.64819,18.8514 -8.20883,6.0329 -40.13189,-18.8514 -33.74751,-26.3919 8.2087,-10.5571 20.97818,-7.5411 30.09932,7.5405 z m -269.97626,11.311 c 13.68121,3.016 24.62623,8.2949 24.62623,12.8194 0,12.0649 -28.27429,17.3431 -46.51614,8.2943 -24.62623,-12.8188 -27.36241,-11.311 -20.97803,9.0488 4.56064,15.0815 0,20.3598 -24.62624,30.917 -28.27428,12.8194 -30.09874,12.8194 -45.60427,-4.5245 -9.12056,-9.8026 -17.3294,-21.8681 -17.3294,-25.638 0,-9.0489 31.92306,-27.901 59.28562,-34.6876 18.24185,-5.2783 22.80177,-4.5244 71.14223,3.7706 z m 754.29155,24.1304 c 45.6035,1.5078 188.8007,35.4408 202.4819,46.7518 6.3844,5.2788 1.8225,14.3277 -14.5936,27.9008 -12.7695,10.5567 -23.7137,21.1138 -23.7137,23.376 0,2.2622 -8.2088,14.3271 -19.1537,26.3925 -19.1544,22.6222 -39.22,27.1465 -62.9337,14.3272 -10.945,-5.2783 -10.0331,-9.0489 4.56,-22.622 10.0331,-9.0489 24.6262,-14.3272 34.6594,-12.0649 11.8567,2.2621 14.593,0 10.9448,-9.8034 -2.7361,-8.2944 2.7364,-18.8515 13.6814,-27.1463 10.033,-7.5406 15.5055,-15.8355 13.6812,-19.6055 -6.3844,-8.2949 -59.2856,17.3432 -59.2856,29.4087 0,5.2783 -7.2969,11.311 -15.5055,14.3271 -9.1206,2.2622 -23.7137,9.8027 -32.835,15.8354 -14.5931,10.5571 -18.2411,9.8028 -43.7792,-10.5571 l -27.3624,-21.8677 30.098,-6.7865 c 16.4174,-3.0167 41.0436,-6.7866 55.6374,-7.5411 19.1536,-0.7539 24.6261,-4.5244 24.6261,-18.8515 0,-13.5732 -3.648,-16.5893 -15.5055,-12.0649 -28.2743,9.8027 -107.6254,17.3432 -116.7461,11.311 -4.5605,-3.7705 -17.33,-17.3437 -26.4505,-30.917 l -17.3293,-24.1303 21.8892,6.0327 c 11.8576,3.0161 40.1319,6.7866 62.9344,8.295 z m -684.06105,9.8026 c 0,9.8028 -26.45055,26.3926 -33.74738,21.1138 -6.38438,-6.0322 13.68121,-27.9004 25.53868,-27.9004 4.55993,0 8.2087,3.0161 8.2087,6.7866 z m -211.60323,25.6382 20.06544,17.3437 -22.80177,18.0976 -23.71364,18.0977 -24.62624,-21.1137 -24.62609,-20.3599 21.88919,-15.0816 c 26.45069,-18.0976 30.09946,-18.0976 53.81311,3.0162 z m 1705.59238,6.7866 c 4.5599,5.2788 11.8569,21.1142 15.5049,34.6875 10.0332,41.4735 68.4061,61.0795 68.4061,23.3759 0,-17.3438 24.6262,-27.1464 38.3074,-15.8354 15.5057,12.8194 -0.9124,61.8334 -26.4498,81.4393 -12.7694,9.8027 -33.7476,18.0976 -45.6043,18.0976 -15.5057,0 -25.5381,6.7866 -35.5713,24.1305 -7.2968,13.5731 -16.4174,30.1625 -20.978,36.1951 -4.5599,6.0323 -12.7688,21.1138 -18.2411,32.4248 -11.8576,24.8843 -31.9232,23.3759 -32.835,-2.2621 0,-24.1304 -58.3737,-57.3091 -120.3948,-67.8662 -50.1649,-9.0488 -84.8236,-33.9331 -84.8236,-61.0795 0,-23.3759 15.505,-23.3759 102.153,3.7705 77.5266,24.8843 85.7353,25.6381 96.6803,14.3271 5.4726,-6.7866 10.9451,-21.1137 10.9451,-31.6708 0,-17.3438 10.9448,-59.5712 22.8025,-89.7343 2.7361,-4.5244 7.2961,-9.0489 11.8567,-9.0489 4.5607,0 12.7694,4.5245 18.2419,9.0489 z m -1534.12091,9.8032 c 17.32927,11.311 17.32927,11.311 -4.56064,26.3921 -26.44997,18.8521 -35.57111,18.8521 -64.75799,0 -22.80177,-14.3272 -22.80177,-14.3272 -4.55992,-25.6382 23.71436,-15.0815 51.07678,-15.0815 73.87855,-0.7539 z m 979.57531,26.3921 c 0,27.1464 -15.5057,36.1952 -34.6593,20.3597 -12.7695,-10.5565 -11.8569,-13.5731 1.8258,-31.6707 18.2411,-23.3761 32.8349,-18.0977 32.8349,11.311 z m 80.2629,17.3437 c -3.6481,28.6547 -16.4175,32.4248 -41.9555,12.8194 -27.3624,-21.1144 -13.6812,-45.2442 20.9775,-39.212 20.0661,3.0167 23.7142,6.7866 20.978,26.3926 z m -1155.60681,-9.8032 c 20.97818,9.8032 21.89005,21.1142 1.82302,39.2118 -18.24186,16.5893 -37.39543,17.3432 -59.28548,0.7539 -21.88991,-16.5893 -20.97804,-27.1465 4.55992,-36.9491 27.36314,-11.311 31.92306,-12.0649 52.90124,-3.0162 z m 1221.27671,27.9008 c 0,13.5733 -4.5607,18.0977 -15.505,15.8354 -17.33,-3.0166 -25.5387,-22.622 -17.33,-41.4741 8.2087,-17.3432 32.835,2.2623 32.835,25.6387 z m -997.81659,-8.2949 c 5.47252,6.0327 16.41754,10.5572 23.71379,10.5572 13.68121,0 37.39543,33.1785 28.27487,39.9652 -2.73619,2.2622 -14.59366,-0.7539 -26.45055,-6.7867 -10.94503,-6.7866 -21.88991,-11.311 -23.71437,-9.8026 -4.55992,3.016 -74.79042,-17.3438 -83.91099,-24.1304 -4.56064,-3.77 -3.64877,-11.311 3.64806,-18.0976 13.6812,-14.3272 62.0218,-9.0489 78.43919,8.2949 z m -111.27412,3.7705 c -2.73619,3.77 -9.12057,5.2783 -13.68121,2.2622 -4.56065,-2.2622 -6.38496,-7.541 -2.73619,-11.311 2.73619,-3.7705 9.12057,-5.2789 13.68121,-2.2622 4.56064,2.2622 6.38438,7.5405 2.73619,11.311 z m -41.9555,13.5733 c 8.20884,3.7699 22.80177,9.0488 31.92248,11.311 11.85747,3.016 15.50553,10.5565 13.68121,24.8843 -2.73632,18.8515 -6.38438,21.1136 -32.83493,19.6053 -16.41753,0 -37.39485,-6.0322 -46.51613,-12.8188 -9.12057,-6.7865 -23.71365,-12.0655 -32.83493,-12.0655 -12.76877,0 -10.03316,-4.5244 13.6812,-18.8514 35.57112,-21.8682 31.92306,-21.1138 52.9011,-12.0649 z m 978.66281,0.7538 c 13.6812,0 9.1213,15.0816 -5.4725,19.606 -16.4174,5.2782 -42.8674,-10.5571 -35.5711,-21.1137 2.7362,-3.7706 11.8567,-5.2788 19.1537,-3.0167 7.2968,2.2622 17.33,4.5244 21.8899,4.5244 z m 98.5048,25.6387 c 12.7693,12.8188 -3.6482,25.6381 -36.4831,28.6543 -18.2419,2.2621 -22.8018,-1.5084 -24.6261,-18.8515 -2.7363,-18.0978 0,-20.3599 23.7143,-20.3599 14.5931,0 31.9224,4.5244 37.3949,10.5571 z m -953.12472,12.0649 c 33.7468,12.8188 41.9555,19.6054 41.9555,33.9331 0,22.622 -10.94503,23.3759 -61.10922,3.7699 -36.48298,-13.5732 -50.16419,-33.1786 -32.83493,-47.5062 7.29683,-6.7867 3.64805,-7.5405 51.98865,9.8032 z m 1697.38292,-2.2621 c -2.7362,7.5404 -8.2087,22.622 -10.9449,34.6869 -6.3844,24.1303 -18.2412,33.1791 -32.8349,21.1136 -6.3844,-5.2782 -5.4725,-11.3104 4.5606,-21.1136 8.2087,-7.5405 17.3293,-21.1138 20.0655,-30.917 3.6488,-9.0489 10.945,-16.5893 16.4175,-16.5893 5.4725,0 6.385,6.0327 2.7362,12.8194 z m -876.5098,-0.7545 c 21.8899,6.7866 17.3293,17.3437 -10.0331,26.3925 -30.0986,9.0489 -48.3399,-1.5082 -30.0986,-19.6059 12.7693,-12.8188 19.1537,-13.5732 40.1317,-6.7866 z m -60.1973,40.7196 c 11.8567,12.0655 28.2742,22.6221 38.3074,22.6221 18.2411,0 20.0655,3.0167 21.8899,37.7036 0.9126,18.0976 3.6481,18.8521 53.8124,18.8521 54.7256,0 71.1429,-6.0328 52.9011,-21.1144 -5.4725,-4.5244 -10.0332,-18.0976 -10.0332,-29.4086 0,-15.8354 5.4726,-23.3759 23.7144,-28.6548 31.9225,-10.5565 40.1312,-4.5243 40.1312,27.9009 0,39.2114 30.0993,85.2099 76.6154,116.8802 37.3949,26.3926 57.4612,35.4414 126.7791,58.0635 39.2193,12.8192 20.0656,23.3765 -41.9555,23.3765 -173.2959,-0.7551 -390.3709,-85.9638 -453.3046,-177.9603 -38.3075,-56.5552 -35.5711,-61.0795 41.9555,-70.1283 4.5606,0 18.2418,9.0488 29.1869,21.8675 z m -879.24692,0 c 23.71437,8.295 41.95622,19.606 41.95622,26.3926 0,15.0815 -0.91245,15.0815 -53.81297,-12.0648 -65.66986,-33.9332 -60.19734,-39.9659 11.85675,-14.3278 z m 245.35018,21.1144 c 14.59365,18.0976 24.62614,33.933 22.80254,35.4408 -6.3851,6.0327 -82.08744,-27.9004 -86.64809,-38.457 -7.29682,-16.5898 4.56065,-34.6874 21.89005,-31.6714 9.12057,1.5083 27.36242,17.3437 41.9555,34.6876 z m 754.29144,-1.5084 c 14.593,18.8515 17.3292,29.4087 10.945,34.6869 -22.8018,18.8521 -57.4612,-21.1136 -43.78,-50.5224 7.2969,-15.8354 10.9451,-14.327 32.835,15.8355 z m 668.5553,-9.0488 c 0,8.2949 3.6488,11.311 10.945,9.0488 6.385,-1.5083 19.1537,1.5084 29.1868,6.7866 15.5056,9.8027 15.5056,11.3111 0.9125,23.376 -12.7693,11.311 -20.0655,12.0654 -38.3074,4.5243 -23.7144,-9.0487 -39.2193,-39.2114 -28.2743,-54.2929 9.1206,-12.0649 27.3624,-4.5243 25.5381,10.5572 z m -450.5677,13.5732 c 4.56,9.8028 5.4718,20.3599 2.7363,24.1304 -5.4732,8.2944 -29.1869,-16.5899 -29.1869,-30.917 0,-15.8354 18.2419,-11.311 26.4506,6.7866 z m -1068.95952,21.8681 c 11.8569,9.0489 16.41754,38.4575 6.38439,45.998 -2.73619,3.0161 -25.53811,-6.0327 -50.1642,-18.0976 -40.1319,-21.1137 -54.72498,-40.7196 -39.22003,-53.539 6.3851,-5.2784 63.84612,12.8194 82.99984,25.6386 z m 1220.36482,-21.1136 c 11.8569,7.5405 13.6812,12.0649 5.4725,15.8348 -15.5057,8.295 -37.3956,0 -37.3956,-14.3271 0,-14.3271 10.0332,-14.3271 31.9231,-1.5083 z m 248.0863,15.8348 c -7.2969,14.3277 -33.7475,15.8355 -33.7475,2.2622 0,-5.2782 4.5607,-13.5732 10.945,-18.8515 13.6813,-11.311 30.0986,0.7545 22.8025,16.5893 z m 149.5809,-0.7539 c -0.9126,9.0489 -13.6812,6.7866 -17.3293,-3.016 -2.7363,-4.5244 0.9125,-7.5411 7.2969,-6.0328 5.4725,2.2623 10.0324,6.0328 10.0324,9.0488 z m -105.8011,28.6548 c 8.2089,21.1137 -7.2968,33.9331 -22.8024,18.8516 -11.8568,-12.8194 -6.3843,-34.687 8.2088,-34.687 4.5606,0 11.8575,6.7866 14.5936,15.8354 z m -1427.40734,5.2783 c 23.71437,9.8027 32.83494,18.0976 34.65944,34.6869 4.5599,30.917 -6.3851,34.6875 -50.16496,18.0977 -32.83493,-12.0649 -39.21931,-17.3432 -39.21931,-35.4408 0,-33.9332 7.29683,-36.1953 54.72483,-17.3438 z m 1514.05474,12.8194 c -6.3844,6.0321 -14.5931,11.311 -19.1538,11.311 -11.8567,0 -10.0324,-18.0976 2.7362,-28.6548 16.4176,-13.5732 31.9232,2.2622 16.4176,17.3438 z m -1397.3081,28.6542 c 41.0437,34.6874 45.6036,43.7363 25.5381,57.3096 -10.0331,6.7865 -20.0656,6.7865 -45.6042,-2.2623 -31.9225,-10.5571 -32.835,-12.8194 -32.835,-49.0146 0,-21.1138 3.6488,-38.4575 7.2969,-38.4575 3.648,0 24.6262,14.3271 45.6042,32.4248 z m 1357.1769,-6.0322 c 5.4725,10.5565 -10.033,33.933 -22.8025,33.933 -2.7362,0 -11.8568,-3.0166 -19.1536,-7.541 -10.945,-5.2782 -10.945,-9.0488 3.6488,-21.8676 20.9773,-18.8521 31.9223,-19.6059 38.3073,-4.5244 z m -818.1368,43.7358 c 22.8018,13.5732 63.8454,33.1791 90.296,42.9819 25.5381,9.8032 47.428,20.3597 47.428,23.3764 0,8.2943 -51.9887,15.8354 -72.0541,10.5566 -10.0332,-2.2623 -20.0663,-0.7545 -23.7144,3.7706 -2.7363,3.7699 -17.3294,7.5404 -31.923,7.5404 -13.6813,0 -27.3625,5.2788 -31.0107,11.311 -6.3849,14.3277 -23.7143,15.0816 -23.7143,0.7545 0,-5.2783 -16.4174,-24.1298 -35.5711,-40.7197 l -36.483,-30.9164 29.1867,-26.3926 c 16.4175,-15.0815 32.8349,-27.1464 37.395,-27.1464 3.6488,0 26.4506,11.311 50.1649,24.8842 z m -460.6016,19.606 c 9.1213,8.2948 30.0988,20.3597 47.428,27.1463 17.33,6.7867 31.0114,15.0815 31.0114,18.8516 0,4.5243 -15.5057,0.7544 -33.7468,-7.5405 -19.1538,-8.2949 -39.2201,-15.0815 -45.6043,-15.0815 -10.0332,0 -30.0988,-22.6222 -30.0988,-33.1793 0,-9.0487 16.4174,-3.7699 31.0105,9.8034 z m 1075.3439,27.9002 c 26.4505,11.311 65.6698,30.1626 86.6478,42.228 38.3075,21.8677 40.1319,24.1304 35.5713,54.2929 -8.2087,52.7846 -17.3293,80.6855 -24.6262,78.4233 -11.8568,-3.7705 -155.0541,-174.9442 -155.0541,-185.5013 0,-12.8188 2.7363,-12.0649 57.4612,10.5571 z m -714.1597,6.7867 c 13.6812,13.5732 5.4726,33.933 -12.7686,33.933 -16.4175,0 -36.4837,-27.1464 -28.275,-37.7035 8.2087,-11.3106 28.275,-9.0483 41.0436,3.7705 z m 355.7118,34.6874 c 22.8024,3.7701 60.1973,8.2944 82.9998,11.3111 36.483,4.5239 44.6917,8.2944 57.4612,30.1625 7.2961,14.3271 18.2411,25.6381 22.8017,25.6381 4.56,0 7.2969,9.0489 6.3844,20.3599 -1.8252,12.0655 -3.6482,27.1464 -4.5601,35.4414 -0.9131,15.8354 7.2963,17.3437 -124.9553,-20.3599 -86.6479,-24.8843 -195.1851,-74.6528 -195.1851,-88.9798 0,-3.7705 9.1206,-6.7866 20.9775,-6.7866 10.9448,0 30.0986,-5.2789 42.8679,-10.5571 12.7688,-6.0328 29.1861,-9.0489 36.4831,-6.7867 7.2968,2.2623 31.9231,6.7867 54.7249,10.5571 z m 280.9212,-3.7704 c 20.0655,3.7704 39.2192,16.5892 66.5816,46.7518 37.3956,42.228 93.9449,122.159 85.7362,122.159 -2.7362,0 -23.7144,-8.2944 -47.4287,-18.8515 -83.911,-35.4414 -178.7678,-71.6361 -189.7126,-71.6361 -10.0332,0 -55.6367,-58.8178 -47.428,-61.0795 15.5049,-4.525 86.6473,-20.3599 93.9441,-21.1142 5.4725,0 22.8018,1.5088 38.3074,3.7705 z m -559.1056,55.8012 c 29.1861,32.4247 42.8673,75.4066 24.6262,75.4066 -8.2087,0 -102.1536,-95.7665 -102.1536,-104.0615 0,-3.7704 4.5607,-9.8026 10.9451,-15.0815 13.6812,-11.311 24.6261,-3.77 66.5823,43.7364 z m 132.2516,-6.7866 c 36.4829,23.3759 44.6918,33.1785 36.4829,39.9652 -8.2087,6.0327 -19.1537,0 -45.6035,-25.6382 -50.1649,-47.5063 -56.5493,-31.6709 -8.2087,19.606 70.2298,73.8983 65.6699,65.6033 43.7792,98.0287 -39.2193,59.5711 -57.4611,63.3417 -72.9661,15.8354 -5.4725,-17.3438 -14.5931,-36.1953 -20.0656,-42.228 -5.4731,-5.2783 -11.8574,-21.8676 -12.7693,-36.1953 -0.9126,-14.327 -10.0332,-39.2113 -20.0656,-55.0468 -33.7474,-54.2929 24.6262,-63.3416 99.4167,-14.327 z m 109.4498,59.5711 c 10.9449,16.5893 2.7362,67.8662 -10.0332,67.8662 -4.5599,0 -8.2087,-3.0162 -8.2087,-6.7866 0,-3.7705 -10.945,-17.3438 -23.7143,-30.1626 -12.7688,-12.8193 -20.9775,-28.6547 -18.2412,-34.6876 7.2969,-16.5892 48.3405,-14.327 60.1974,3.7706 z"
   id="path72" /></svg>