<?xml version="1.0" encoding="utf-8"?>
<!-- Generator: Adobe Illustrator 17.0.0, SVG Export Plug-In . SVG Version: 6.00 Build 0)  -->
<!DOCTYPE svg PUBLIC "-//W3C//DTD SVG 1.1//EN" "http://www.w3.org/Graphics/SVG/1.1/DTD/svg11.dtd">
<svg version="1.1" id="Layer_1" xmlns="http://www.w3.org/2000/svg" xmlns:xlink="http://www.w3.org/1999/xlink" x="0px" y="0px"
	 width="3039px" height="3039px" viewBox="0 0 3039 3039" enable-background="new 0 0 3039 3039" xml:space="preserve">
<rect x="0" y="0" fill="#FFFFFF" width="3039" height="3039"/>
<g id="FcELMB_2_">
	<g>
		<path d="M2710.611,712.698c-24.019-2.168-48.017-4.632-72.068-6.37c-10.896-0.787-21.895-0.134-37.322-0.134
			c-0.697-0.328-5.635-2.647-10.828-5.087c-4.357,2.199-8.632,4.356-16.177,8.164c-21.258-5.721-45.376-11.242-68.783-18.926
			c-11.481-3.769-21.686-11.48-32.391-17.544c-8.385-4.75-16.336-10.428-25.101-14.285c-4.65-2.046-11.083-2.661-15.918-1.233
			c-28.472,8.409-56.801,17.337-84.968,26.722c-7.763,2.587-14.842,7.266-22.174,11.103c-15.866,8.304-31.692,16.685-50.44,26.566
			c-0.752,1.757-2.883,6.732-5.953,13.904c-35.062,10.72-71.575,21.884-108.102,33.052c1.28,3.513,2.415,6.628,4.309,11.826
			c-7.483,2.865-14.255,7.316-21.287,7.772c-15.713,1.019-31.573-0.496-47.338,0.049c-13.762,0.475-27.477,2.337-41.21,3.621
			c-45.603,4.264-90.908-0.196-136.354-3.498c-21.1-1.533-41.693-8.389-63.776-3.664c-11.347,2.428-24.468-2.552-36.63-4.973
			c-36.114-7.192-73.236-9.497-107.913-23.787c-12.605-5.194-26.485-7.297-38.186-10.388
			c-50.23,17.708-98.669,34.784-147.303,51.929c11.725,19.872,30.68,28.469,49.552,36.264c8.356,3.451,14.742,10.084,26.064,10.051
			c12.674-0.037,21.886-5.503,31.223-9.855c11.482,2.143,18.919,7.48,23.37,19.395c-2.04,4.861-4.569,10.889-7.599,18.109
			c-7.151-6.432-13.118-11.799-19.031-17.118c-21.412,11.796-42.121,22.666-62.159,34.657c-4.528,2.71-6.72,9.325-11.416,16.248
			c13.42,8.517,24.502,16.085,36.099,22.758c11.551,6.647,23.618,12.395,39.484,20.626c-5.564,3.569-9.929,6.369-19.193,12.311
			c10.417,3.937,18.525,7.001,26.632,10.065c-1.951,2.138-3.903,4.275-5.854,6.413c-2.223,11.097-10.99,13.373-18.642,8.864
			c-23.921-14.096-41.903-6.36-58.103,13.78c-11.179-4.495-21.903-3.92-33.811-1.052c-15.914,3.833-32.839,3.655-49.359,4.754
			c-33.951,2.259-66.705,7.56-97.215,24.812c-13.297,7.519-26.998,13.014-35.077,26.89c-1.312,2.254-3.759,4.648-6.155,5.343
			c-18.487,5.36-25.48,21.59-34.633,35.83c-2.992,4.655-5.14,10.688-9.387,13.559c-20.788,14.053-30.473,37.094-46.253,55.104
			c-9.084,10.368-19.549,19.55-29.626,29.018c-20.579,19.335-32.746,44.343-45.307,68.782
			c-16.855,32.792-32.328,102.928-21.734,141.73c6.835,8.724,12.461,18.864,20.72,25.922c31.732,27.114,20.627,72.394-11.372,92.846
			c-5.242,3.351-11.182,5.768-15.965,9.645c-9.412,7.628-20.616,9.839-31.256,7.157c-14.224-3.586-27.256-0.918-40.701,2.183
			c-6.581,1.518-13.276,2.541-20.887,3.969c6.994,13.564,15.189-3.184,19.535,1.314c11.459,4.19,15.094,11.325,13.508,20.424
			c-2.352,13.488-5.747,26.794-8.939,41.267c1.564,8.423,7.805,12.871,16.911,14.26c35.247,5.376,70.539,10.481,105.711,16.308
			c21.007,3.48,41.992,7.425,62.667,12.473c13.647,3.332,19.107,15.182,21.808,27.801c1.278,5.973,0.719,12.339,1.042,19.651
			c-20.729,17.977-39.46,38.261-65.286,49.97c-12.976,5.883-25.116,13.594-37.727,20.306c-3.006,1.6-6.455,3.728-9.572,3.536
			c-20.515-1.261-38.699,9.345-58.427,11.107c-15.082,1.347-30.395,0.657-45.578,0.119c-10.139-0.359-20.23-2.042-30.075-3.104
			c-11.933,37.861-17.546,74.82-16.238,113.132c0.396,11.599-5.751,23.422-9.242,36.408c-9.291,0.47-16.763,1.697-24.043,0.98
			c-7.453-0.734-14.719-3.372-26.48-6.261c-2.184-2.809-6.853-8.815-12.341-15.874c-4.696,6.402-8.265,11.268-11.15,15.202
			c0.295,2.936,0.115,4.443,0.62,5.669c6.454,15.666,7.304,31.514,4.173,48.261c-3.52,18.825-4.912,38.039-7.747,57.006
			c-0.97,6.486-3.505,12.737-5.288,18.966c-7.801,1.53-13.777,2.701-18.921,3.71c-1.668,1.783-3.124,2.638-3.477,3.822
			c-7.661,25.676-24.855,45.717-39.519,67.262c-4.632,6.805-8.884,13.868-13.347,20.79c-2.619,4.062-4.985,8.344-8.026,12.069
			c-12.938,15.854-25.772,31.813-39.294,47.161c-6.316,7.169-13.824,13.393-21.309,19.401c-9.752,7.828-19.834,14.918-23.65,27.999
			c-1.263,4.331-4.964,8.545-8.619,11.484c-18.332,14.738-20.196,34.982-19.89,56.205c0.368,25.555-1.328,50.712-12.595,74.431
			c-2.163,4.554-2.449,10.801-1.513,15.883c3.487,18.938,7.661,37.758,11.977,56.531c1.379,5.998,3.219,12.145,6.192,17.474
			c10.382,18.606,23.823,35.907,31.567,55.497c14.668,37.102,49.205,53.257,76.512,76.663
			c12.627,10.823,30.853,15.056,46.411,22.545c6.834,3.29,13.251,7.433,20.019,10.871c18.944,9.622,38.327,18.442,56.87,28.775
			c19.849,11.061,40.013,20.525,61.344,28.896c33.086,12.985,65.667,28.854,93.495,52.316c8.412,7.092,17.804,13.023,27.844,20.278
			c2.11,5.622,4.665,12.427,7.235,19.272c8.599-1.25,15.688-2.282,23.526-3.422c-5.96,20.727-16.432,29.385-35.609,31.139
			c-6.116-9.186-11.098-19.089-18.33-26.911c-8.793-9.509-18.909-16.162-33.5-18.181c-14.281-1.976-27.675-10.91-41.253-17.23
			c-9.78-4.552-19.223-9.827-30.952-15.881c-0.211,11.678,7.157,13.785,12.269,17.295c17.676,12.135,35.68,23.799,53.196,36.155
			c5.549,3.914,11.061,8.734,14.665,14.37c7.057,11.037,15.729,18.579,29.509,18.181c-3.46,15.577-13.768,21.042-27.292,23.901
			c-15.778-34.898-47.508-52.296-77.052-71.906c-15.989-10.613-33.446-19.156-48.724-30.649
			c-10.905-8.203-22.604-12.843-35.188-16.722c-22.294-6.871-45.167-12.513-66.495-21.695c-22.024-9.48-42.721-22.176-63.571-34.204
			c-14.295-8.247-27.768-17.908-41.773-26.673c-24.63-15.416-47.534-33.186-68.518-53.121c-7.144-6.787-10.966-17.196-15.837-26.204
			c-2.935-5.427-4.773-11.435-7.437-17.023c-12.525-26.284-20.079-53.909-25.637-82.521c-7.716-39.722-6.353-79.708-8.382-119.672
			c-1.034-20.368,2.484-37.409,11.854-54.978c11.628-21.801,20.561-45.026,31.815-67.044c4.56-8.922,12.461-16.08,18.311-24.414
			c5.892-8.393,11.955-16.838,16.473-25.987c8.843-17.904,22.911-30.893,37.653-43.548c5.717-4.908,11.192-10.243,16.018-16.018
			c13.264-15.875,26.152-32.065,39.123-48.184c2.588-3.216,5.469-6.388,7.224-10.054c16.614-34.704,33.239-69.406,49.398-104.324
			c11.77-25.433-0.014-48.631-8.803-71.637c-1.403-3.673-8.729-6.106-13.722-7.122c-5.961-1.214-12.359-0.286-19.592-0.286
			c-1.669-2.296-5.235-4.944-5.345-7.73c-0.601-15.144-0.745-30.335-0.244-45.483c0.308-9.307,2.052-18.567,1.01-28.175
			c5.844-14.668,12.089-29.197,17.272-44.095c1.45-4.168,0.143-9.484-0.579-14.169c-0.825-5.353-2.407-10.589-3.953-17.114
			c-10.344,0-21.21,0-33.643,0c-2.819,2.969-6.479,6.825-9.946,10.477c-2.812-0.21-5.215,0.286-6.818-0.624
			c-7.192-4.083-13.977-8.896-21.236-12.844c-24.28-13.205-48.887-25.817-73.021-39.279c-33.06-18.44-68.465-32.727-98.606-56.416
			c-7.499-5.894-16.666-9.875-25.458-13.875c-21.725-9.884-37.408-25.479-47.808-46.956c-5.719-11.811-12.21-23.321-19.217-34.421
			c-12.961-20.533-13.68-43.259-12.008-66.141c0.384-5.25,5.047-12.367,9.714-14.735c17.714-8.988,36.03-14.5,56.794-15.923
			c20.648-1.415,38.906,6.87,58.725,7.066c7.701,0.076,15.177,5.999,23.069,7.198c14.868,2.26,29.986,2.818,44.95,4.524
			c5.393,0.615,10.9,1.863,15.915,3.905c31.306,12.745,62.593,25.515,88.301,48.593c5.062,4.544,11.694,7.302,17.412,11.165
			c4.393,2.968,8.486,6.378,14.139,10.676c-7.438,7.763-21.131,10.911-13.289,26.337c8.973-4.309,18.602-7.824,27.019-13.228
			c13.598-8.73,15.283-25.109,4.967-37.428c-12.612-15.061-27.029-28.375-45.489-35.219c-15.635-5.796-22.784-17.03-26.858-31.62
			c-2.774-9.932-5.136-19.979-8.212-32.052c2.338-7.695,5.327-17.529,8.221-27.054c23.06-19.237,47.441-31.068,78.494-15.176
			c2.106-7.671,4.2-13.376,5.199-19.267c4.359-25.696,15.791-50.04,13.968-76.953c-1.208-17.832,0.073-35.914-2.201-53.57
			c-2.338-18.154-8.698-35.164-27.304-40.378c-11.077,1.377-20.29,2.478-29.489,3.682c-5.495,0.719-11.129,1.032-16.423,2.516
			c-14.336,4.018-28.753,12.598-42.709,11.806c-15-0.851-28.399,0.228-42.219,5.087c-24.637,8.664-49.526,16.609-74.138,25.339
			c-7.001,2.483-13.269,6.965-20.14,9.909c-4.087,1.751-8.693,2.289-13.166,3.396c-9.213-17.935,11.376-21.018,11.525-33.549
			c21.407,0.505,37.344-8.355,52.6-19.725c7.17-5.344,12.143-10.114,11.215-20.039c-0.33-3.526,4.324-7.518,6.718-11.321
			c-5.511-11.86-21.673-23.712-50.581-36.718c-9.632,11.274-23.212,14.043-37.852,16.443c-21.721,3.56-42.599,10.91-61.456,22.938
			c-3.483,2.221-6.947,5.038-10.81,5.977c-7.357,1.789-11.996-1.257-12.141-11.551c14.392-10.121,29.579-20.801,45.151-31.751
			c1-5.258,2.021-10.631,2.996-15.759c22.349-20.327,22.349-20.327,15.874-35.458c-11.946,3.606-24.098,7.277-36.253,10.939
			c-0.66,0.199-1.372,0.537-2.012,0.452c-25.666-3.406-48.116,9.817-72.292,14.139c-7.346,1.313-14.343,4.835-21.357,7.694
			c-11.741,4.786-11.693,4.903-27.945,1.543c-3.905-7.825,1.065-11.354,7.18-13.963c13.953-5.954,27.981-11.734,42.018-17.489
			c5.711-2.341,11.526-4.431,15.133-9.216c6.599-7.413,12.857-15.168,19.88-22.155c9.167-9.121,16.465-18.736,14.618-32.394
			c-18.239-23.56-18.239-23.56-33.145-27.172c-9.112,9.424-21.026,12.694-34.951,11.937c-14.898-0.809-27.712,6.714-40.536,13.388
			c-9.806,5.102-19.632,10.238-29.798,14.533c-3.085,1.303-7.332-0.146-12.664-0.416c5.333-14.504,18.098-18.56,26.722-26.684
			c8.839-8.326,17.991-16.32,23.559-21.347c5.592-14.417,9.692-24.989,14.731-37.981c-8.663-9.912-19.447-22.184-30.153-34.523
			c-7.265-8.373-14.29-16.956-21.647-25.246c-22.75-25.636-36.419-55.427-38.017-89.646c-0.664-14.218,1.023-29.207,5.046-42.841
			c7.735-26.212,19.059-32.33,49.733-28.369c2.041-3.041,5.446-8.115,8.1-12.07c9.104,0,16.717,0.523,24.233-0.112
			c14.49-1.223,24.128,3.947,28.027,18.588c0.849,3.189,3.171,5.986,4.082,7.636c17.652,0,33.85,0,46.462,0
			c26.723,13.648,30.363,34.562,27.782,57.383c2.12,1.02,3.479,2.3,4.462,2.057c29.931-7.386,50.573,7.397,68.19,28.789
			c6.955,8.445,12.995,17.642,19.933,27.157c37.103-21.447,61.236-3.722,80.545,28.226c15.299-9.097,29.524-8.041,44.904-3.841
			c17.353,4.739,33.863-4.199,42.866-19.701c0.687-1.182,0.961-3.223,1.893-3.553c20.083-7.126,22.339-28.434,33.878-42.313
			c2.645-3.182,5.529-6.165,8.633-9.604c-3.898-15.705,8.855-26.379,12.022-37.009c-2.505-22.885-4.289-43.009-7.089-62.991
			c-1.231-8.783-3.574-17.689-7.09-25.814c-6.964-16.091-11.929-32.121-5.805-47.79c-11.746-6.089-21.59-12.201-32.2-16.359
			c-7.836-3.071-16.669-3.596-27.268-5.693c-4.268-9.47-10.978-20.781-14.43-33.012c-3.528-12.503-3.86-25.907-5.785-40.372
			c-6.771,2.107-13.028,4.054-19.349,6.02c-13.993-3.299-27.885-4.933-36.677-20.005c-3.818-6.544-14.875-9.683-23.261-12.585
			c-22.168-7.673-28.5-25.586-27.696-45.611c0.707-17.609,5.863-35.039,8.77-50.993c9.976-8.053,18.026-14.552,24.971-20.158
			c-13.686-12.279-27.568-24.257-40.913-36.806c-28.486-26.785-26.767-48.334-7.818-74.456
			c24.655-14.782,53.331-19.528,82.908-20.876c4.844-0.221,10.164,0.781,14.447-0.885c15.861-6.17,31.256,0.819,46.824,1.066
			c19.836,0.315,39.638,5.126,59.433,4.982c14.688-0.107,28.186-7.693,37.465-19.812c15.345-20.044,36.135-31.165,59.481-38.679
			c3.912-1.259,7.579-3.282,11.664-5.088c12.646,5.076,25.693,9.503,38.022,15.423c30.858,14.817,63.134,13.261,95.003,6.963
			c16.466-3.254,31.988-11.817,47.582-18.775c11.062-4.936,20.378-15.265,34.335-9.588c12.098-10.026,26.331-5.621,39.762-5.435
			c7.398,0.102,15.309,1.097,22.053,3.924c28.813,12.076,55.141,28.323,79.929,47.518c14.589,11.297,31.165,20.067,47.058,29.622
			c8.268,4.97,16.758,9.716,25.576,13.589c10.63,4.669,21.623,8.573,32.625,12.319c14.302,4.87,28.534,10.275,43.213,13.631
			c25.851,5.912,50.235,17.475,77.518,18.318c10.613,0.328,21.061,6.011,30.977,9.067c9.368-1.365,18.183-2.649,27.498-4.006
			c4,4.338,7.605,8.248,10.979,11.907c23.948-0.249,23.948-0.249,31.321,7.686c-5.953,10.307-13.907,16.857-26.784,13.896
			c-14.368-3.304-28.243-4.137-42.778,0.883c-7.888,2.725-17.253,1.173-30.577,1.751c23.631,22.078,48.215,32.556,73.423,45.716
			c1.773-7.982,2.926-13.168,4.051-18.234c14.827-10.451,22.903-12.143,29.54-5.803c8.318,7.945,4.286,16.276,0.359,24.305
			c3.856,5.671,7.655,11.258,11.753,17.285c-5.76,7.741-10.94,14.7-17.967,24.143c13.385,3.514,24.353,6.635,35.44,9.254
			c21.306,5.034,42.809,9.285,63.982,14.811c16.924,4.417,33.519,6.768,51.122,3.911c11.449-1.858,23.49-1.504,35.121-0.482
			c19.251,1.692,38.325,5.636,57.588,6.884c13.934,0.903,28.067,1.497,41.813-4.612c11.856-5.269,24.444-8.864,38.184-6.839
			c13.765,2.029,25.199-5.161,36.895-11.491c30.312-16.405,60.891-32.327,91.584-48.009c5.342-2.729,11.685-3.801,17.703-4.83
			c7.991-1.366,17.178,0.17,23.985-3.252c19.054-9.578,40.098-10.037,59.981-15.516c23.294-6.419,46.538-13.32,70.196-18.051
			c40.364-8.072,81.049-14.53,121.567-21.849c12.795-2.311,25.413-5.69,38.259-7.582c4.894-0.721,10.201,1.361,15.368,2.174
			c1.219,7.207,2.117,12.519,3.089,18.271c2.431,0.13,4.584,0.88,6.151,0.226c11.531-4.807,22.824-10.674,37.339-4.787
			c4.173,6.088,9.11,13.291,15.002,21.887c-5.119,2.076-8.64,3.689-12.285,4.939c-5.236,1.796-10.957,2.571-15.789,5.09
			c-43.5,22.683-91.807,23.378-138.652,30.878c-50.42,8.072-100.838,16.211-151.092,25.239
			c-12.589,2.262-24.545,8.043-37.648,12.499c3.928,6.664,9.836,4.842,14.726,4.157c38.905-5.454,77.684-11.902,116.674-16.628
			c36.369-4.408,72.962-9.838,109.431-9.662c30.789,0.149,62,5.7,92.153,12.642c20.903,4.812,41.577,10.242,62.921,10.935
			c28.207,0.915,48.048,14.933,64.854,36.972c-3.549,8.582-7.12,17.217-11.237,27.172c9.574,0,17.406,0,27.424,0
			c-5.922,15.799-18.399,21.557-28.501,30.047c-10.974,9.223-19.18,21.772-30.274,30.809c-10.505,8.557-23.187,14.441-36.749,22.607
			c4.608,2.519,6.798,4.645,9.166,4.867c27.355,2.565,51.579,15.08,77.017,23.749c7.654,2.609,15.784,3.792,23.535,6.156
			c5.856,1.786,13.06,2.901,16.871,6.947c12.02,12.762,25.88,21.679,42.863,24.678c0.222,12.007-9.594,9.107-16.531,13.027
			C2673.853,691.971,2710.611,707.149,2710.611,712.698z M858.962,2061.229c-11.557,14.939-23.904,29.342-34.487,44.942
			c-15.898,23.433-33.32,45.472-53.422,65.383c-10.272,10.174-20.809,20.079-31.119,30.215
			c-7.914,7.781-12.422,17.074-13.147,31.082c19.759-21.033,38.961-38.925,54.903-59.359c10.253-13.141,18.543-27.037,34.922-30.876
			c7.146-19.908,16.211-36.136,31.135-49.587c8.391-7.563,13.664-19.209,10.878-32.071c5.999-5.519,11.998-11.037,16.338-15.03
			c4.687-10.532,7.563-19.841,12.615-27.763c10.876-17.057,14.319-35.216,12.347-53.292c-13.171,28.742-26.855,58.451-40.308,88.264
			C858.569,2055.46,859.142,2058.515,858.962,2061.229z M1108.282,1341.817c7.641-17.698,15.327-32.857,20.787-48.779
			c7.887-22.998,20.466-43.772,29.573-65.999c8.048-19.645,22.791-33.209,36.76-46.667c14.947-14.401,29.369-28.749,41.463-45.598
			c15.258-21.258,29.806-43.193,46.855-62.94c11.911-13.796,21.606-31.06,41.081-36.949c2.51-0.759,4.947-2.724,6.742-4.734
			c22.237-24.894,53.274-33.47,82.811-44.801c3.165-1.214,6.593-2.004,9.966-2.37c14.354-1.557,28.755-2.701,43.1-4.329
			c22.532-2.558,45.079-5.065,67.517-8.3c6.392-0.922,12.432-4.289,19.301-6.777c-32.179-40.628-39.387-62.9-30.161-90.752
			c7.954-6.645,21.946-5.876,25.47-21.365c-13.284-7.415-26.972-14.9-40.503-22.66c-10.063-5.771-21.606-10.243-29.472-18.257
			c-11.473-11.689-21.059-25.51-29.947-39.386c-10.841-16.925-13.424-34.682,0.412-51.993c2.548-3.188,3.991-7.267,5.899-10.957
			c4.865-9.407,11.485-16.48,21.301-21.591c12.616-6.569,24.244-15.087,36.039-23.142c2.709-1.85,5.339-4.919,6.343-7.973
			c4.464-13.572,15.717-20.48,26.285-28.191c4.204-3.068,8.217-6.398,14.182-11.068c-13.429-6.58-24.604-12.056-36.563-17.916
			c-2.165,1.451-5.482,3.674-9.817,6.579c-17.185-15.384-31.057-36.45-58.338-34.906c-11.502,17.163-25.128,30.659-50.188,24.359
			c-4.632-24.239,2.201-44.08,15.454-62.071c12.455-4.584,24.771-8.048,28.466-22.42c6.71-26.1,28.664-35.178,50.35-43.994
			c17.694-7.193,36.064-12.744,53.655-20.159c5.069-2.137,8.479-8.21,12.882-12.715c-11.853-13.013-26.314-14.795-41.476-16.433
			c-4.092-7.218-8.13-14.34-13.036-22.994c-12.613-5.111-26.286-10.684-42.318-5.593c-5.584-8.685-11.012-17.128-17.703-27.534
			c9.947-4.845,18.254-8.89,26.741-13.024c-0.119-1.94,0.472-5.298-0.479-5.814c-10.215-5.542-20.674-10.636-31.009-15.823
			c-6.455,1.612-12.404,3.097-15.934,3.979c-10.418-2.415-18.439-4.275-26.934-6.245c-13.629-12.727-30.322-19.832-49.069-23.115
			c-5.084-0.89-9.896-4.281-14.44-7.147c-21.563-13.597-43.603-26.126-64.306-31.522c-38.366-28.601-70.06-60.53-116.565-63.815
			c-13.476,8.354-25.629,17.433-39.069,23.787c-13.538,6.4-28.333,10.164-42.632,14.919c-3.24,1.077-6.713,2.119-10.066,2.082
			c-24.415-0.27-47.438,6.385-69.769,14.339c-6.015-3.66-11.301-6.876-16.756-10.196c-4.833,1.345-9.364,2.606-12.078,3.361
			c-12.048-6.088-22.003-12.898-33.009-16.189c-11.436-3.42-23.89-3.437-36.88-5.066c-4.703,5.738-10.242,10.349-12.969,16.258
			c-6.17,13.369-15.19,24.161-26.716,34.43c-9.914-4.211-19.262-2.052-28.681,4.107c-4.822,3.153-11.42,4.516-17.328,4.887
			c-11.684,0.734-23.448,0.217-35.29,0.217c-11.552-15.544-28.566-14.28-44.035-15.226c-17.526-1.072-35.281,0.068-52.831,1.518
			c-9.49,0.784-18.849,3.911-28.109,6.536c-11.367,3.223-23.214,6.205-26.114,20.558c6.82,21.285,6.241,21.955,25.364,38.481
			c16.508,14.266,34.77,25.457,56.686,31.416c18.066,4.912,35.537,10.293,54.508,9.629c5.302-0.186,11.129,1.453,15.981,3.783
			c24.269,11.658,48.659,23.151,72.297,36.007c22.366,12.164,43.427,26.837,68.021,32.951c18.813-8.407,28.691-22.92,21.592-36.702
			c-8.625-16.744-14.749-36.1-33.431-46.129c-3.381-1.815-5.158-6.618-8.734-11.481c17.455-5.831,29.61,0.511,39.958,9.391
			c21.271,18.254,30.611,43.035,36.363,68.43c-16.033,19.424-28.049,40.641-54.042,43.619c-16.745-0.197-29.747-8.987-43.647-16.987
			c-26.252-15.11-53.222-29.188-80.793-41.714c-18.458-8.386-38.468-13.358-58.371-20.055c-5.097,3.956-10.441,6.474-13.358,10.677
			c-8.42,12.131-19.034,15.063-35.982,9.175c-3.494-4.276-9.03-11.051-15.894-19.451c-7.954,9.613-14.333,17.323-23.612,28.537
			c4.899,4.334,8.275,7.322,9.903,8.762c36.977-7.602,67.124-1.743,95.659,15.773c17.602,10.804,35.699,21.477,54.854,28.913
			c27.103,10.522,47.914,30.015,71.632,45.312c2.707,1.746,4.081,5.49,6.226,8.187c20.614,25.923,39.179,53.915,62.512,77.106
			c21.252,21.122,35.508,46.28,48.001,71.76c11.038,22.512,22.346,48.415,7.358,75.124c-1.263,2.25-0.892,5.406-1.322,8.135
			c-4.733,30.015-5.966,60.387-12.541,90.327c-6.976,31.767-21.768,58.367-44.847,79.778c-16.61,15.409-36.753,26.945-54.738,40.955
			c-18.528,14.433-42.57,18.787-60.553,34.06c-1.41,1.197-3.9,1.36-5.931,1.551c-14.436,1.358-28.862,3.216-43.333,3.721
			c-18.544,0.648-37.15-0.4-55.69,0.308c-38.595,1.474-73.116-12.176-105.782-29.992c-17.02-9.283-34.04-17.96-51.715-25.932
			c-24.446-11.025-50.287-21.662-70.655-38.398c-31.167-25.611-66.727-47.283-88.731-82.95c-1.069-1.733-2.552-3.44-4.249-4.52
			c-21.147-13.472-29.253-33.877-31.041-57.738c-0.773-10.317-2.679-20.221-11.796-29.467c-2.987,4.032-6.048,6.683-7.236,10.004
			c-9.179,25.653-1.214,49.494,11.745,70.753c16.137,26.473,35.276,51.135,53.522,76.286c3.121,4.301,8.11,7.339,12.497,10.611
			c8.753,6.528,17.977,12.453,26.469,19.295c9.674,7.796,18.729,16.356,28.108,24.521c23.936,20.836,47.972,41.558,71.817,62.498
			c7.774,6.827,16.621,13.133,22.325,21.488c21.074,30.863,52.572,49.123,81.84,70.145c16.488,11.843,35.879,17.185,54.285,24.928
			c14.366,6.044,27.424,7.853,42.031,4.234c4.628-1.147,9.662-2.004,14.321-1.439c17.549,2.128,34.325,0.426,50.268-8.933
			c15.163,7.205,30.409,12.801,47.579,8.733c9.301-2.204,19.025-2.559,28.497-4.121c6.808-1.122,13.723-2.243,20.228-4.437
			c22.761-7.673,45.235-16.211,68.072-23.64c16.932-5.509,34.823-8.391,51.283-14.96c27.98-11.166,56.454-21.187,79.794-42.312
			c9.448-8.551,24.545-14.491,37.285-14.897c17.737-0.565,33.96,8.846,47.828,19.419c-0.636,8.701-1.131,15.481-1.758,24.06
			c-12.059,4.667-24.326,9.415-39.049,15.113c-20.593-16.311-44.724-10.164-65.952,2.089c-12.074,6.969-24.489,10.354-36.893,15.173
			c-25.559,9.931-50.738,20.837-75.519,31.112c-6.809,0-13.917-1.425-20.201,0.245c-28.518,7.578-56.804,16.029-85.373,24.223
			c-4.417,10.579-2.646,20.924,2.04,31.4c2.458,5.496,4.777,11.624,4.886,17.509c0.705,38.066,0.241,76.111-7.971,113.564
			c-1.911,8.717-5.914,17.345-5.954,26.028c-0.087,18.97-13.069,34.181-13.882,52.877c-0.15,3.457-5.805,6.674-8.184,9.215
			c8.948,9.823,15.669,21.872,25.911,27.424c18.435,9.993,38.677,17.032,58.742,23.52c16.233,5.249,33.466,7.315,49.98,11.808
			c20.34,5.534,40.823,2.196,60.769,0.129c20.198-2.093,39.849-9.475,60.335-14.692c7.602-5.956,7.538-14.939,7.692-24.12
			c0.173-10.321,1.341-20.622,1.676-30.945c0.375-11.589,1.557-23.354,0.083-34.745
			C1115.613,1365.563,1111.35,1353.723,1108.282,1341.817z M2364.496,626.353c-16.272-7.764-30.536-14.409-44.646-21.369
			c-7.321-3.611-16.046-6.257-21.227-11.976c-16.181-17.863-37.5-14.008-57.496-15.532c-8.756-0.667-17.769,1.907-26.506,1.154
			c-23.076-1.989-46.296-3.722-69.033-7.885c-35.179-6.441-70.393-5.35-105.326-1.28c-23.54,2.743-48.275,2.443-69.784,16.173
			c-5.182,3.308-12.974,3.006-19.625,3.427c-10.184,0.645-20.578-0.566-30.59,0.947c-9.966,1.506-19.572,5.4-32.199,9.082
			c-42.235,30.766-87.11,63.455-132.352,96.411c-7.151-3.549-13.323-6.493-19.382-9.651c-7.193-3.748-12.634-3.312-16.626,6.765
			c13.49,4.268,25.688,8.616,38.155,11.959c19.861,5.327,39.875,10.092,59.872,14.897c22.629,5.437,45.125,11.748,68.029,15.609
			c16.932,2.854,34.466,1.936,51.655,3.524c22.473,2.076,44.864,5.036,67.311,7.417c2.663,0.283,5.45-0.756,8.193-1.049
			c9.6-1.025,19.376-3.632,28.775-2.656c23.437,2.433,43.133-6.612,62.877-16.986c8.528-4.481,17.593-8.044,26.645-11.401
			c16.707-6.194,33.742-11.52,50.356-17.945c28.191-10.902,56.051-22.665,84.262-33.514c20.54-7.899,41.446-14.84,62.14-22.343
			C2339.27,636.038,2350.462,631.66,2364.496,626.353z M714.855,1500.586c-17.914-10.183-35.32-23.098-58.412-18.724
			c-3.045,0.577-6.597-1.386-9.887-2.272c-6.513-1.753-12.924-4.005-19.526-5.281c-14.105-2.725-28.223-5.868-42.488-7.133
			c-13.539-1.201-28.366-5.208-40.362,3.75c-10.278,7.675-18.636,17.922-28.259,27.444c7.557,16.434,12.988,32.209,21.545,46.052
			c19.566,31.65,50.593,52.477,77.048,77.597c4.401,4.179,10.226,7.773,16.021,9.39c15.114,4.217,26.997,13.462,39.207,22.459
			c3.302,2.433,7.075,4.286,10.78,6.102c20.371,9.988,40.71,20.049,61.246,29.688c4.906,2.303,10.436,3.76,15.828,4.463
			c31.875,4.156,62.774,13.182,94.392,18.824c30.823,5.5,60.494,17.279,90.838,25.696c23.101,6.408,45.291,16.961,69.53,18.289
			c37.219,2.04,74.533,4.198,111.753,3.498c15.96-0.3,33.008-5.196,47.397-12.354c23.268-11.575,45.014-26.339,66.824-40.638
			c6.561-4.301,11.202-11.531,17.307-18.042c-7.881-10.084-17.049-15.135-26.888-17.938c-29.885-8.514-59.76-17.078-91.576-14.758
			c-10.865,0.792-21.948-1.677-32.949-2.355c-3.981-0.245-8.016,0.391-12.026,0.625c-0.091,0.924-0.182,1.848-0.273,2.772
			c21.399,4.638,42.797,9.275,66.325,14.374c8.401,7.453,16.794,17.191,12.197,32.26c-23.68,19.634-24.935,19.81-52,20.28
			c-10.961,0.19-21.889,2.085-32.839,3.135c-16.425,1.576-33.059,5.49-49.239,4.111c-29.459-2.51-58.654-8.139-87.944-12.567
			c-4.064-0.615-8.006-2.371-12.066-2.628c-25.749-1.632-50.079-7.852-72.629-20.772c-7.132-4.086-14.892-7.075-21.997-10.394
			c-6.793,1.516-12.792,2.855-18.284,4.081c-18.776-5.199-35.752-13.019-48.668-27.206c-4.318-4.742-8.634-12.014-8.321-17.882
			c0.54-10.14-1.991-18.53-8.938-27.567c14.709-7.569,27.184-15.476,42.699-18.298c12.736-2.316,24.921-7.642,37.37-11.574
			c5.162-1.63,10.279-3.782,15.58-4.523c17.314-2.42,32.888-8.972,47.713-17.995c8.147-4.958,16.804-9.109,25.377-13.327
			c9.098-4.477,19.722-6.94,23.3-18.13c-3.357-4.06-6.294-7.612-11.968-14.474c13.032,4.293,21.451,8.58,30.247,9.591
			c11.587,1.331,23.48,0.361,35.221-0.119c13.733-0.561,27.53-0.978,41.148-2.673c25.442-3.166,51.927-1.285,74.858-16.859
			c14.047-9.541,29.249-17.382,45.864-27.119c-6.749-14.584-12.551-27.121-18.353-39.659c-4.231,7.123-4.185,13.825-5.784,20.108
			c-1.287,5.058-3.315,11.786-7.177,13.999c-14.894,8.535-29.984,19.368-46.254,22.239c-23.901,4.217-48.145,11.927-73.26,6.089
			c-5.112-1.188-10.914,0.818-16.409,0.986c-5.979,0.183-12.298,1.163-17.902-0.332c-22.448-5.986-44.526-13.385-67.023-19.159
			c-30.201-7.751-56.159-22.563-78.91-43.622c-6.373-5.898-10.643-11.918-10.807-21.253c-0.214-12.205-2.12-24.38-3.279-36.365
			c-28.19-0.828-39.178,14.191-29.815,38.345c2.185,5.636,2.961,11.818,4.156,16.793c32.772,27.767,64.396,54.971,93.314,83.522
			c-1.036,3.626-1.229,5.036-1.833,6.241c-0.925,1.846-1.912,3.742-3.254,5.285c-23.349,26.839-51.741,45.54-87.028,52.321
			c-23.545,4.525-47.624,6.698-70.811,12.524c-19.652,4.938-37.492,4.901-56.321-3.144c-9.834-4.202-21.626-5.777-32.398-5.324
			c-12.769,0.537-21.643-3.838-27.828-14.019c-9.999-16.459-19.375-33.296-28.64-49.326c2.212-9.695,4.183-18.331,5.9-25.859
			c10.404-9.693,21.821-11.488,33.9-10.379C651.037,1494.4,682.943,1497.534,714.855,1500.586z M1875.4,535.86
			c-4.649-1.946-7.673-4.412-10.491-4.195c-18.53,1.427-36.991,3.755-55.525,5.115c-9.601,0.705-19.48,1.196-28.925-0.243
			c-28.352-4.32-56.545-9.677-84.815-14.542c-10.114-1.74-20.322-2.963-30.4-4.879c-36.317-6.906-71.341-21.572-109.661-16.399
			c-11.072,1.495-21.733,1.793-31.261,8.804c-3.92,2.884-9.542,3.455-15.549,5.466c-1.09-6.705-1.797-11.056-2.586-15.911
			c-9.792,3.25-17.433,7.164-19.059,18.97c9.679,7.666,19.218,15.423,28.974,22.897c13.142,10.069,26.245,19.689,36.534,33.397
			c6.684,8.904,17.401,17.46,27.864,20.163c12.782,3.302,20.936,9.274,27.201,19.811c0.622,1.047,2.226,1.51,4.655,3.063
			c4.053-0.54,9.237-1.232,15.2-2.027c0-4.203,0-7.196,0-12.354c5.588,3.437,9.406,5.785,13.905,8.552
			c-2.599,9.25-4.953,17.624-7.045,25.071c-16.614,4.966-30.114,0.306-42.548-6.593c-18.504,3.541-24.565,19.988-38.44,30.952
			c5.893,2.091,9.52,4.535,13.091,4.455c21.966-0.493,43.532,0.94,64.867,7.093c26.409,7.616,53.364,12.206,80.12,9.841
			c4.873-6.262,7.972-13.143,13.294-16.586c24.378-15.769,47.439-33.051,68.739-52.829c18.148-16.852,37.219-32.707,55.442-49.481
			C1857.862,555.295,1865.741,546.029,1875.4,535.86z M751.333,1002.323c0.591-2.234,2.5-5.274,1.674-7.03
			c-4.309-9.165-1.152-16.89,5.703-22.014c13.923-10.407,19.413-24.346,20.6-41.627c-7.478-11.909-8.805-28.987-26.663-35.292
			c-4.457,0.519-9.837,1.146-15.505,1.807c-4.98-3.506-9.951-7.006-14.248-10.032c-16.566,3.185-16.72,3.11-21.884,13.63
			c-3.952,8.052-7.053,16.538-11.254,24.448c-5.094,9.591-10.946,18.779-15.942,27.246c-18.415-2.305-21.801-6.138-17.548-18.811
			c2.163-6.447,6.052-12.293,8.713-18.599c2.868-6.797,7.111-13.74,7.39-20.753c0.57-14.357-4.05-26.441-18.965-33.775
			c-12.583-6.187-22.9-1.411-31.932,7.164c-5.472,5.195-10.111,11.295-14.92,17.157c-8.759,10.677-16.737,22.079-26.232,32.044
			c-7.814,8.201-11.874,6.701-20.961-5.592c9.642-15.74,19.549-31.912,28.24-46.1c-4.939-12.668-8.659-22.283-12.434-31.876
			c-7.172-18.227-28.795-29.776-46.94-14.602c-3.648,3.051-7.681,6.857-12.019,7.64c-12.911,2.33-22.796,8.04-31.113,18.504
			c-6.051,7.613-9.803,6.287-21.839-4.568c5.989-7.813,10.58-18.218,18.56-23.291c16.59-10.547,20.439-24.728,18.352-42.164
			c-5.74-14.39-19.598-10.098-29.95-14.116c-13.849-5.375-25.647-0.468-34.459,7.184c-9.355,8.124-18.306,15.272-33.095,17.026
			c12.107,21.173,20.609,41.457,39.822,54.496c5.598,3.799,11.125,8.275,15.26,13.555c16.864,21.532,38.788,37.541,60.873,52.463
			c24.902,16.825,51.528,31.404,79.98,42.135c12.227,4.611,24.941,9.187,35.602,16.464
			C669.359,989.039,708.325,999.918,751.333,1002.323z M2523.148,522.419c-16.654-5.087-30.176-10.816-44.258-13.106
			c-16.917-2.752-34.297-2.865-51.499-3.611c-45.564-1.975-91.13-4.644-136.714-5.076c-22.606-0.214-45.254,3.883-67.883,6.029
			c24.583,11.043,50.252,14.203,75.414,19.759c26.069,5.756,51.165,16.316,76.296,25.808c24.055,9.087,47.609,19.502,71.48,29.374
			c5.158-16.254,18.273-19.322,30.624-23.616C2494.919,551.614,2511.233,542.5,2523.148,522.419z M693.52,2289.568
			c-1.712-0.274-3.423-0.549-5.135-0.823c-10.374,23.023-21.393,45.583-20.969,72.25c0.391,24.545-2.121,48.987-1.611,73.721
			c0.697,33.798,7.35,65.529,21.31,95.382c11.618,24.846,26.823,48.067,41.23,71.523c3.858,6.282,9.772,12.273,16.165,15.868
			c40.836,22.961,74.081,57.887,118.634,74.949c14.083,5.393,27.713,12.01,41.924,17.002c4.387,1.541,10.011-0.441,17.276-0.972
			c-2.8-4.585-3.611-7.815-5.574-8.843c-32.309-16.909-64.763-33.541-101.576-52.495c-13.763-18.968-36.205-33.877-63.244-37.939
			c-13.866-22.574-27.444-42.663-38.865-63.911c-9.056-16.848-17.565-34.543-22.582-52.884
			c-8.173-29.878-14.871-60.37-19.167-91.026c-2.94-20.981,0.048-42.053,9.39-62.499
			C687.674,2323.663,689.444,2306.088,693.52,2289.568z M1976.911,537.515c-9.434-12.778-7.313-25.737,2.817-34.062
			c11.484-9.438,19.833-23.129,35.241-27.893c3.535-1.093,6.056-5.197,9.3-7.565c4.347-3.175,8.625-6.743,13.493-8.849
			c13.116-5.675,26.595-10.504,39.801-15.98c9.673-4.011,19.142-8.516,32.695-14.591c-7.75-0.407-11.386-1.621-14.176-0.575
			c-15.477,5.804-30.775,12.089-46.08,18.341c-14.032,5.731-28.303,11.004-41.892,17.656c-10.375,5.079-20.519,11.151-29.564,18.302
			c-12.816,10.131-22.982,24.653-37.057,31.917c-23.292,12.019-40.328,30.457-59.63,46.919
			c-31.944,27.243-65.879,52.143-98.672,78.409c-7.253,5.81-13.238,13.202-19.807,19.865c13.264-1.885,23.854-7.525,31.967-17.275
			c20.633-24.793,50.063-37.995,75.221-56.815c7.588-5.676,16.561-10.453,25.64-13.018c38.401-10.85,76.244-24.023,116.511-27.441
			c11.895-1.01,23.466-5.846,35.185-8.929c-0.274-1.49-0.547-2.98-0.821-4.47c-11.111,1.508-23.464,6.78-33.034,3.621
			C2000.528,530.619,1990.394,543.152,1976.911,537.515z M612.78,1542.041c33.737,34.522,75.693,40.734,110.683,41.378
			c28.022-6.357,47.724-10.826,71.105-16.13c-11.2-8.389-18.887-17.758-28.549-20.748c-37.97-11.753-75.566-25.687-116.795-22.47
			C635.083,1525.174,623.718,1528.223,612.78,1542.041z M773.816,567.473c22.995,19.566,37.256,25.096,57.538,24.645
			c16.059-6.686,27.155-11.305,40.342-16.795c5.777-7.001,4.825-16.277-2.932-24c-10.112-10.069-22.206-18.244-31.717-28.794
			c-12.485-13.848-29.464-19.342-44.093-28.93C764.648,513.602,762.616,538.854,773.816,567.473z M847.252,618.827
			c-2.141,12.51-1.942,23.562,6.062,31.071c11.476,10.767,24.211,20.315,37.088,29.422c8.462,5.984,18.568,6.167,27.214,0.162
			c7.739-5.376,14.425-12.268,21.251-18.208c-7.631-32.845-25.954-56.939-47.265-75.846
			C870.546,590.542,857.967,603.389,847.252,618.827z M2581.463,667.731c-11.792-4.708-20.971-9.442-30.717-12.071
			c-35.703-9.631-70.407-21.821-104.024-37.269c-22.487-10.333-45.363-19.818-67.96-29.915c-10.672-4.769-21.174-9.936-31.62-15.187
			c-14.629-7.354-28.453-17.177-43.86-21.907c-20.848-6.401-42.854-9.066-64.4-13.138c-6.833-1.291-13.924-2.407-18.449,6.302
			c14.405,9.961,31.54,12.871,47.779,17.886c26.707,8.246,54.397,13.953,80.178,24.411c49.575,20.112,98.082,42.853,147.11,64.325
			c4.327,1.895,9.277,2.318,13.854,3.701c18.876,5.703,37.719,11.513,58.124,17.758
			C2569.884,671.785,2574.187,670.278,2581.463,667.731z M2119.827,423.711c81.441-2.594,158.641-22.515,236.741-34.065
			c2.04-6.461,3.64-11.528,5.047-15.983c6.247-2.941,11.627-5.475,17.007-8.008c-5.202-1.797-9.835-1.512-13.937,0.114
			c-18.611,7.377-37.153,14.702-57.643,14.926c-3.325,0.036-6.655,1.623-9.944,2.621c-18.531,5.622-37.191,10.255-56.837,9.045
			c-4.094-0.252-8.65-0.484-12.314,0.977c-23.086,9.206-47.906,9.48-71.749,14.636
			C2143.807,410.653,2130.03,410.934,2119.827,423.711z M976.305,771.846c2.574-13.458,4.949-25.879,7.221-37.754
			c-14.566-10.219-14.203-10.374-21.403-27.237c-3.165-7.413-8.149-14.049-13.388-22.857c-10.005,6.794-18.837,12.792-26.741,18.159
			c-1.679,18.515,3.152,32.998,15.06,43.292C948.183,755.069,961.547,762.104,976.305,771.846z M862.091,1664.628
			c0.472-7.433,0.712-15.374,1.548-23.252c0.884-8.332,7.372-17.074-2.8-25.103c-3.576,1.534-7.449,2.8-10.934,4.759
			c-15.116,8.498-29.961,12.967-46.242,1.882c-3.209-2.185-9.591,0.289-15.991,0.712c3.43,11.228,4.819,20.507,14.065,24.52
			C820.234,1656.174,837.599,1668.458,862.091,1664.628z M1475.35,742.574c45.104,0.795,88.702,2.305,130.754-24.647
			c-41.542-0.725-79.037-2.225-115.639,9.409c2.648,2.658,5.296,5.315,7.943,7.973
			C1490.722,737.73,1483.036,740.152,1475.35,742.574z M2107.954,750.749c7.22,1.822,9.829,3.387,11.944,2.882
			c52.982-12.644,102.653-34.222,152.01-56.636c2.491-1.131,5.231-1.718,7.855-2.558c-18.062-6.618-28.794,2.861-41.274,7.051
			c-18.527,6.221-37.409,11.324-55.669,18.566c-19.208,7.618-38.966,13.839-58.344,21.048
			C2119.938,742.789,2115.967,745.998,2107.954,750.749z M2108.875,497.153c70.219-8.29,138.803-16.387,207.387-24.484
			c-2.8-2.76-5.745-3.549-8.573-3.249c-6.156,0.653-12.492,3.442-18.331,2.56c-21.455-3.243-42.334-0.301-63.406,3.125
			c-14.836,2.412-29.903,3.49-44.897,4.816c-19.234,1.7-38.484,3.317-57.759,4.41
			C2116.404,484.721,2110.927,485.764,2108.875,497.153z M731.676,465.717c-6.35,12.074-12.245,23.284-18.02,34.264
			c19.454,13.705,28.485,11.275,60.071-14.939C760.61,479.014,747.811,473.132,731.676,465.717z M1680.88,710.258
			c7.377,4.57,10.449,7.138,13.983,8.557c26.155,10.503,52.1,21.669,78.762,30.704c11.33,3.839,24.203,3.488,36.422,4.081
			c2.956,0.143,6.096-3.521,9.152-5.434c-43.655-9.884-84.655-24.66-126.132-37.816
			C1690.815,709.636,1688.14,710.258,1680.88,710.258z M1113.917,1689.682c-18.405-13.543-36.791-9.205-54.379-14.492
			c0,9.872,0,17.757,0,26.142C1079.536,1707.589,1094.674,1697.744,1113.917,1689.682z M400.114,772.037
			c8.474-6.777,15.936-11.665,22.026-17.894c7.37-7.539,5.799-19.15-2.306-25.461c-6.593-5.134-15.939-4.228-21.435,4.255
			c-3.332,5.143-4.239,12.653-4.062,19.039C394.5,757.868,397.562,763.68,400.114,772.037z M1723.876,497.246
			c33.385,11.226,66.863,15.889,103.911,4.739c-10.006-1.925-17.303-4.409-24.643-4.546
			C1776.729,496.947,1750.3,497.246,1723.876,497.246z M2127.16,533.094c27.304,12.999,57.365,3.958,85.645,10.452
			C2186.454,524.163,2156.632,530.481,2127.16,533.094z M1547.834,672.873c-8.044,5.361-16.832,10.949-22.534,23.067
			c23.591-2.172,44.913-4.135,63.379-5.835C1577.557,685.413,1563.932,679.665,1547.834,672.873z M2042.282,492.939
			c0.346,1.628,0.691,3.255,1.037,4.883c15.22-0.434,30.445-0.748,45.655-1.417c2.543-0.112,5.149-1.525,7.46-2.813
			c0.92-0.512,1.119-2.317,2.205-4.82c-2.453-1.553-5.579-5.104-7.587-4.556C2075.091,488.57,2057.041,483.262,2042.282,492.939z
			 M1584.97,476.574c23.581,3.543,47.163,7.087,70.744,10.63C1632.356,481.653,1610.626,467.16,1584.97,476.574z"/>
		<path d="M1090.276,275.896c0.64,4.232,1.039,6.87,1.57,10.375c4.944,1.883,10.052,3.701,15.063,5.757
			c27.383,11.236,47.083,30.535,59.921,57.086c1.798,3.72,3.965,7.327,6.412,10.655c5.746,7.813,7.615,16.241,4.605,25.507
			c-5.486,16.895-11.11,33.745-17.994,54.608c4.029,8.138,10.186,20.346,16.138,32.654c8.958,18.525,3.463,37.861,2.32,56.808
			c-0.207,3.436-6.166,6.524-9.06,9.37c-19.658-8.05-26.147-17.189-25.931-36.05c4.448,0,8.905,0,14.461,0
			c0.256-3.984,1.421-7.551,0.532-10.499c-9.109-30.218-26.478-54.32-53.522-71.14c-14.658-9.116-28.678-19.419-43.939-27.352
			c-11.031-5.734-17.502-14.997-25.53-23.459c-14.506-15.289-27.975-31.275-40.777-48.008c-7.491-9.792-19.778-12.01-31.584-13.305
			c-8.09-0.888-14.812-2.855-16.227-15.349c5.713-0.186,11.179-1.813,15.458-0.231c12.57,4.648,24.102,2.474,36.215-1.725
			c30.555-10.591,61.273-20.728,92.093-30.525c9.136-2.904,18.802-4.182,28.269-5.977c3.381-0.641,7.119-1.524,10.303-0.73
			c15.828,3.949,32.588,6.242,47.001,13.262c17.816,8.679,33.711,21.338,50.317,32.455c26.457,17.712,41.207,41.84,40.228,74.425
			c9.369,16.746,18.671,33.53,28.183,50.195c1.307,2.289,3.656,3.984,7.159,7.68c-2.487,6.051-5.13,12.482-8.065,19.623
			c-9.391-2.694-16.575-4.754-22.485-6.45c-12.574-27.367-24.623-53.59-37.654-81.95c5.784-12.8-2.024-22.724-11.254-34.344
			c-16.917-21.297-40.099-33.758-61.878-47.901c-9.583-6.223-23.196-7.525-35.173-8.403
			C1114.033,272.122,1102.363,274.744,1090.276,275.896z"/>
		<path d="M1318.024,670.696c8.474,12.461,15.739,23.143,23.915,35.164c-1.722,13.114-0.353,26.088,10.381,38.653
			c7.616,8.915,10.498,22.301,14.095,34.117c4.679,15.374-2.7,29.71-11.417,40.15c-11.993,14.363-22.574,31.148-41.079,39.365
			c-3.895,1.729-6.314,6.784-9.412,10.307c-12.806-0.744-12.806-0.744-20.223,12.831c11.753,3.523,12.513,13.843,14.788,23.834
			c1.618,7.108,3.204,13.45-3.819,20.126c-8.448,0-17.938,0-26.797,0c-25.959-19.445-33.989-48.484-37.869-76.172
			c-2.988-21.322,2.012-45.628,24.836-59.849c10.945-6.819,20.662-15.609,30.976-23.539c-1.966-9.617-4.148-17.547-13.079-20.845
			c-15.115-5.581-20.325-17.564-21.92-33.573c7.352-9.177,15.312-19.114,26.02-32.482
			C1288.152,676.646,1302.702,673.748,1318.024,670.696z"/>
		<path d="M1071.247,651.741c-5.551,3.909-10.402,7.325-14.198,9.999c-15.635-3.757-23.704-14.504-32.933-23.656
			c-1.44-1.428-3.238-3.251-3.445-5.055c-3.528-30.741-25.622-56.682-17.801-91.304c6.696-29.641,1.644-60.603-20.877-85.203
			c-1.337-1.46-1.965-3.569-2.847-5.233c8.103-16.496,18.294-19.784,29.105-6.661c19.591,23.78,35.371,49.995,26.512,83.15
			c-5.708,21.365-4.004,40.626,5.269,61.663c7.215,16.368,12.433,32.894,25.133,46.222
			C1068.553,639.22,1069.028,645.552,1071.247,651.741z"/>
	</g>
</g>
<g>
	<polygon fill="#231F20" points="2758.814,2759.103 2879.444,2838.493 2773.01,2758.086 2822.15,2704.835 2730.123,2709.154 
		2798.828,2712.648 	"/>
	<polygon fill="#231F20" points="2791.623,2879.307 2698.924,2707.675 2791.623,2611.244 2716.65,2708.558 	"/>
	<polygon fill="#231F20" points="2634.957,2902.64 2735.99,2795.436 2619.838,2706.778 2686.719,2706.629 2591.623,2702.334 
		2723.88,2799.034 	"/>
</g>
</svg>
