<?xml version="1.0" encoding="UTF-8" standalone="no"?>
<!-- Generator: Adobe Illustrator 17.0.0, SVG Export Plug-In . SVG Version: 6.00 Build 0)  -->

<svg
   xmlns:dc="http://purl.org/dc/elements/1.1/"
   xmlns:cc="http://creativecommons.org/ns#"
   xmlns:rdf="http://www.w3.org/1999/02/22-rdf-syntax-ns#"
   xmlns:svg="http://www.w3.org/2000/svg"
   xmlns="http://www.w3.org/2000/svg"
   xmlns:sodipodi="http://sodipodi.sourceforge.net/DTD/sodipodi-0.dtd"
   xmlns:inkscape="http://www.inkscape.org/namespaces/inkscape"
   version="1.1"
   id="Layer_1"
   x="0px"
   y="0px"
   width="3039px"
   height="3039px"
   viewBox="0 0 3039 3039"
   enable-background="new 0 0 3039 3039"
   xml:space="preserve"
   sodipodi:docname="shaman.svg"
   inkscape:version="0.92.4 (5da689c313, 2019-01-14)"><metadata
   id="metadata1510"><rdf:RDF><cc:Work
       rdf:about=""><dc:format>image/svg+xml</dc:format><dc:type
         rdf:resource="http://purl.org/dc/dcmitype/StillImage" /><dc:title></dc:title></cc:Work></rdf:RDF></metadata><defs
   id="defs1508" /><sodipodi:namedview
   pagecolor="#ffffff"
   bordercolor="#666666"
   borderopacity="1"
   objecttolerance="10"
   gridtolerance="10"
   guidetolerance="10"
   inkscape:pageopacity="0"
   inkscape:pageshadow="2"
   inkscape:window-width="1020"
   inkscape:window-height="754"
   id="namedview1506"
   showgrid="false"
   inkscape:zoom="0.14610069"
   inkscape:cx="1559.5053"
   inkscape:cy="1515.4011"
   inkscape:window-x="2125"
   inkscape:window-y="53"
   inkscape:window-maximized="0"
   inkscape:current-layer="Layer_1" />
<rect
   x="1"
   y="-3039"
   width="3039"
   height="3039"
   id="rect761"
   transform="rotate(90)"
   style="fill:#ffffff" />

<g
   id="g1503">
	<polygon
   fill="#231F20"
   points="2757.814,2758.103 2878.444,2837.493 2772.01,2757.086 2821.15,2703.835 2729.123,2708.154    2797.828,2711.648  "
   id="polygon1497" />
	<polygon
   fill="#231F20"
   points="2790.623,2878.307 2697.924,2706.675 2790.623,2610.244 2715.65,2707.558  "
   id="polygon1499" />
	<polygon
   fill="#231F20"
   points="2633.956,2901.64 2734.99,2794.436 2618.838,2705.778 2685.719,2705.629 2590.623,2701.334    2722.879,2798.034  "
   id="polygon1501" />
</g>
<g
   style="fill:#000000;stroke:none"
   id="g434"
   transform="matrix(0,0.57231079,0.60095048,0,-28.846594,-438.76277)"><path
     id="path184"
     d="m 4015,4861 c -42,-10 -57,-20 -95,-64 -25,-29 -30,-41 -21,-50 8,-8 14,-8 23,1 25,25 96,14 153,-22 62,-40 68,-50 85,-128 9,-48 9,-61 -3,-78 -13,-19 -26,-21 -131,-24 -64,-1 -118,-5 -121,-8 -3,-3 -1,-17 5,-32 7,-20 15,-26 28,-22 23,8 99,-57 145,-123 66,-96 173,-335 196,-440 25,-112 34,-201 21,-201 -6,0 -14,8 -17,18 -4,9 -22,37 -41,61 -39,52 -89,146 -114,216 -43,121 -194,175 -262,94 -14,-17 -26,-38 -25,-47 1,-33 16,-57 35,-57 12,0 22,-11 29,-31 6,-17 15,-37 21,-45 8,-10 9,-31 4,-69 -5,-30 -11,-143 -14,-250 -7,-315 -25,-524 -51,-605 -13,-38 -21,-73 -18,-77 9,-17 24,-6 39,30 32,75 44,129 44,202 0,41 5,93 10,115 5,22 10,191 12,377 l 3,336 -24,26 c -14,14 -30,26 -37,26 -20,0 -27,19 -13,36 27,32 64,44 105,33 55,-15 97,-60 130,-137 40,-96 93,-195 114,-212 17,-14 39,-56 74,-142 16,-41 43,-54 30,-15 -7,22 -6,175 2,188 7,12 -37,192 -63,259 -14,36 -55,123 -90,193 -50,98 -80,143 -129,195 -48,51 -60,68 -49,74 17,10 199,-6 236,-20 56,-22 201,-126 271,-194 84,-83 188,-231 212,-302 9,-26 23,-61 31,-77 9,-16 28,-93 44,-171 48,-234 96,-404 133,-471 7,-12 12,-44 13,-72 0,-42 3,-51 25,-62 28,-14 116,-17 124,-4 3,4 19,11 35,14 16,3 46,18 66,32 21,14 48,25 60,25 32,0 95,-72 95,-108 0,-48 -20,-62 -105,-79 -78,-14 -79,-14 -96,8 -21,29 -43,16 -35,-21 5,-28 5,-29 -62,-36 -37,-4 -157,-8 -267,-8 l -200,-1 3,29 c 4,39 -20,29 -32,-13 -15,-54 -6,-56 195,-54 105,1 179,-2 179,-7 0,-5 -11,-12 -25,-16 -28,-7 -35,-42 -10,-49 48,-15 48,-19 0,-26 -27,-4 -78,-8 -112,-8 -74,-1 -160,-18 -190,-38 l -22,-15 31,-39 c 33,-42 58,-44 31,-3 -14,22 -14,27 -2,35 8,5 19,9 24,10 6,1 24,4 40,7 17,2 147,5 290,6 143,1 268,5 278,10 34,16 53,-17 60,-102 4,-42 14,-97 23,-122 12,-33 15,-64 10,-114 -4,-58 -10,-74 -33,-98 -45,-47 -77,-37 -132,41 -55,77 -87,102 -132,104 -28,2 -34,-2 -34,-18 0,-17 6,-19 33,-17 28,3 39,-2 69,-36 19,-22 45,-57 57,-78 40,-72 137,-77 182,-9 28,43 30,155 4,258 -14,55 -20,99 -16,120 13,63 12,71 -9,75 -11,3 -32,13 -47,24 -25,17 -30,18 -57,3 -51,-26 -246,-11 -264,21 -4,8 -14,14 -22,14 -29,0 -24,20 9,34 18,8 38,21 43,29 6,12 31,17 103,20 122,5 192,25 236,68 29,28 34,40 34,79 0,47 -30,103 -73,138 -27,22 -100,18 -136,-7 -17,-13 -38,-20 -46,-18 -7,3 -18,0 -25,-7 -22,-28 -120,16 -120,54 0,4 21,25 46,45 52,43 52,35 4,165 -45,121 -56,168 -42,182 8,8 15,8 27,-2 24,-20 69,-90 85,-130 15,-40 72,-131 92,-148 24,-20 72,0 82,34 4,16 12,36 17,44 5,8 15,30 23,48 8,17 19,32 25,32 30,0 81,-164 81,-264 0,-65 28,-239 45,-280 12,-27 21,-36 40,-36 31,0 45,26 48,90 1,28 5,50 10,50 4,0 7,-2 7,-5 0,-3 9,-47 21,-98 45,-198 57,-296 47,-369 -7,-42 -15,-67 -21,-65 -6,2 -23,27 -37,56 -31,62 -70,88 -93,63 -8,-10 -17,-37 -19,-62 -6,-59 18,-359 32,-394 6,-16 16,-81 22,-147 17,-167 -6,-184 -73,-54 -70,137 -131,201 -167,179 -19,-12 -22,-89 -7,-172 6,-33 5,-42 -6,-42 -29,0 -93,128 -108,215 -13,77 -39,155 -52,155 -18,0 -18,-21 0,-63 14,-33 22,-87 30,-213 9,-149 14,-177 38,-234 49,-114 93,-161 133,-140 22,12 44,82 36,114 -3,11 2,30 9,40 16,22 17,22 36,-64 30,-134 82,-175 132,-102 15,21 27,43 27,48 0,6 9,19 21,30 20,18 21,18 35,-1 8,-11 12,-30 9,-42 -3,-14 3,-31 19,-50 20,-23 28,-26 43,-17 33,19 55,82 69,202 15,121 14,200 -7,360 -9,74 -9,101 1,131 9,28 9,43 1,59 -11,20 -6,52 8,52 24,0 46,-104 32,-143 -14,-37 4,-67 41,-67 23,0 28,5 28,23 0,13 -9,33 -20,45 -11,12 -20,31 -20,44 0,36 -20,101 -38,121 -23,26 -41,21 -59,-18 -9,-19 -20,-35 -25,-35 -14,0 -9,-70 8,-101 8,-17 13,-36 11,-42 -2,-7 1,-51 8,-98 24,-164 1,-457 -39,-497 -14,-14 -16,-12 -26,12 -5,15 -10,33 -10,39 0,27 -32,57 -59,57 -27,0 -61,-26 -61,-46 0,-22 -26,-63 -42,-67 -25,-7 -44,21 -58,83 -6,30 -15,68 -18,84 -10,41 -36,55 -61,32 -14,-13 -22,-37 -27,-83 -8,-78 -25,-91 -63,-46 -54,65 -112,305 -72,303 3,-1 20,-24 36,-53 24,-41 35,-52 55,-52 h 25 v 105 c 0,86 3,105 15,105 16,0 66,-71 107,-150 28,-55 80,-115 99,-115 7,0 20,10 28,22 22,31 21,177 0,238 -9,25 -21,74 -26,110 -14,86 -16,374 -3,379 6,2 19,-14 30,-36 76,-150 118,-134 118,47 1,113 -6,156 -48,320 -14,58 -29,142 -32,188 -6,87 -18,106 -28,45 -3,-21 -13,-51 -22,-66 -11,-21 -14,-43 -9,-76 11,-81 -37,-113 -49,-33 -3,20 -10,62 -15,92 -5,30 -12,98 -15,150 -6,117 -36,216 -80,267 -28,33 -34,36 -49,24 -9,-7 -16,-21 -17,-30 -1,-28 -64,-136 -80,-139 -19,-4 -61,56 -110,158 -42,87 -79,130 -112,130 -27,0 -47,-17 -47,-41 0,-20 65,-231 80,-259 5,-10 8,-25 5,-32 -5,-11 -68,-58 -79,-58 -6,0 -51,139 -69,210 -8,36 -25,99 -36,140 -11,41 -21,87 -21,101 0,75 -75,286 -128,364 -15,22 -34,53 -42,70 -8,16 -55,71 -105,123 -99,104 -238,204 -321,229 l -51,16 5,43 c 8,71 -14,138 -58,178 -47,42 -74,58 -123,71 -21,5 -37,15 -36,20 10,35 176,43 236,12 30,-16 83,-77 83,-96 0,-27 50,-103 93,-139 59,-51 102,-56 160,-16 55,37 69,30 84,-41 28,-127 34,-149 59,-201 20,-43 34,-58 70,-76 45,-22 46,-22 60,-4 9,13 12,33 8,60 -4,23 -7,46 -8,51 0,6 11,11 26,13 19,2 31,-3 42,-21 26,-38 64,-157 71,-222 4,-33 11,-64 15,-70 4,-5 10,-32 14,-60 10,-87 16,-118 39,-204 17,-65 28,-87 49,-103 34,-24 45,-18 54,27 3,19 10,35 15,35 11,0 54,-94 69,-152 14,-53 34,-62 52,-23 9,19 9,44 0,103 -7,42 -12,105 -12,140 0,74 14,81 57,25 33,-43 93,-155 93,-172 0,-23 41,-102 56,-108 27,-10 40,19 59,125 10,57 22,105 26,108 16,10 58,-29 83,-76 28,-54 61,-190 71,-296 4,-38 8,-195 9,-349 3,-290 9,-338 46,-375 29,-29 50,-15 50,31 0,21 5,39 10,39 15,0 50,-79 50,-111 0,-15 9,-71 21,-125 28,-135 27,-274 -2,-316 -30,-41 -13,-50 22,-10 27,30 29,37 29,120 0,51 -9,129 -20,182 -11,51 -20,108 -20,127 0,45 -48,161 -72,174 -29,15 -50,-7 -46,-47 2,-18 -1,-34 -7,-35 -26,-3 -34,76 -36,332 -1,275 -16,473 -42,549 -9,25 -21,64 -27,88 -7,27 -26,58 -51,83 -40,40 -66,48 -87,27 -9,-9 -30,-88 -48,-186 -3,-13 -10,-22 -17,-19 -12,4 -57,111 -57,138 0,9 -15,36 -33,60 -18,24 -40,55 -48,69 -9,14 -28,32 -43,39 -24,13 -28,13 -43,-2 -15,-14 -15,-28 -4,-143 7,-69 10,-128 8,-130 -2,-3 -16,24 -31,58 -32,72 -52,98 -77,98 -13,0 -19,-9 -21,-37 -2,-30 -7,-38 -22,-38 -23,0 -47,76 -70,219 -21,133 -45,251 -68,333 -25,86 -66,134 -119,136 l -34,2 v -67 c 0,-36 -3,-69 -6,-72 -3,-3 -21,4 -39,16 -39,27 -72,109 -90,220 -12,82 -33,136 -54,144 -10,4 -25,-6 -41,-25 -24,-28 -76,-51 -117,-51 -24,0 -98,68 -98,89 0,9 -4,21 -9,27 -6,5 -23,34 -39,64 -40,75 -94,108 -188,114 -38,2 -83,1 -99,-3 z"
     inkscape:connector-curvature="0" /><path
     id="path186"
     d="m 3119,4806 c -14,-6 -42,-25 -62,-42 -29,-24 -35,-33 -25,-41 7,-6 77,-15 155,-21 121,-8 148,-13 185,-34 24,-13 80,-40 126,-59 54,-22 101,-51 138,-84 l 55,-50 5,-100 c 4,-109 19,-374 35,-608 8,-127 7,-157 -7,-205 -9,-31 -20,-62 -25,-68 -4,-5 -15,-35 -23,-65 -8,-30 -19,-67 -25,-82 -13,-34 -14,-47 -3,-47 12,0 38,55 61,130 11,36 29,89 40,119 15,39 19,70 16,110 -2,31 -6,130 -10,221 -3,91 -11,199 -16,240 -5,41 -13,204 -18,362 -5,158 -12,291 -15,297 -4,6 -21,-3 -42,-24 -47,-48 -94,-47 -249,5 -65,21 -144,42 -175,45 -30,3 -64,8 -75,9 -11,2 -32,-1 -46,-8 z m 295,-73 c 140,-45 168,-48 249,-28 l 27,7 v -91 c 0,-50 -3,-91 -6,-91 -3,0 -31,20 -62,44 -32,24 -79,52 -107,62 -27,10 -72,30 -100,45 -57,31 -133,49 -208,49 -74,0 -128,11 -124,24 5,16 95,34 147,29 25,-3 108,-25 184,-50 z"
     inkscape:connector-curvature="0" /><path
     id="path188"
     d="m 2560,4280 c -170,-17 -226,-36 -217,-71 6,-22 -9,-36 -42,-41 -14,-1 -26,-8 -28,-14 -2,-7 47,-10 154,-9 87,1 164,-3 171,-8 7,-6 12,-34 12,-73 0,-59 9,-79 25,-54 5,8 11,8 19,1 22,-19 24,-1 4,40 -23,48 -20,75 7,71 11,-2 35,-6 53,-9 17,-3 33,-10 33,-17 2,-17 -1,-48 -7,-74 -4,-20 -2,-23 16,-17 16,5 23,2 27,-14 8,-30 24,-26 18,4 -3,14 -7,36 -10,49 -8,40 21,39 90,-5 36,-22 65,-45 65,-50 0,-20 -51,-110 -65,-116 -22,-8 -65,24 -65,48 0,17 -4,20 -24,15 -15,-4 -28,0 -35,8 -7,8 -35,17 -64,21 -29,4 -56,10 -62,14 -5,3 -30,6 -55,6 h -45 l -1,63 c -2,76 -13,92 -48,68 -22,-14 -26,-24 -26,-61 0,-46 16,-63 22,-23 5,38 28,33 28,-6 0,-34 -1,-35 -46,-42 -55,-8 -65,0 -69,57 -1,24 -3,52 -4,62 0,9 -5,17 -9,17 -9,0 -11,-159 -2,-161 3,-1 31,-2 63,-4 32,-2 60,-5 63,-7 2,-3 13,-52 23,-109 11,-57 27,-125 35,-151 9,-26 18,-74 20,-107 2,-34 9,-68 16,-76 16,-19 -10,-31 -37,-17 -27,15 -169,45 -243,51 -36,3 -64,11 -64,16 5,29 37,232 49,305 36,213 40,268 20,248 -3,-3 -12,-45 -21,-94 -8,-49 -24,-138 -35,-199 -10,-60 -23,-141 -27,-178 -10,-78 -22,-94 -76,-99 l -39,-3 -19,63 c -23,73 -40,82 -31,15 12,-85 13,-82 -52,-104 -73,-25 -83,-33 -146,-128 -50,-76 -55,-101 -20,-101 26,0 81,-53 81,-79 0,-22 14,-28 25,-11 4,6 26,-7 52,-30 48,-42 63,-48 63,-27 0,13 -96,97 -111,97 -4,0 -10,9 -14,19 -3,11 -21,25 -40,31 -19,6 -35,15 -35,18 0,4 12,30 26,57 42,78 82,118 136,136 56,19 51,23 67,-66 23,-125 37,-179 49,-183 14,-4 10,47 -8,98 -5,14 -13,53 -18,88 -10,69 -6,75 46,85 26,5 34,3 39,-11 3,-9 15,-25 27,-34 18,-15 19,-20 8,-50 -16,-46 -15,-95 3,-165 8,-31 15,-99 15,-151 0,-97 16,-152 45,-152 8,0 27,-11 42,-24 l 28,-25 -43,-44 c -46,-47 -44,-68 5,-45 17,8 32,26 38,45 15,45 22,49 48,25 25,-23 120,-75 155,-84 34,-9 26,-25 -22,-47 -36,-15 -50,-30 -71,-71 -26,-50 -26,-70 -1,-70 10,0 16,-27 21,-92 l 7,-93 -47,-42 -48,-42 7,-65 c 9,-88 20,-114 53,-127 16,-6 37,-18 48,-28 11,-10 29,-21 40,-23 11,-3 27,-9 36,-12 14,-6 17,5 21,83 5,100 20,131 66,131 h 25 l -7,103 c -6,99 -5,104 18,136 31,42 72,67 160,100 103,39 121,80 76,171 -30,60 -64,78 -205,110 -66,15 -85,33 -85,84 -1,85 -23,134 -84,193 -41,39 -56,61 -53,74 3,10 -3,29 -12,41 -24,32 -29,146 -7,154 18,7 17,7 101,-39 l 59,-32 1,-67 2,-66 67,-70 c 37,-38 75,-82 85,-98 26,-42 87,-93 140,-116 107,-46 201,-130 235,-213 36,-85 -42,-200 -179,-265 -44,-20 -92,-50 -107,-66 -30,-33 -48,-90 -48,-153 0,-34 -6,-49 -26,-68 -26,-24 -27,-27 -22,-114 4,-59 2,-91 -6,-97 -19,-15 -137,-41 -214,-48 -70,-6 -73,-6 -99,22 -22,23 -27,39 -28,79 0,28 -4,50 -10,50 -6,0 -9,-19 -7,-42 4,-52 -4,-53 -63,-13 -41,28 -44,34 -51,87 -3,32 -11,66 -16,77 -19,35 -26,1 -14,-64 19,-96 25,-110 48,-110 11,0 33,-10 48,-22 15,-13 35,-28 45,-34 11,-6 16,-17 13,-26 -9,-22 -124,-5 -153,22 -12,11 -25,17 -28,13 -6,-6 -26,1 -79,28 -169,85 -181,96 -138,119 24,13 43,47 34,61 -8,13 -50,-25 -71,-64 -23,-46 -20,-50 102,-111 28,-14 57,-30 65,-35 16,-10 55,-26 83,-35 11,-4 17,-16 17,-36 0,-17 4,-39 9,-49 10,-18 35,-220 28,-227 -4,-4 -94,41 -114,58 -8,6 -13,49 -15,121 -2,78 -7,112 -16,115 -10,3 -11,-19 -7,-102 l 6,-106 h -28 -27 l 34,-29 c 19,-16 46,-32 60,-35 14,-2 46,-18 71,-35 41,-25 48,-35 54,-72 4,-24 14,-61 21,-82 17,-48 7,-53 -68,-38 -101,22 -103,23 -99,124 2,58 -1,87 -8,87 -10,0 -16,-52 -15,-127 1,-30 -1,-31 -35,-29 -20,1 -44,6 -54,10 -10,5 -21,6 -24,3 -3,-4 5,-11 19,-16 33,-13 51,-36 54,-74 1,-18 8,-71 15,-119 12,-81 20,-101 33,-80 5,8 -6,115 -20,195 -7,45 1,46 78,17 29,-11 64,-20 78,-20 14,0 38,-7 53,-15 39,-20 41,-7 14,102 -13,51 -22,95 -19,98 3,2 17,2 31,-2 23,-6 24,-4 13,10 -8,9 -23,17 -35,19 -19,3 -22,10 -23,53 -2,51 -19,187 -30,230 -6,23 -5,23 58,18 34,-3 65,-8 68,-12 5,-5 3,-94 -12,-493 -3,-86 -10,-108 -23,-68 -7,21 -25,28 -25,10 0,-6 7,-27 15,-47 8,-19 15,-50 15,-67 0,-17 5,-38 10,-46 6,-10 3,-25 -10,-48 -11,-18 -20,-37 -20,-42 0,-4 21,-19 48,-32 44,-21 57,-23 190,-20 79,1 180,9 225,17 186,34 216,37 330,32 65,-3 123,-10 130,-15 27,-23 125,-52 191,-57 55,-5 83,-2 126,12 52,18 57,22 86,82 72,145 43,241 -92,297 -20,8 -39,25 -44,40 -11,27 -30,24 -30,-5 0,-16 38,-61 53,-61 10,0 93,-58 108,-76 7,-9 13,-39 13,-67 1,-75 -35,-142 -94,-174 -40,-21 -54,-24 -128,-19 -50,2 -92,10 -106,19 -43,29 -148,57 -211,57 -69,0 -79,7 -111,77 -10,23 -22,43 -26,43 -17,0 -6,-41 18,-70 15,-17 23,-35 18,-39 -15,-14 -294,-60 -379,-63 -69,-2 -80,0 -83,15 -4,21 -22,23 -22,2 0,-32 -67,-37 -115,-8 -18,11 -18,14 -5,27 8,9 38,17 65,20 28,2 58,7 68,11 9,4 27,5 39,2 12,-3 31,-1 42,6 21,12 35,15 109,21 20,2 41,6 45,10 13,14 74,36 83,30 5,-3 12,2 15,11 4,9 27,27 53,40 70,36 109,69 148,124 19,28 48,56 64,63 36,16 37,24 2,33 -23,6 -31,2 -48,-22 -39,-55 -122,-133 -142,-133 -15,0 -27,16 -48,61 l -27,61 23,24 c 12,13 26,24 31,24 4,0 89,81 188,179 141,140 184,178 200,174 57,-15 129,66 171,192 18,56 22,89 20,164 -2,102 5,121 48,121 47,0 64,-21 69,-87 4,-52 1,-62 -22,-90 -21,-24 -26,-42 -26,-82 0,-28 -11,-97 -24,-154 -13,-56 -27,-124 -31,-152 -4,-27 -13,-72 -20,-100 -22,-83 -27,-137 -13,-133 7,3 15,18 19,34 3,16 14,63 23,104 8,41 27,127 41,190 14,63 28,141 32,173 4,38 15,71 31,95 37,55 40,114 7,187 -15,33 -36,70 -47,82 -19,20 -19,21 -1,31 10,6 15,14 11,17 -16,17 -60,-9 -96,-54 l -39,-49 5,-77 c 6,-98 -12,-196 -52,-277 -40,-81 -67,-97 -126,-78 -58,19 -64,41 -30,110 68,138 79,165 72,172 -13,13 -56,-7 -113,-52 -29,-22 -71,-50 -95,-60 -24,-11 -58,-38 -75,-60 -44,-55 -161,-141 -259,-191 -44,-23 -83,-45 -86,-50 -6,-11 -48,-12 -58,-1 -4,4 -24,7 -44,7 -35,0 -36,1 -39,40 -1,22 -4,51 -5,65 -3,23 1,25 37,28 22,2 44,7 50,11 5,5 28,14 50,21 57,18 119,57 184,116 152,137 204,166 287,161 34,-2 39,1 42,22 3,21 1,23 -20,17 -12,-4 -48,-11 -78,-15 -81,-11 -107,-27 -247,-154 -47,-43 -91,-76 -97,-74 -7,2 -11,33 -11,78 0,69 1,74 23,77 20,3 22,9 22,63 0,46 7,73 30,118 32,65 60,89 135,117 86,32 184,152 185,226 0,15 -11,51 -23,80 -34,76 -166,193 -237,211 -41,10 -120,77 -126,106 -3,14 -12,38 -20,53 -8,14 -14,36 -14,48 0,13 -5,20 -12,17 -7,-2 -12,-14 -11,-26 2,-11 -1,-21 -5,-21 -11,0 -77,71 -91,97 -12,24 -15,93 -3,93 8,0 50,-28 192,-129 216,-153 267,-179 328,-162 38,10 25,25 -21,23 -43,-3 -87,22 -242,133 -73,53 -277,187 -312,206 -29,16 -32,21 -39,95 -4,44 -7,104 -8,134 -1,53 0,55 24,53 37,-2 150,-36 190,-57 107,-56 234,-153 343,-261 107,-107 132,-144 108,-159 -14,-9 -160,50 -201,81 -36,27 -117,73 -129,73 -25,0 -8,-22 39,-51 27,-17 88,-71 134,-121 90,-96 126,-106 50,-14 -29,36 -40,56 -30,56 8,0 18,-4 21,-10 3,-5 16,-10 28,-10 12,0 31,-7 41,-15 23,-17 62,-20 71,-5 3,6 15,10 26,10 26,0 24,7 -16,51 -34,38 -47,90 -26,103 16,10 133,-76 165,-121 31,-44 116,-232 116,-256 0,-24 58,-105 80,-112 12,-4 30,-1 44,9 21,13 23,21 19,60 -4,33 1,61 17,101 26,63 23,113 -8,155 -15,19 -29,25 -61,26 l -42,1 -30,84 c -16,46 -45,131 -65,189 -19,58 -42,119 -50,137 -8,17 -17,45 -20,62 -7,32 -29,58 -37,44 -5,-9 82,-289 109,-348 19,-44 62,-167 66,-190 3,-17 10,-20 46,-17 75,6 86,-21 53,-137 -10,-36 -22,-66 -28,-68 -31,-11 -55,17 -96,107 -73,161 -80,174 -122,215 -40,40 -150,105 -177,105 -8,0 -23,-9 -33,-20 -18,-20 -19,-19 -88,55 -38,41 -90,87 -115,102 -26,15 -67,41 -92,59 -25,17 -53,34 -62,37 -23,8 -25,89 -3,107 8,7 15,21 15,31 0,28 16,24 74,-18 121,-88 246,-201 246,-223 0,-23 59,-112 70,-105 5,3 -6,38 -25,78 -30,65 -46,82 -147,170 -62,53 -130,106 -150,117 -41,22 -46,34 -24,59 7,9 18,29 23,45 5,17 15,32 21,34 7,2 43,-28 80,-67 62,-66 69,-70 97,-63 17,5 31,15 33,24 2,12 -6,15 -35,14 -32,-1 -39,3 -51,27 -8,16 -36,44 -64,64 -43,31 -49,39 -43,62 8,32 80,98 118,106 21,5 39,-1 75,-23 50,-31 162,-58 208,-49 75,14 147,-46 142,-117 l -3,-41 -47,3 c -46,3 -49,1 -64,-32 -23,-48 -13,-69 28,-61 42,8 77,33 106,75 27,41 28,62 1,117 -34,70 -67,87 -179,91 -97,3 -156,19 -195,53 -11,10 -68,40 -126,68 -99,47 -113,51 -220,61 -125,11 -166,11 -279,0 z m 100,-34 c 0,-8 -4,-18 -10,-21 -5,-3 -10,-11 -10,-18 0,-6 16,4 35,23 l 34,33 83,-11 c 46,-6 109,-14 141,-18 35,-4 71,-15 91,-29 19,-13 42,-25 52,-27 24,-4 30,-28 7,-28 -11,0 -45,-25 -76,-56 l -56,-56 -48,26 c -26,14 -65,32 -87,40 -34,14 -38,19 -32,43 4,16 16,36 28,46 25,21 17,34 -13,21 -12,-6 -27,-26 -33,-44 -13,-40 -24,-42 -121,-15 -66,18 -141,27 -222,25 -42,-1 -53,2 -53,15 0,19 45,38 72,29 10,-3 25,-1 32,6 8,6 49,14 92,19 44,5 82,9 87,10 4,0 7,-5 7,-13 z m -72,-294 c 16,-10 13,-182 -3,-183 -14,-1 -58,167 -49,183 7,10 35,10 52,0 z m 85,-14 c 12,-7 31,-13 42,-13 13,0 21,-8 23,-23 3,-20 0,-23 -17,-17 -16,5 -21,2 -20,-12 0,-28 34,-105 44,-101 4,2 10,29 11,62 2,32 5,61 8,63 11,11 37,-8 46,-33 9,-22 13,-24 26,-13 12,10 18,9 31,-4 13,-13 14,-19 3,-31 -7,-9 -19,-16 -26,-16 -10,0 -12,-11 -8,-44 4,-24 2,-46 -3,-49 -4,-3 -35,4 -68,15 -33,12 -78,24 -100,27 l -40,6 -3,84 c -4,114 2,126 51,99 z m -278,-436 90,-17 -3,-61 c -2,-34 1,-79 7,-100 5,-21 12,-50 15,-65 3,-15 30,-45 71,-78 55,-45 65,-58 65,-84 0,-18 4,-49 9,-69 5,-20 6,-40 3,-43 -3,-3 -23,11 -44,32 -41,40 -61,39 -34,-2 21,-32 104,-98 142,-113 16,-6 54,-16 84,-22 31,-6 70,-19 88,-30 62,-38 92,-120 55,-152 -10,-9 -41,-23 -69,-32 -61,-20 -164,-83 -164,-101 0,-7 -7,-19 -16,-26 -14,-12 -16,-27 -11,-100 l 7,-86 -31,-29 c -40,-37 -51,-65 -58,-138 -3,-33 -11,-61 -17,-63 -22,-7 -104,69 -114,106 -15,55 -13,111 5,111 8,0 22,11 31,25 9,14 23,25 32,25 13,0 14,12 7,88 -15,167 -14,182 4,215 10,18 30,35 51,42 73,25 59,70 -32,101 -60,20 -74,41 -83,127 -4,37 -11,67 -17,67 -6,0 -8,-21 -3,-59 4,-37 3,-61 -4,-65 -12,-8 -73,29 -125,75 -33,29 -36,36 -36,88 -1,56 -10,137 -29,261 l -10,64 31,26 c 30,25 33,55 5,44 -17,-6 -51,31 -42,45 8,14 33,13 140,-7 z m 976,-1404 c -20,-40 -50,-93 -68,-118 -45,-64 -184,-204 -234,-235 -23,-15 -60,-44 -83,-65 -55,-50 -112,-72 -194,-74 -55,-1 -67,-4 -70,-18 -3,-14 3,-18 22,-18 35,0 54,-39 38,-75 -16,-34 -15,-38 3,-31 9,3 19,-3 26,-16 9,-16 8,-24 -5,-37 -15,-15 -17,-14 -22,7 -9,31 -23,27 -30,-8 -5,-24 -12,-30 -33,-30 h -27 l -4,118 c -2,64 -4,146 -5,182 v 65 h 50 c 39,1 70,11 135,44 47,23 103,55 125,71 22,16 70,50 107,76 37,25 70,54 73,64 7,22 56,60 106,84 19,9 53,34 74,56 21,22 41,37 45,35 4,-3 -9,-37 -29,-77 z m -37,-175 c 3,-10 11,-26 18,-35 11,-15 -7,-36 -148,-176 -89,-87 -178,-172 -199,-188 l -38,-28 -33,39 c -19,22 -34,43 -34,47 0,4 16,15 36,23 20,8 53,30 74,48 20,17 65,52 98,75 34,24 76,61 94,83 115,137 121,142 132,112 z m -710,-12 c 9,-14 10,-240 2,-298 -6,-37 -4,-53 3,-53 7,0 14,7 17,15 14,35 19,9 20,-95 1,-100 0,-110 -17,-110 -10,0 -21,5 -24,10 -5,8 -11,8 -20,0 -9,-7 -15,-7 -23,2 -9,11 -27,213 -37,413 -2,28 -8,63 -14,78 -6,16 -9,33 -5,38 7,12 91,12 98,0 z m -110,-84 c 3,-18 9,-80 12,-137 12,-236 42,-469 64,-495 22,-26 -35,-34 -84,-12 l -28,12 7,270 c 4,149 7,298 7,333 -1,66 12,83 22,29 z m 361,-257 c 12,-19 -6,-140 -21,-140 -7,0 -16,12 -20,28 -3,15 -10,43 -15,62 -7,28 -6,37 8,48 20,15 40,16 48,2 z m 55,-66 c 11,-12 11,-18 -2,-31 -19,-18 -38,-10 -38,16 0,33 20,40 40,15 z m 58,-122 c 18,-38 32,-71 32,-74 0,-10 -110,-60 -123,-55 -17,6 -30,98 -16,112 5,5 9,18 9,29 0,24 28,56 49,56 11,0 28,-25 49,-68 z m -133,-22 c -17,-19 -18,-26 -7,-66 7,-24 12,-50 12,-58 0,-16 -108,-41 -143,-32 -17,4 -27,1 -31,-9 -6,-16 -51,-21 -60,-6 -4,5 -10,38 -15,73 -11,78 -2,92 50,84 21,-3 41,-2 44,4 3,5 13,10 22,10 13,0 15,-9 9,-59 -4,-35 -3,-62 3,-65 15,-10 21,8 25,67 3,66 10,77 46,77 16,0 32,5 36,11 4,8 9,8 17,0 7,-7 5,-17 -8,-31 z"
     inkscape:connector-curvature="0" /><path
     id="path190"
     d="m 2896,4159 c -14,-11 -26,-25 -26,-30 0,-17 26,-9 48,14 38,40 23,51 -22,16 z"
     inkscape:connector-curvature="0" /><path
     id="path192"
     d="m 2455,3099 c -10,-15 -3,-19 41,-25 l 39,-5 -24,20 c -26,23 -46,27 -56,10 z"
     inkscape:connector-curvature="0" /><path
     id="path194"
     d="m 2616,1524 c -10,-25 -7,-74 4,-74 6,0 10,13 10,29 0,16 3,36 6,45 3,9 2,16 -4,16 -5,0 -13,-7 -16,-16 z"
     inkscape:connector-curvature="0" /><path
     id="path196"
     d="m 2680,1280 c 0,-49 12,-66 24,-34 8,21 -3,84 -15,84 -5,0 -9,-22 -9,-50 z"
     inkscape:connector-curvature="0" /><path
     id="path198"
     d="m 2285,4211 c -6,-11 9,-23 19,-14 9,9 7,23 -3,23 -6,0 -12,-4 -16,-9 z"
     inkscape:connector-curvature="0" /><path
     id="path200"
     d="m 2090,4175 c 0,-3 12,-17 27,-30 27,-23 28,-23 9,-44 -11,-12 -17,-23 -14,-26 9,-9 58,14 58,26 0,24 -42,79 -61,79 -10,0 -19,-2 -19,-5 z"
     inkscape:connector-curvature="0" /><path
     id="path202"
     d="m 1997,4141 c -39,-26 -41,-29 -28,-45 17,-20 9,-30 -45,-56 -51,-25 -178,-146 -168,-161 3,-6 29,14 57,43 63,65 145,120 167,113 10,-3 23,2 31,11 11,13 11,18 2,21 -21,7 -15,40 12,61 44,35 22,45 -28,13 z"
     inkscape:connector-curvature="0" /><path
     id="path204"
     d="m 1874,4089 c -27,-18 -72,-51 -100,-75 -28,-24 -56,-44 -63,-44 -16,0 -13,-20 4,-27 9,-3 21,1 28,9 23,29 162,136 185,143 24,7 30,25 9,25 -7,0 -35,-14 -63,-31 z"
     inkscape:connector-curvature="0" /><path
     id="path206"
     d="m 2035,4069 c -4,-6 -5,-13 -1,-16 8,-8 56,6 56,17 0,13 -47,13 -55,-1 z"
     inkscape:connector-curvature="0" /><path
     id="path208"
     d="m 4424,4025 c -4,-10 -2,-32 5,-49 83,-203 115,-396 66,-396 -20,0 -37,-28 -41,-68 -2,-20 -7,-53 -10,-73 -7,-42 6,-55 36,-39 14,7 25,8 33,2 18,-14 157,-26 157,-14 0,6 -5,12 -10,14 -6,2 -13,20 -17,41 -4,28 -1,42 11,56 25,27 11,74 -87,296 -12,28 -36,68 -52,90 -17,23 -39,63 -49,90 -23,62 -33,74 -42,50 z m 143,-302 c 14,-32 38,-86 54,-121 l 30,-63 -26,-30 c -15,-19 -25,-43 -25,-62 v -32 l -51,4 c -33,2 -52,8 -56,18 -3,8 9,48 26,88 29,65 32,82 28,137 -3,35 -8,75 -12,91 -12,46 5,30 32,-30 z"
     inkscape:connector-curvature="0" /><path
     id="path210"
     d="m 1987,3998 c -7,-20 4,-78 14,-72 12,7 12,84 0,84 -5,0 -11,-6 -14,-12 z"
     inkscape:connector-curvature="0" /><path
     id="path212"
     d="m 3289,3980 c -50,-26 -65,-46 -49,-65 10,-12 16,-13 26,-4 8,6 23,9 35,6 31,-8 89,30 89,59 0,21 -5,24 -32,24 -18,-1 -49,-9 -69,-20 z"
     inkscape:connector-curvature="0" /><path
     id="path214"
     d="m 2170,3940 c -45,-11 -126,-49 -167,-78 -18,-13 -49,-26 -68,-29 -40,-6 -47,-23 -10,-23 33,0 94,25 120,50 19,17 115,60 135,60 6,0 10,-7 10,-16 0,-9 7,-14 18,-12 10,2 17,12 17,27 0,29 -8,32 -55,21 z"
     inkscape:connector-curvature="0" /><path
     id="path216"
     d="m 2464,3898 c 3,-18 2,-49 -3,-68 -7,-30 -9,-32 -15,-15 -4,11 -12,30 -17,43 -5,13 -9,32 -9,42 0,11 -4,20 -10,20 -14,0 -12,-40 4,-103 8,-29 17,-93 21,-143 13,-158 39,-181 41,-36 0,48 4,112 8,144 10,63 0,148 -16,148 -6,0 -8,-13 -4,-32 z"
     inkscape:connector-curvature="0" /><path
     id="path218"
     d="m 1457,3787 c -105,-122 -135,-165 -171,-235 -34,-68 -86,-224 -86,-259 0,-17 -6,-48 -13,-69 -24,-69 -30,-276 -10,-387 l 16,-97 -23,-24 c -15,-17 -20,-31 -15,-43 6,-16 9,-15 29,10 12,15 25,27 29,27 4,0 7,-21 7,-47 0,-71 12,-153 21,-153 5,0 9,7 9,15 0,8 4,15 8,15 5,0 17,-35 27,-77 9,-43 26,-108 36,-145 11,-36 19,-75 19,-85 0,-10 9,-36 20,-58 11,-22 20,-44 20,-51 0,-6 11,-31 24,-56 14,-26 29,-80 36,-124 6,-44 13,-87 16,-96 4,-12 0,-18 -10,-18 -16,0 -104,129 -116,170 -4,14 -27,75 -52,135 -25,61 -57,151 -72,200 -64,211 -109,345 -117,345 -14,0 -11,-22 16,-101 14,-41 34,-103 45,-139 10,-36 33,-112 49,-170 40,-138 92,-263 142,-341 16,-25 29,-55 29,-67 0,-13 6,-22 15,-22 16,0 75,-75 75,-96 0,-7 36,-43 80,-81 117,-101 123,-105 242,-164 18,-9 118,0 118,11 0,3 -15,33 -32,66 -27,48 -33,70 -33,119 0,46 -3,60 -15,60 -29,0 -31,-74 -3,-140 36,-87 35,-91 -10,-87 -63,6 -174,81 -274,184 l -51,53 -7,95 c -4,52 -17,129 -28,170 -12,41 -22,104 -24,140 -1,36 -9,121 -17,190 -8,69 -18,250 -22,403 -4,152 -11,277 -16,277 -18,0 -2,-536 23,-753 11,-100 9,-130 -8,-114 -3,4 -12,33 -19,65 -21,93 -72,284 -88,329 -8,23 -18,62 -21,87 -4,26 -11,49 -16,52 -5,3 -9,20 -9,38 0,17 -4,36 -9,41 -40,45 -41,290 -1,480 16,73 25,85 45,59 20,-27 20,2 -1,44 -14,29 -14,36 6,91 12,33 28,62 36,65 8,3 14,12 14,21 0,22 38,95 50,95 5,0 14,-18 20,-40 12,-45 36,-57 26,-12 -22,94 -21,100 20,140 22,20 52,54 68,75 16,20 37,37 47,37 13,0 19,7 19,24 0,14 -4,27 -8,30 -5,3 -52,-45 -105,-107 z"
     inkscape:connector-curvature="0" /><path
     id="path220"
     d="m 2170,3854 c -14,-7 -33,-13 -42,-14 -16,0 -34,-17 -26,-25 7,-7 72,14 92,28 26,19 6,28 -24,11 z"
     inkscape:connector-curvature="0" /><path
     id="path222"
     d="m 1824,3826 c -4,-10 -2,-22 4,-28 8,-8 13,-7 18,6 4,10 2,22 -4,28 -8,8 -13,7 -18,-6 z"
     inkscape:connector-curvature="0" /><path
     id="path224"
     d="m 1567,3793 c -12,-11 -7,-36 10,-56 17,-18 17,-20 -22,-52 -21,-19 -42,-32 -46,-29 -4,2 -10,18 -14,34 -4,17 -11,30 -16,30 -12,0 -12,-47 1,-55 28,-17 -6,-84 -105,-210 -45,-57 -77,-163 -79,-260 l -1,-80 30,-5 c 21,-4 31,-12 33,-28 4,-26 17,-29 26,-6 4,11 13,14 30,10 14,-3 27,-2 31,3 7,13 -23,29 -72,39 -38,8 -38,8 -44,67 -7,63 -2,88 38,175 42,92 206,310 234,310 5,0 9,-9 9,-20 0,-27 16,-25 24,2 5,21 10,18 73,-42 37,-36 71,-69 75,-75 4,-5 10,-6 14,-2 5,4 -28,42 -73,85 -44,42 -88,92 -97,109 -9,18 -22,32 -29,30 -6,-1 -11,6 -9,16 3,17 -9,23 -21,10 z"
     inkscape:connector-curvature="0" /><path
     id="path226"
     d="m 1975,3781 c -7,-12 12,-24 25,-16 11,7 4,25 -10,25 -5,0 -11,-4 -15,-9 z"
     inkscape:connector-curvature="0" /><path
     id="path228"
     d="m 1886,3718 c 8,-28 12,-33 20,-25 9,8 -6,47 -17,47 -6,0 -7,-10 -3,-22 z"
     inkscape:connector-curvature="0" /><path
     id="path230"
     d="m 1830,3635 c 0,-43 4,-75 10,-75 6,0 10,32 10,75 0,43 -4,75 -10,75 -6,0 -10,-32 -10,-75 z"
     inkscape:connector-curvature="0" /><path
     id="path232"
     d="m 1920,3633 c 0,-25 15,-38 25,-22 4,6 0,18 -9,27 -15,15 -16,15 -16,-5 z"
     inkscape:connector-curvature="0" /><path
     id="path234"
     d="m 4050,3458 c 0,-84 -3,-202 -8,-263 -8,-109 -7,-135 8,-135 13,0 22,92 26,280 4,188 -1,270 -17,270 -5,0 -9,-68 -9,-152 z"
     inkscape:connector-curvature="0" /><path
     id="path236"
     d="m 1950,3550 c 0,-13 5,-20 13,-17 6,2 12,10 12,17 0,7 -6,15 -12,18 -8,2 -13,-5 -13,-18 z"
     inkscape:connector-curvature="0" /><path
     id="path238"
     d="m 1824,3525 c -7,-17 4,-37 17,-30 12,8 12,45 -1,45 -6,0 -13,-7 -16,-15 z"
     inkscape:connector-curvature="0" /><path
     id="path240"
     d="m 1310,3498 c 0,-17 18,-44 24,-37 8,7 -5,49 -15,49 -5,0 -9,-6 -9,-12 z"
     inkscape:connector-curvature="0" /><path
     id="path242"
     d="m 1640,3470 c 0,-5 5,-10 10,-10 6,0 10,5 10,10 0,6 -4,10 -10,10 -5,0 -10,-4 -10,-10 z"
     inkscape:connector-curvature="0" /><path
     id="path244"
     d="m 4212,3389 c -15,-41 -22,-89 -13,-89 15,0 42,93 31,104 -6,6 -12,1 -18,-15 z"
     inkscape:connector-curvature="0" /><path
     id="path246"
     d="m 1616,3367 c -13,-13 -33,-42 -45,-64 -24,-48 -74,-197 -92,-273 -6,-30 -17,-63 -23,-72 -7,-13 -7,-21 1,-29 15,-15 33,-3 33,24 0,12 11,67 25,122 29,114 86,237 121,260 25,16 31,39 14,50 -5,3 -21,-5 -34,-18 z"
     inkscape:connector-curvature="0" /><path
     id="path248"
     d="m 4296,3341 c -10,-11 -27,-22 -39,-25 -45,-12 -166,-246 -128,-246 7,0 31,42 55,94 37,78 51,98 89,124 45,31 63,57 48,66 -5,3 -16,-3 -25,-13 z"
     inkscape:connector-curvature="0" /><path
     id="path250"
     d="m 1660,3295 c 0,-34 32,-198 51,-262 12,-37 23,-83 26,-100 9,-59 30,-39 37,35 9,105 17,146 32,155 16,9 19,53 3,62 -14,10 -16,6 -29,-50 -21,-89 -33,-125 -42,-125 -4,0 -8,17 -8,38 0,21 -4,42 -9,47 -4,6 -16,56 -26,113 -11,56 -22,102 -27,102 -4,0 -8,-7 -8,-15 z"
     inkscape:connector-curvature="0" /><path
     id="path252"
     d="m 4641,3226 -134,-11 -16,-81 c -15,-72 -22,-88 -64,-137 -26,-31 -72,-77 -102,-103 -61,-52 -69,-68 -27,-58 61,15 148,95 202,187 12,19 24,64 28,99 7,61 8,63 37,65 47,4 177,24 192,30 18,7 16,-23 -4,-58 -17,-29 -17,-29 20,-67 50,-51 106,-77 192,-92 60,-9 76,-9 109,5 48,20 36,39 -16,25 -26,-8 -55,-6 -107,5 -134,28 -188,81 -149,145 9,15 10,25 2,37 -14,22 -7,21 -163,9 z"
     inkscape:connector-curvature="0" /><path
     id="path254"
     d="m 2195,3220 c 3,-5 10,-10 16,-10 5,0 9,5 9,10 0,6 -7,10 -16,10 -8,0 -12,-4 -9,-10 z"
     inkscape:connector-curvature="0" /><path
     id="path256"
     d="m 4295,3161 c -8,-16 -28,-39 -45,-51 -16,-12 -30,-29 -30,-37 0,-9 -7,-24 -16,-34 -9,-10 -11,-19 -5,-23 5,-4 18,5 28,20 10,14 32,42 49,62 30,35 54,74 54,86 0,17 -21,2 -35,-23 z"
     inkscape:connector-curvature="0" /><path
     id="path258"
     d="m 4385,3124 c -15,-43 -30,-66 -68,-97 -49,-42 -73,-74 -63,-84 9,-10 136,108 136,126 0,9 7,26 15,37 15,20 21,74 7,74 -4,0 -16,-25 -27,-56 z"
     inkscape:connector-curvature="0" /><path
     id="path260"
     d="m 1825,3058 c 4,-24 14,-59 22,-78 24,-58 51,-145 62,-202 13,-71 29,-111 41,-103 12,8 14,402 1,409 -13,8 -24,-145 -16,-220 8,-70 -8,-91 -19,-26 -11,58 -80,262 -89,262 -5,0 -6,-19 -2,-42 z"
     inkscape:connector-curvature="0" /><path
     id="path262"
     d="m 2073,3013 c 4,-37 11,-71 17,-77 5,-5 10,-20 10,-31 0,-12 11,-32 25,-45 29,-28 31,-37 8,-62 -13,-14 -14,-21 -5,-30 9,-9 18,-7 39,9 37,27 40,86 6,91 -29,4 -63,48 -63,81 0,40 -23,131 -34,131 -5,0 -6,-28 -3,-67 z"
     inkscape:connector-curvature="0" /><path
     id="path264"
     d="m 3310,3031 c -17,-32 -12,-61 13,-70 31,-12 83,-88 91,-136 11,-60 46,-133 73,-155 42,-33 117,-52 165,-43 41,9 43,11 41,43 -2,37 -24,60 -57,60 -12,0 -42,11 -68,24 -27,13 -48,20 -48,16 0,-17 72,-63 108,-69 45,-8 56,-37 18,-47 -33,-8 -123,22 -152,51 -13,13 -33,56 -45,96 -26,89 -61,153 -95,176 -22,14 -23,18 -11,31 31,30 84,-27 111,-119 9,-31 23,-64 31,-75 14,-18 14,-18 15,3 0,32 -39,143 -63,177 -19,27 -71,56 -101,56 -9,0 -20,-9 -26,-19 z"
     inkscape:connector-curvature="0" /><path
     id="path266"
     d="m 4013,2938 c -12,-13 -35,-45 -51,-73 -17,-27 -40,-56 -52,-63 -22,-13 -19,-32 6,-32 24,0 92,60 103,91 9,27 12,28 36,17 46,-21 59,26 19,67 -21,21 -37,19 -61,-7 z"
     inkscape:connector-curvature="0" /><path
     id="path268"
     d="m 1511,2936 c -11,-13 -11,-20 -3,-28 8,-8 13,-7 18,5 10,27 0,41 -15,23 z"
     inkscape:connector-curvature="0" /><path
     id="path270"
     d="m 1526,2868 c -25,-29 -45,-57 -43,-62 2,-5 18,-17 36,-27 18,-9 40,-24 49,-31 9,-8 34,-22 55,-32 45,-21 48,-14 -62,-130 l -75,-78 28,-23 c 33,-26 27,-49 -11,-42 -14,3 -27,-1 -29,-8 -8,-20 54,-196 90,-255 18,-30 36,-64 40,-76 9,-30 183,-197 196,-189 8,5 4,16 -13,34 -17,18 -27,46 -35,96 -6,39 -20,113 -32,165 -11,52 -24,124 -29,160 -9,71 -34,140 -51,140 -11,0 -6,-31 12,-80 5,-13 18,-76 29,-140 11,-63 29,-151 40,-194 10,-44 17,-82 14,-84 -10,-10 -87,73 -111,120 -13,26 -28,49 -33,52 -5,3 -28,49 -51,103 l -43,97 32,26 c 34,29 37,45 19,86 -12,25 -9,29 45,79 31,29 57,58 57,63 0,5 11,21 25,36 14,15 23,31 20,36 -3,4 -33,22 -67,40 -35,17 -74,39 -88,50 l -25,19 24,25 c 14,14 33,26 43,26 14,0 19,6 16,22 -5,37 -24,31 -72,-24 z"
     inkscape:connector-curvature="0" /><path
     id="path272"
     d="m 2085,2718 c 6,-65 22,-108 37,-108 5,0 7,8 4,18 -3,9 -10,47 -17,85 -14,86 -33,90 -24,5 z"
     inkscape:connector-curvature="0" /><path
     id="path274"
     d="m 2304,2723 c 4,-32 11,-132 15,-222 8,-142 7,-169 -7,-198 -12,-25 -13,-36 -4,-45 9,-9 13,-7 18,8 4,10 14,27 22,36 10,13 13,28 8,55 -4,21 -11,117 -15,213 -9,176 -14,210 -33,210 -7,0 -8,-20 -4,-57 z"
     inkscape:connector-curvature="0" /><path
     id="path276"
     d="m 4271,2766 c -10,-12 -6,-17 26,-31 77,-34 88,-41 141,-90 88,-80 182,-202 182,-236 0,-22 6,-31 23,-37 28,-9 197,-3 197,7 0,4 -39,12 -87,17 l -87,9 -32,56 c -18,30 -72,100 -121,154 -72,81 -99,104 -153,129 -36,17 -68,32 -71,34 -3,1 -11,-4 -18,-12 z"
     inkscape:connector-curvature="0" /><path
     id="path278"
     d="m 3920,2739 c 0,-6 12,-20 26,-32 15,-11 33,-36 41,-55 19,-45 50,-71 86,-72 34,0 43,21 27,61 -11,25 -18,30 -39,26 -20,-4 -33,4 -66,39 -39,42 -75,57 -75,33 z"
     inkscape:connector-curvature="0" /><path
     id="path280"
     d="m 1778,2684 c -8,-14 3,-124 13,-124 4,0 9,9 11,20 5,34 20,24 41,-27 64,-157 112,-233 148,-233 5,0 38,-20 75,-45 36,-25 70,-43 75,-39 5,3 7,9 4,14 -6,10 -124,90 -133,90 -3,0 -20,11 -39,26 -34,26 -59,69 -94,161 -11,28 -26,57 -34,63 -8,7 -15,20 -15,29 -1,20 -46,76 -52,65 z"
     inkscape:connector-curvature="0" /><path
     id="path282"
     d="m 3826,2662 c -7,-12 6,-92 15,-92 5,0 9,7 9,15 0,47 82,-20 94,-77 65,-303 116,-669 97,-692 -10,-12 -8,-17 9,-26 16,-9 21,-8 27,5 9,26 -14,278 -37,395 -11,58 -25,132 -31,165 -32,180 -56,235 -124,284 -47,33 -51,35 -59,23 z"
     inkscape:connector-curvature="0" /><path
     id="path284"
     d="m 4245,2650 c -9,-15 1,-26 47,-49 24,-12 64,-45 90,-74 26,-28 50,-48 54,-44 4,4 0,15 -9,25 -10,10 -17,26 -17,34 0,9 -24,30 -52,48 -29,18 -65,41 -80,51 -16,11 -29,15 -33,9 z"
     inkscape:connector-curvature="0" /><path
     id="path286"
     d="m 4833,2555 c 6,-77 5,-79 -25,-107 -24,-22 -27,-29 -15,-34 24,-9 56,14 63,44 12,55 13,56 36,36 11,-11 39,-43 60,-73 46,-61 46,-63 -24,-147 l -40,-48 5,-106 c 2,-58 10,-150 16,-205 10,-77 10,-118 0,-180 -6,-44 -15,-105 -18,-135 -12,-92 -47,-156 -149,-270 -52,-58 -122,-131 -156,-163 -73,-69 -217,-170 -228,-159 -4,4 6,61 23,127 27,108 30,135 29,269 0,186 -25,347 -72,482 -8,23 -8,52 2,110 24,147 24,147 9,142 -8,-3 -19,-33 -27,-74 -15,-81 -41,-174 -54,-190 -21,-27 -56,-157 -59,-219 -6,-99 14,-94 29,8 14,97 52,202 73,202 9,0 16,-15 20,-40 9,-61 28,-163 45,-235 8,-36 14,-97 14,-136 0,-83 -17,-229 -30,-262 l -10,-22 -51,27 c -51,26 -142,42 -174,29 -13,-5 -10,-12 17,-39 21,-20 47,-66 67,-117 40,-102 40,-166 -1,-207 l -26,-25 -30,22 c -36,27 -44,42 -80,145 -16,44 -32,78 -38,75 -13,-7 -9,-23 37,-153 37,-105 59,-143 59,-102 0,8 7,15 15,15 9,0 15,-9 15,-25 0,-14 3,-25 6,-25 21,0 69,50 85,88 30,68 14,153 -51,274 -25,47 -25,48 5,48 39,0 145,-57 145,-78 0,-22 -33,-116 -46,-134 -6,-7 -14,-21 -17,-30 -10,-28 21,-22 98,18 111,58 203,133 339,278 151,162 177,209 212,391 15,82 16,107 4,255 -7,91 -15,198 -17,238 l -5,72 51,66 c 51,67 60,87 41,99 -5,3 -10,16 -10,28 0,23 -76,105 -117,126 -16,8 -23,22 -25,53 -2,24 -9,43 -17,46 -12,4 -13,-9 -8,-73 z"
     inkscape:connector-curvature="0" /><path
     id="path288"
     d="m 2053,2594 c -10,-14 -39,-52 -65,-84 -27,-33 -48,-62 -48,-65 0,-3 9,-5 19,-5 13,0 39,26 73,71 48,65 53,70 65,53 30,-46 42,-58 49,-52 17,17 -39,108 -67,108 -4,0 -16,-12 -26,-26 z"
     inkscape:connector-curvature="0" /><path
     id="path290"
     d="m 3840,2540 c 0,-5 5,-10 10,-10 6,0 10,5 10,10 0,6 -4,10 -10,10 -5,0 -10,-4 -10,-10 z"
     inkscape:connector-curvature="0" /><path
     id="path292"
     d="m 4195,2539 c -6,-8 12,-32 53,-71 34,-31 62,-60 62,-62 0,-3 13,-24 29,-48 16,-24 31,-53 35,-65 8,-24 33,-49 42,-40 3,3 -6,25 -20,50 -33,56 -34,81 -3,71 12,-4 33,-15 46,-25 13,-11 30,-19 38,-19 32,0 3,25 -80,70 -51,27 -110,69 -141,99 -38,38 -56,49 -61,40 z"
     inkscape:connector-curvature="0" /><path
     id="path294"
     d="m 3620,2508 c -63,-18 -86,-20 -315,-18 -70,1 -82,-2 -97,-21 -10,-11 -18,-28 -18,-37 0,-8 -7,-23 -16,-33 -23,-25 -8,-45 17,-23 19,17 21,16 57,-19 21,-20 41,-37 45,-37 18,0 3,27 -35,62 -35,32 -40,42 -32,56 15,24 134,40 178,24 18,-7 43,-12 57,-12 27,0 155,25 211,42 28,8 41,8 51,0 21,-18 29,-1 10,20 -19,22 -29,21 -113,-4 z"
     inkscape:connector-curvature="0" /><path
     id="path296"
     d="m 1790,2500 c 0,-5 5,-10 10,-10 6,0 10,5 10,10 0,6 -4,10 -10,10 -5,0 -10,-4 -10,-10 z"
     inkscape:connector-curvature="0" /><path
     id="path298"
     d="m 2247,2482 c -21,-22 -21,-32 -4,-32 18,0 49,34 40,43 -10,11 -19,8 -36,-11 z"
     inkscape:connector-curvature="0" /><path
     id="path300"
     d="m 1244,2443 c 3,-21 9,-68 12,-105 4,-38 11,-68 15,-68 13,0 11,96 -3,157 -14,60 -33,72 -24,16 z"
     inkscape:connector-curvature="0" /><path
     id="path302"
     d="m 4101,2461 c -10,-7 -7,-25 14,-89 21,-64 24,-85 15,-101 -6,-12 -9,-25 -6,-29 2,-4 12,-52 21,-107 9,-55 21,-104 26,-109 15,-17 10,64 -10,147 -17,73 -17,81 2,78 11,-2 -1,70 -19,123 -8,21 -14,49 -14,62 0,27 -11,36 -29,25 z"
     inkscape:connector-curvature="0" /><path
     id="path304"
     d="m 4155,2460 c 3,-5 8,-10 11,-10 2,0 4,5 4,10 0,6 -5,10 -11,10 -5,0 -7,-4 -4,-10 z"
     inkscape:connector-curvature="0" /><path
     id="path306"
     d="m 2196,2378 c 16,-176 41,-318 56,-318 11,0 10,42 -2,93 -6,23 -16,96 -23,161 -8,76 -17,121 -25,124 -9,3 -10,-12 -6,-60 z"
     inkscape:connector-curvature="0" /><path
     id="path308"
     d="m 4180,2431 c 0,-5 16,-33 35,-62 34,-52 48,-94 44,-134 -4,-37 1,-65 11,-65 6,0 10,11 10,24 0,13 6,29 14,36 18,14 10,35 -52,138 -40,65 -62,88 -62,63 z"
     inkscape:connector-curvature="0" /><path
     id="path310"
     d="m 1800,2410 c 0,-5 5,-10 10,-10 6,0 10,5 10,10 0,6 -4,10 -10,10 -5,0 -10,-4 -10,-10 z"
     inkscape:connector-curvature="0" /><path
     id="path312"
     d="m 1800,2371 c 0,-6 5,-13 10,-16 6,-3 10,1 10,9 0,9 -4,16 -10,16 -5,0 -10,-4 -10,-9 z"
     inkscape:connector-curvature="0" /><path
     id="path314"
     d="m 1720,2336 c 0,-7 6,-19 14,-25 11,-9 12,-6 8,14 -5,26 -22,35 -22,11 z"
     inkscape:connector-curvature="0" /><path
     id="path316"
     d="m 1758,2275 c 4,-11 23,-49 42,-85 19,-36 40,-78 46,-94 12,-34 34,-47 34,-21 0,22 -75,158 -106,193 -19,21 -22,22 -16,7 z"
     inkscape:connector-curvature="0" /><path
     id="path318"
     d="m 4485,2110 c -3,-5 12,-27 34,-48 23,-22 41,-46 41,-54 0,-8 8,-26 19,-39 30,-39 55,-173 46,-249 -14,-122 -13,-142 13,-146 16,-3 22,1 22,15 0,11 -6,22 -12,24 -8,3 -6,6 5,6 19,1 23,16 6,26 -12,8 -7,38 23,140 12,39 24,97 27,130 5,50 9,60 24,57 28,-5 19,11 -23,41 -24,17 -40,36 -40,48 0,26 -24,20 -28,-7 -2,-11 10,-31 26,-47 l 29,-28 -13,-70 c -21,-111 -38,-117 -49,-18 -5,42 -17,77 -41,116 -36,61 -33,83 11,83 30,0 55,10 55,21 0,12 -35,11 -82,-3 -31,-9 -44,-9 -59,0 -23,15 -26,15 -34,2 z"
     inkscape:connector-curvature="0" /><path
     id="path320"
     d="m 3740,2089 c 0,-16 45,-81 102,-147 l 28,-33 v -262 c 0,-168 6,-317 16,-415 10,-100 14,-217 12,-342 l -3,-189 -44,-45 c -84,-86 -225,-139 -358,-136 -40,1 -78,-2 -84,-5 -7,-5 4,-19 27,-38 36,-30 41,-31 113,-28 42,1 80,7 86,12 5,5 18,9 30,9 11,0 29,6 40,13 45,31 115,47 163,37 26,-5 54,-11 63,-15 21,-8 74,-73 83,-103 4,-12 12,-22 17,-22 14,0 2,35 -28,87 -43,74 -147,100 -249,63 -122,-45 -180,-60 -231,-60 -29,0 -53,5 -53,10 0,10 8,11 91,14 26,1 53,6 60,12 8,6 28,14 44,18 62,15 162,72 213,123 l 52,52 v 188 c 0,103 -5,229 -10,278 -6,50 -13,209 -16,355 -8,427 -6,409 -59,468 -17,19 -47,53 -67,75 -24,27 -38,36 -38,26 z"
     inkscape:connector-curvature="0" /><path
     id="path322"
     d="m 2050,2022 c 0,-5 -16,-27 -35,-49 -19,-23 -35,-47 -35,-55 0,-7 10,-1 21,15 11,15 26,27 33,27 7,0 19,-33 30,-82 9,-46 26,-112 36,-148 11,-36 25,-96 32,-134 8,-41 19,-71 27,-74 11,-4 12,1 7,19 -9,30 -26,132 -31,181 -2,20 -11,47 -19,61 -10,14 -17,48 -18,80 -1,31 -6,55 -11,54 -17,-3 -32,73 -18,95 9,14 8,18 -4,18 -8,0 -15,-4 -15,-8 z"
     inkscape:connector-curvature="0" /><path
     id="path324"
     d="m 1940,1864 c 0,-8 5,-12 10,-9 6,3 10,10 10,16 0,5 -4,9 -10,9 -5,0 -10,-7 -10,-16 z"
     inkscape:connector-curvature="0" /><path
     id="path326"
     d="m 1306,1811 c -14,-22 -26,-45 -26,-50 0,-6 -9,-15 -20,-21 -35,-19 -26,-45 68,-190 87,-133 221,-248 391,-337 47,-25 91,-49 96,-53 43,-35 247,-81 260,-59 3,5 -7,23 -24,41 -81,90 -111,126 -111,131 0,12 88,1 105,-13 12,-10 19,-10 27,-2 9,9 6,19 -14,39 -38,42 -75,125 -48,108 12,-7 30,36 30,71 0,14 7,27 15,30 12,5 13,9 4,20 -9,11 -9,21 0,40 13,30 15,118 2,109 -6,-3 -13,-27 -16,-53 -3,-26 -10,-55 -16,-64 -5,-10 -9,-31 -9,-47 0,-42 -9,-61 -30,-61 -27,0 -32,-40 -10,-83 25,-47 26,-70 3,-63 -10,3 -35,8 -55,12 -32,5 -38,3 -38,-11 0,-16 93,-137 111,-143 20,-8 7,-22 -19,-22 -51,0 -135,37 -164,72 -16,18 -39,46 -53,61 -35,39 -55,92 -55,143 0,24 -4,44 -10,44 -15,0 -12,-107 4,-138 8,-15 23,-36 35,-46 22,-20 28,-46 11,-46 -18,0 -84,37 -101,56 -9,11 -24,41 -34,67 -17,46 -18,51 0,105 9,31 21,62 27,69 5,7 5,13 0,17 -6,3 -16,-1 -23,-10 -16,-19 -48,-114 -44,-128 21,-70 8,-86 -34,-42 -18,19 -23,36 -24,87 -1,54 4,71 27,107 15,24 25,46 22,49 -9,10 -36,-6 -43,-24 -3,-10 -14,-25 -25,-33 -16,-13 -17,-20 -9,-44 6,-15 11,-44 11,-64 v -36 l -65,64 c -60,59 -78,86 -136,197 l -22,41 25,30 c 34,41 54,90 40,104 -7,7 -18,-2 -36,-31 z"
     inkscape:connector-curvature="0" /><path
     id="path328"
     d="m 2008,1818 c 12,-12 25,-18 29,-14 4,4 -1,14 -11,22 -31,22 -43,17 -18,-8 z"
     inkscape:connector-curvature="0" /><path
     id="path330"
     d="m 4075,1760 c -16,-10 -38,-19 -48,-19 -36,-2 -43,-70 -15,-143 12,-32 68,-78 95,-78 31,0 83,38 83,60 0,20 -1,20 -33,-4 -19,-15 -40,-26 -48,-26 -28,0 -70,45 -75,80 -5,33 -2,40 42,83 53,51 52,78 -1,47 z"
     inkscape:connector-curvature="0" /><path
     id="path332"
     d="m 1412,1666 c -45,-32 -44,-30 -37,-70 9,-46 25,-47 25,-2 0,28 5,37 27,48 15,7 29,21 31,31 5,23 -6,21 -46,-7 z"
     inkscape:connector-curvature="0" /><path
     id="path334"
     d="m 3435,1390 c -11,-4 -31,-6 -44,-3 -20,5 -22,3 -17,-15 8,-23 -17,-42 -53,-42 -28,0 -26,-16 4,-36 17,-11 35,-14 60,-10 23,5 44,2 64,-9 69,-35 124,-7 99,52 -27,64 -63,84 -113,63 z m 70,-41 c 11,-16 -1,-22 -30,-15 -14,4 -23,11 -20,16 8,13 42,13 50,-1 z"
     inkscape:connector-curvature="0" /><path
     id="path336"
     d="m 2980,1197 c 0,-8 7,-17 15,-21 8,-3 15,-2 15,3 0,5 -7,14 -15,21 -12,10 -15,10 -15,-3 z"
     inkscape:connector-curvature="0" /><path
     id="path338"
     d="m 2880,1151 c 0,-5 5,-13 10,-16 6,-3 10,-2 10,4 0,5 -4,13 -10,16 -5,3 -10,2 -10,-4 z"
     inkscape:connector-curvature="0" /><path
     id="path340"
     d="m 2770,1130 c 0,-13 28,-25 38,-16 3,4 0,11 -8,16 -20,13 -30,12 -30,0 z"
     inkscape:connector-curvature="0" /><path
     id="path342"
     d="m 4051,776 c -14,-17 -6,-190 12,-246 12,-41 12,-167 -1,-183 -11,-14 -1,-58 13,-59 14,-1 27,97 21,157 -26,265 -28,307 -18,317 9,9 16,7 30,-5 22,-20 32,-22 32,-6 0,32 -68,51 -89,25 z"
     inkscape:connector-curvature="0" /></g></svg>