<?xml version="1.0" encoding="UTF-8" standalone="no"?>
<!-- Generator: Adobe Illustrator 17.0.0, SVG Export Plug-In . SVG Version: 6.00 Build 0)  -->

<svg
   xmlns:dc="http://purl.org/dc/elements/1.1/"
   xmlns:cc="http://creativecommons.org/ns#"
   xmlns:rdf="http://www.w3.org/1999/02/22-rdf-syntax-ns#"
   xmlns:svg="http://www.w3.org/2000/svg"
   xmlns="http://www.w3.org/2000/svg"
   xmlns:sodipodi="http://sodipodi.sourceforge.net/DTD/sodipodi-0.dtd"
   xmlns:inkscape="http://www.inkscape.org/namespaces/inkscape"
   version="1.1"
   id="Layer_1"
   x="0px"
   y="0px"
   width="3039px"
   height="3039px"
   viewBox="0 0 3039 3039"
   enable-background="new 0 0 3039 3039"
   xml:space="preserve"
   sodipodi:docname="vampyre.svg"
   inkscape:version="0.92.4 (5da689c313, 2019-01-14)"><metadata
   id="metadata1510"><rdf:RDF><cc:Work
       rdf:about=""><dc:format>image/svg+xml</dc:format><dc:type
         rdf:resource="http://purl.org/dc/dcmitype/StillImage" /><dc:title></dc:title></cc:Work></rdf:RDF></metadata><defs
   id="defs1508" /><sodipodi:namedview
   pagecolor="#ffffff"
   bordercolor="#666666"
   borderopacity="1"
   objecttolerance="10"
   gridtolerance="10"
   guidetolerance="10"
   inkscape:pageopacity="0"
   inkscape:pageshadow="2"
   inkscape:window-width="1020"
   inkscape:window-height="754"
   id="namedview1506"
   showgrid="false"
   inkscape:zoom="0.14610069"
   inkscape:cx="1559.5053"
   inkscape:cy="1515.4011"
   inkscape:window-x="2125"
   inkscape:window-y="53"
   inkscape:window-maximized="0"
   inkscape:current-layer="Layer_1" />
<rect
   x="0"
   y="1"
   fill="#FFFFFF"
   width="3039"
   height="3039"
   id="rect761" />

<g
   id="g1503">
	<polygon
   fill="#231F20"
   points="2757.814,2758.103 2878.444,2837.493 2772.01,2757.086 2821.15,2703.835 2729.123,2708.154    2797.828,2711.648  "
   id="polygon1497" />
	<polygon
   fill="#231F20"
   points="2790.623,2878.307 2697.924,2706.675 2790.623,2610.244 2715.65,2707.558  "
   id="polygon1499" />
	<polygon
   fill="#231F20"
   points="2633.956,2901.64 2734.99,2794.436 2618.838,2705.778 2685.719,2705.629 2590.623,2701.334    2722.879,2798.034  "
   id="polygon1501" />
</g>
<g
   transform="matrix(0,0.69554285,0.83303465,0,-156.46507,-596.69717)"
   style="fill:#000000;stroke:none"
   id="g1666"><path
     inkscape:connector-curvature="0"
     id="path128"
     d="m 1896,3655 c -20,-11 -33,-12 -40,-5 -16,16 -84,11 -125,-9 -52,-27 -101,-85 -101,-120 0,-71 43,-121 103,-121 13,0 33,-11 44,-24 29,-33 91,-43 137,-21 20,10 42,15 49,12 8,-3 20,-1 28,3 10,7 7,11 -13,19 -16,6 -28,19 -30,33 -3,22 -5,21 -21,-9 -13,-24 -26,-34 -54,-39 -39,-7 -68,4 -68,27 0,9 -17,16 -51,20 -65,8 -71,12 -89,56 -24,57 -4,96 67,133 35,18 41,19 68,5 63,-32 84,-88 55,-144 -13,-27 -11,-41 6,-41 5,0 20,17 34,37 28,43 32,92 10,127 -14,21 -14,25 0,36 24,20 42,5 50,-39 7,-45 28,-57 23,-15 -4,38 18,41 37,5 20,-40 25,-39 25,4 0,27 -4,35 -18,35 -10,0 -33,11 -52,25 -40,29 -37,29 -74,10 z" /><path
     inkscape:connector-curvature="0"
     id="path130"
     d="m 2064,3591 c 10,-11 20,-38 23,-60 7,-52 20,-53 25,-1 4,42 -7,60 -46,74 -19,7 -19,6 -2,-13 z" /><path
     inkscape:connector-curvature="0"
     id="path132"
     d="m 3255,3579 c -102,-33 -307,-80 -376,-86 -71,-6 -119,12 -119,46 0,59 -102,54 -195,-10 -33,-21 -55,-28 -110,-31 -39,-3 -84,-11 -101,-18 -37,-16 -80,-7 -87,19 -5,21 -84,65 -92,52 -8,-13 21,-44 43,-46 31,-2 91,-57 89,-80 -2,-16 -8,-20 -35,-17 -40,3 -41,-9 -2,-27 36,-15 60,-9 60,16 1,51 70,86 151,76 44,-5 53,-3 77,19 36,34 83,57 123,60 27,3 36,-2 46,-23 32,-65 88,-80 213,-56 83,16 248,59 316,82 42,14 46,14 90,-10 26,-14 53,-25 60,-25 25,0 15,17 -20,34 -18,8 -39,22 -46,31 -15,18 -11,18 -85,-6 z" /><path
     inkscape:connector-curvature="0"
     id="path134"
     d="m 2140,3580 c 0,-5 7,-10 15,-10 8,0 15,5 15,10 0,6 -7,10 -15,10 -8,0 -15,-4 -15,-10 z" /><path
     inkscape:connector-curvature="0"
     id="path136"
     d="m 1702,3558 c -21,-21 -14,-48 15,-59 22,-8 30,-6 47,10 19,20 19,21 1,41 -20,23 -45,26 -63,8 z" /><path
     inkscape:connector-curvature="0"
     id="path138"
     d="m 3440,3512 c 0,-16 -110,-42 -151,-36 -40,7 -50,-1 -25,-20 30,-23 21,-157 -14,-218 -13,-22 -13,-28 0,-28 6,0 10,6 10,13 0,7 12,28 28,46 32,39 200,105 454,177 10,3 19,-2 23,-15 3,-10 35,-43 70,-72 36,-30 65,-57 65,-61 0,-4 -20,-10 -45,-14 -76,-11 -68,-29 25,-59 70,-22 74,-25 61,-38 -6,-6 -11,-43 -11,-82 0,-41 -5,-76 -12,-83 -17,-17 -5,-23 28,-13 16,5 54,14 84,21 30,7 61,15 68,17 9,4 12,-12 13,-58 0,-35 4,-84 7,-109 7,-41 10,-45 45,-53 20,-5 42,-18 48,-28 9,-17 5,-22 -28,-37 -21,-9 -53,-28 -71,-40 l -33,-24 -76,28 c -54,20 -88,40 -114,67 -45,46 -89,130 -89,170 0,28 -2,29 -32,23 -18,-4 -50,-9 -70,-13 -56,-8 -46,-23 13,-20 l 51,2 20,-55 c 11,-30 30,-65 41,-78 18,-20 19,-24 7,-32 -15,-10 -50,-14 -82,-12 -21,2 -22,-2 -6,-28 17,-27 -1,-56 -33,-52 -50,5 -52,10 -29,48 l 21,37 -20,21 c -26,28 -55,110 -48,136 3,13 0,20 -9,20 -24,0 -28,-30 -11,-78 10,-25 15,-47 12,-50 -2,-3 -19,2 -37,9 -18,8 -40,14 -49,14 -9,0 -33,20 -53,43 -30,37 -36,51 -36,92 0,27 -4,60 -9,73 -8,21 -15,24 -48,22 -21,-2 -65,-12 -97,-24 -33,-12 -67,-21 -78,-21 -35,0 -17,-27 30,-45 26,-10 51,-21 55,-25 5,-4 -6,-30 -22,-59 -17,-29 -31,-54 -31,-57 0,-12 279,-118 288,-109 2,2 0,10 -4,17 -10,15 -6,59 6,72 5,5 19,2 34,-7 27,-18 26,-47 -2,-80 -8,-9 -13,-19 -11,-21 6,-6 189,-66 201,-66 6,0 43,-15 82,-34 86,-41 142,-55 134,-34 -3,8 0,22 8,33 8,10 14,29 14,42 0,16 6,23 18,23 31,0 31,-10 0,-71 -22,-42 -28,-63 -20,-71 12,-12 38,23 57,80 11,31 25,44 95,85 45,26 88,47 96,47 8,0 17,7 21,17 7,18 -30,52 -83,78 -25,12 -33,23 -42,67 -14,62 -13,128 1,146 19,24 -1,23 -84,-3 -45,-14 -88,-24 -96,-21 -10,4 -11,21 -7,68 4,35 11,68 16,75 18,23 -9,51 -57,59 -25,3 -45,10 -45,15 0,4 14,16 30,26 37,21 38,35 4,54 -14,7 -51,41 -82,74 -38,41 -62,59 -76,57 -53,-6 -232,-66 -369,-123 l -68,-29 3,61 3,61 55,20 c 30,11 59,24 65,29 5,5 19,9 31,9 13,0 26,5 29,10 4,6 -7,10 -24,10 -17,0 -31,-4 -31,-8 z m -24,-492 c 1,-19 2,-47 3,-61 0,-14 16,-43 34,-65 18,-21 38,-52 45,-67 10,-24 9,-29 -5,-34 -19,-8 -179,45 -195,65 -16,19 6,60 34,64 28,4 36,35 11,45 -32,12 -84,45 -79,51 11,10 112,41 131,39 16,-2 20,-10 21,-37 z m 242,-246 c 3,-24 -28,-56 -46,-45 -19,11 5,73 27,69 9,-2 17,-12 19,-24 z m 241,-35 c 21,-38 -2,-83 -47,-87 -35,-4 -41,8 -16,29 8,7 15,26 14,43 -3,45 -2,48 17,44 10,-2 24,-15 32,-29 z m -71,-10 c 4,-30 -29,-64 -54,-55 -11,4 -14,13 -10,29 3,12 6,30 6,40 0,14 6,18 28,15 21,-2 28,-9 30,-29 z m 152,-53 c 0,-43 -28,-69 -64,-60 -31,7 -33,24 -6,49 11,10 20,26 20,35 0,24 10,31 31,19 13,-6 19,-21 19,-43 z" /><path
     inkscape:connector-curvature="0"
     id="path140"
     d="m 2617,3463 c -4,-3 -1,-13 7,-22 23,-27 2,-57 -65,-90 -34,-18 -63,-30 -66,-27 -2,2 5,23 17,46 12,23 19,45 16,48 -9,8 -21,-7 -51,-63 l -26,-49 23,-19 c 13,-10 40,-27 61,-38 41,-21 42,-29 11,-93 -26,-55 -20,-66 105,-171 l 119,-100 -5,-70 c -7,-99 -7,-100 -43,-75 -51,37 -265,236 -305,286 l -39,47 17,65 c 19,73 17,79 -45,118 -25,16 -38,32 -38,47 -1,21 -1,22 -15,3 -26,-34 -18,-51 36,-74 45,-18 51,-24 46,-44 -3,-13 -10,-39 -14,-58 -8,-31 -14,-35 -51,-43 -55,-11 -54,-27 2,-27 49,0 71,-18 63,-50 -3,-12 1,-33 9,-48 8,-15 14,-32 14,-38 0,-26 145,-227 215,-299 72,-73 76,-80 70,-112 -5,-29 -10,-33 -36,-33 -17,0 -39,5 -50,10 -21,12 -26,-2 -6,-18 6,-5 41,-17 76,-26 36,-9 70,-21 77,-27 9,-7 18,-7 31,1 15,10 38,5 118,-23 332,-116 430,-148 444,-145 14,3 61,62 61,77 0,3 -48,24 -108,45 -59,22 -111,43 -115,46 -5,4 -4,23 1,41 7,30 13,34 40,34 29,0 35,6 66,67 38,73 36,80 -21,93 -21,4 -33,3 -33,-4 0,-6 7,-11 15,-11 25,0 26,-21 6,-75 l -19,-50 -64,3 -63,3 24,-19 c 22,-17 23,-22 13,-52 -7,-18 -9,-36 -6,-41 3,-5 28,-16 57,-24 53,-15 164,-58 172,-67 3,-2 -5,-14 -18,-26 l -23,-22 -74,24 c -41,12 -97,32 -125,43 -27,12 -77,31 -110,43 -33,12 -67,25 -75,30 -9,4 -31,11 -50,15 -19,4 -50,14 -68,22 -25,12 -35,13 -47,3 -23,-19 -71,9 -67,40 8,58 11,59 330,23 30,-3 52,-2 52,4 0,8 -129,27 -331,48 -51,6 -63,12 -118,61 -33,30 -74,74 -90,97 -50,72 -144,237 -138,244 9,9 71,-40 167,-132 156,-148 170,-159 188,-142 8,9 17,43 21,79 l 6,63 70,3 c 42,2 101,-3 148,-14 l 78,-18 -7,-52 -6,-53 38,-16 c 53,-22 84,-29 84,-18 0,5 -19,15 -42,23 -35,12 -44,20 -46,43 -2,16 5,40 14,55 10,15 19,42 21,61 1,18 9,41 18,50 22,25 19,30 -20,47 -40,16 -44,33 -14,53 l 22,13 -28,22 -28,22 17,85 c 9,46 21,96 25,111 5,15 6,56 4,91 -5,58 -8,66 -28,70 -25,4 -154,-33 -155,-45 0,-13 35,-9 95,12 32,11 59,20 60,20 12,0 -15,-218 -34,-280 -15,-49 -14,-76 5,-95 15,-15 15,-17 -1,-35 -21,-23 -13,-38 31,-56 19,-8 34,-18 34,-23 0,-16 -32,-73 -44,-77 -7,-3 -41,2 -77,11 -35,8 -93,15 -130,15 h -65 l -88,75 c -48,42 -105,87 -127,100 -21,14 -39,29 -39,34 0,9 45,16 166,27 l 71,7 48,-57 c 47,-54 112,-103 123,-92 2,3 -32,42 -78,86 l -82,81 21,44 c 28,60 27,74 -12,90 -29,12 -57,49 -57,75 0,5 11,22 25,39 28,32 41,32 84,-1 25,-19 51,-24 51,-9 0,12 -84,61 -103,61 -15,0 -50,-37 -73,-76 -11,-18 -13,-18 -55,5 -61,33 -62,34 -47,66 11,24 10,29 -7,41 -21,16 -29,17 -38,7 z m 62,-129 c 28,-15 51,-31 51,-35 0,-11 -83,-49 -107,-49 -28,0 -103,32 -103,44 1,6 24,23 53,37 29,14 53,27 54,28 0,0 24,-11 52,-25 z m 103,-70 c 12,-14 31,-29 43,-34 22,-8 22,-10 8,-54 -13,-38 -20,-46 -42,-47 -14,-1 -37,-3 -51,-4 -14,-2 -55,-6 -92,-10 -88,-10 -102,-5 -83,32 8,15 15,36 15,46 0,11 14,23 38,33 20,8 57,25 82,39 57,30 58,30 82,-1 z" /><path
     inkscape:connector-curvature="0"
     id="path142"
     d="m 2570,3445 c -8,-9 -8,-15 -2,-15 12,0 26,19 19,26 -2,2 -10,-2 -17,-11 z" /><path
     inkscape:connector-curvature="0"
     id="path144"
     d="m 2184,3420 c -10,-49 -70,-75 -113,-48 -10,6 -26,8 -37,3 -17,-7 -16,-9 11,-21 17,-7 55,-16 85,-20 30,-3 58,-8 62,-10 4,-3 0,-20 -8,-39 -20,-49 -18,-60 21,-104 l 36,-39 -21,-35 c -19,-32 -20,-38 -6,-109 18,-92 64,-215 111,-293 46,-75 115,-156 150,-175 25,-13 28,-13 45,10 18,24 18,24 40,5 21,-19 22,-19 19,-1 -6,30 -34,42 -63,27 -23,-13 -28,-11 -64,18 -75,59 -167,222 -204,359 -17,64 -19,88 -11,102 7,11 8,21 2,27 -17,17 20,73 52,80 16,3 29,10 29,15 0,6 -11,7 -25,4 -26,-7 -85,17 -85,33 0,5 9,11 20,14 11,3 20,10 20,16 0,7 -10,9 -27,5 -29,-8 -28,-15 -6,84 5,18 1,22 -21,22 -33,0 -34,17 -1,32 16,7 24,17 20,26 -3,7 -5,20 -5,28 0,26 -20,14 -26,-16 z" /><path
     inkscape:connector-curvature="0"
     id="path146"
     d="m 2005,3410 c -3,-5 -1,-10 4,-10 6,0 11,5 11,10 0,6 -2,10 -4,10 -3,0 -8,-4 -11,-10 z" /><path
     inkscape:connector-curvature="0"
     id="path148"
     d="m 2260,3349 c 0,-5 5,-7 10,-4 6,3 10,8 10,11 0,2 -4,4 -10,4 -5,0 -10,-5 -10,-11 z" /><path
     inkscape:connector-curvature="0"
     id="path150"
     d="m 1909,3213 c 0,-5 -2,-39 -2,-77 l -2,-70 -40,-7 c -102,-20 -185,-43 -185,-53 0,-6 21,-23 45,-38 39,-23 45,-32 45,-60 0,-35 37,-119 67,-154 21,-24 77,-49 91,-40 5,3 7,17 4,31 -5,29 -1,30 40,9 31,-16 61,-16 144,2 31,6 33,4 64,-57 18,-35 45,-83 60,-106 30,-44 29,-59 -2,-42 -14,7 -23,8 -30,1 -13,-13 -2,-32 17,-32 12,0 101,-25 216,-60 14,-4 36,-13 49,-20 12,-6 104,-40 203,-75 298,-103 387,-137 387,-146 0,-5 -26,-25 -57,-45 -32,-20 -77,-49 -99,-65 -39,-27 -42,-27 -57,-11 -8,9 -24,35 -36,57 -11,22 -40,67 -63,99 -41,56 -47,60 -118,82 -41,13 -83,24 -92,24 -10,0 -36,-25 -58,-55 -56,-76 -78,-75 -120,8 -18,34 -50,82 -71,106 -22,24 -39,50 -39,57 0,8 -4,14 -10,14 -5,0 -10,-4 -10,-9 0,-6 5,-13 10,-16 6,-3 10,-13 10,-20 0,-14 79,-144 119,-196 24,-32 19,-39 -28,-39 -89,0 -153,39 -210,129 -39,60 -39,80 -1,116 35,33 37,43 13,52 -55,19 -69,70 -31,110 20,21 21,25 6,39 -13,14 -22,14 -51,5 -20,-7 -42,-23 -51,-36 -15,-23 -17,-23 -51,-10 -65,28 -145,12 -102,-20 27,-19 20,-26 -20,-19 -26,4 -54,-1 -88,-14 -58,-23 -66,-46 -17,-50 42,-4 41,-15 -3,-31 -42,-15 -74,-57 -77,-102 -3,-29 1,-34 20,-37 12,-2 22,1 22,5 0,26 30,45 83,52 64,9 76,2 47,-24 -22,-20 -26,-55 -8,-73 7,-7 29,-12 50,-12 32,0 40,4 48,25 11,28 51,51 74,42 20,-8 14,-62 -13,-115 -30,-58 -75,-107 -141,-152 -69,-47 -135,-119 -152,-167 -10,-28 -16,-33 -35,-28 -12,3 -25,1 -28,-5 -9,-15 -79,-44 -178,-74 -157,-49 -228,-133 -229,-272 -1,-63 37,-133 93,-174 62,-45 199,-50 199,-8 0,6 7,19 16,29 12,14 22,15 50,7 45,-12 59,-7 59,22 0,17 7,26 24,30 61,14 25,45 -107,91 -48,17 -113,42 -146,56 -32,13 -64,22 -71,19 -23,-9 -69,-97 -59,-113 14,-23 145,-74 159,-63 7,6 20,28 30,50 10,22 24,40 31,40 26,0 124,-43 124,-55 0,-6 -9,-20 -19,-29 -15,-14 -24,-15 -40,-7 -33,18 -41,13 -62,-34 l -20,-45 h -53 c -64,0 -107,25 -149,88 -50,75 -38,182 29,261 32,38 61,52 183,87 47,14 99,34 116,44 29,17 31,17 64,-1 39,-21 60,-15 37,10 -13,15 -12,22 12,68 20,38 52,72 117,126 112,92 172,159 184,206 17,67 23,139 12,145 -23,15 -86,-8 -127,-46 -44,-40 -64,-43 -64,-8 0,22 36,50 63,50 12,0 17,6 15,18 -3,15 -15,17 -90,17 -76,0 -89,-3 -110,-23 -31,-29 -43,-17 -18,18 27,37 118,66 162,51 41,-15 58,-14 58,2 0,8 -30,24 -70,38 -38,13 -70,27 -70,31 0,5 20,8 44,8 30,0 55,-8 80,-25 31,-21 38,-23 43,-9 3,8 -4,28 -16,44 -25,35 -26,40 -5,40 8,0 29,-13 46,-30 37,-37 44,-37 53,-3 16,64 42,69 41,9 -1,-33 5,-50 22,-68 26,-28 28,-46 7,-54 -8,-4 -15,-18 -15,-34 0,-81 102,-208 184,-229 66,-16 112,-14 133,8 10,10 28,22 40,25 20,6 55,42 95,98 13,18 19,21 29,11 7,-7 20,-13 29,-13 9,0 21,-5 27,-11 24,-24 -54,-127 -125,-167 -26,-14 -52,-2 -52,24 0,8 -4,14 -9,14 -6,0 -7,-15 -4,-34 5,-32 4,-33 -33,-39 -22,-4 -84,-7 -139,-7 -105,0 -250,-21 -288,-41 -43,-24 -157,-134 -157,-153 0,-30 86,-104 129,-112 59,-9 66,-13 53,-26 -14,-14 -16,-64 -3,-72 5,-4 12,8 16,25 8,34 74,89 108,89 11,0 29,8 39,17 16,14 24,15 49,6 38,-15 58,-7 70,24 9,23 13,25 54,19 37,-6 45,-4 55,13 5,11 9,26 8,33 -2,9 9,13 35,12 39,-1 45,4 25,24 -9,9 -9,15 -1,23 16,16 36,1 30,-22 -7,-25 5,-24 28,1 29,32 79,36 130,10 48,-25 65,-22 112,18 l 32,27 -35,73 c -32,67 -56,93 -71,79 -6,-7 -3,-15 36,-82 35,-59 37,-73 14,-91 -25,-18 -47,-17 -73,4 l -22,18 22,37 c 30,50 21,68 -10,21 -32,-49 -116,-82 -161,-63 -35,14 -59,6 -59,-20 0,-26 -42,-38 -76,-22 -36,16 -65,-2 -62,-37 3,-24 0,-27 -22,-24 -70,8 -73,7 -90,-23 -13,-24 -31,-35 -84,-52 -59,-19 -76,-21 -124,-12 -56,11 -122,52 -122,77 0,16 100,110 139,131 40,22 101,31 276,40 133,6 169,12 215,31 66,28 143,98 171,157 l 21,43 29,-15 c 16,-9 29,-24 29,-34 0,-10 9,-26 19,-35 11,-10 39,-51 63,-92 44,-76 56,-85 78,-59 7,8 17,15 22,15 5,0 28,13 51,28 23,16 59,39 80,51 l 39,24 -7,-45 c -4,-25 -17,-81 -29,-124 -20,-72 -24,-79 -47,-77 -13,1 -35,0 -48,-3 -20,-4 -22,-9 -17,-39 l 7,-35 h -41 c -24,0 -62,11 -92,26 -69,35 -135,44 -208,29 -76,-16 -95,-29 -199,-135 -60,-61 -100,-93 -133,-106 -27,-10 -48,-22 -48,-26 0,-5 38,-8 83,-8 46,0 87,-3 90,-7 4,-3 -2,-16 -13,-28 -23,-24 -39,-95 -22,-95 6,0 31,9 57,20 41,18 60,19 160,14 130,-8 170,1 276,62 35,20 84,48 109,61 25,14 60,34 78,45 42,26 94,20 149,-17 31,-19 51,-26 79,-23 37,3 39,5 42,39 3,31 -2,40 -27,58 -16,12 -42,21 -58,21 -53,0 -164,-39 -244,-85 -54,-31 -84,-43 -92,-37 -7,5 -42,13 -79,17 -78,8 -78,8 -77,-2 2,-10 76,-33 107,-33 12,0 22,-3 22,-7 0,-23 -157,-83 -215,-83 -48,0 -125,12 -125,19 0,4 26,21 58,38 83,46 109,68 52,44 -75,-31 -208,-102 -221,-117 -15,-18 -39,-18 -39,0 0,8 11,28 25,44 33,39 33,70 0,78 -14,3 -32,4 -40,0 -26,-10 -17,4 65,93 133,146 237,174 375,100 87,-46 187,-35 172,19 -6,27 9,38 28,22 12,-10 20,-9 37,2 18,12 28,42 55,173 18,87 32,159 30,160 -6,5 -239,90 -292,107 -33,11 -73,26 -90,33 -16,7 -70,27 -120,43 -118,39 -177,60 -248,89 -32,12 -65,23 -73,23 -8,0 -14,7 -14,15 0,8 -20,46 -45,85 -25,39 -54,90 -66,115 l -21,44 -46,-6 c -73,-10 -87,-9 -87,7 0,10 17,17 53,23 58,10 59,11 32,82 -10,27 -20,31 -37,14 -5,-5 -30,-9 -54,-7 -36,2 -44,7 -44,23 0,17 10,21 58,29 31,4 57,12 57,17 0,6 -7,26 -15,46 -15,35 -15,36 -63,29 -41,-5 -52,-3 -67,14 -19,21 -14,26 34,32 41,5 36,26 -6,30 -27,2 -39,8 -41,21 -4,22 8,22 61,-2 62,-27 123,-44 138,-38 10,3 8,7 -6,12 -68,24 -141,58 -169,80 -34,26 -45,30 -47,18 z m 21,-209 c 0,-31 48,-194 63,-212 17,-21 0,-25 -31,-6 -37,21 -62,13 -62,-21 0,-36 -15,-31 -48,18 -35,51 -56,110 -47,136 5,16 -3,26 -34,46 -23,14 -41,30 -41,35 0,6 21,11 48,11 26,1 61,5 77,9 60,15 75,12 75,-16 z m 130,2 c 0,-21 -6,-25 -41,-31 -44,-8 -66,3 -56,29 5,13 28,20 80,25 12,1 17,-6 17,-23 z m 38,-153 c 3,-21 0,-23 -47,-23 -51,0 -67,10 -57,36 4,11 18,14 53,12 41,-3 48,-6 51,-25 z m 271,-927 c 9,-10 9,-16 1,-21 -16,-10 -40,2 -40,20 0,19 24,20 39,1 z m -120,-49 c 6,-8 8,-17 5,-20 -10,-9 -45,13 -39,24 9,13 21,11 34,-4 z m 1031,-134 c 41,-52 1,-70 -63,-27 -23,16 -44,30 -47,32 -10,7 27,22 57,22 22,0 38,-8 53,-27 z M 1380,1546 c 0,-13 10,-31 22,-42 21,-19 21,-19 13,1 -12,29 -18,75 -11,75 15,0 66,-31 66,-40 0,-24 -25,-59 -44,-62 -26,-4 -96,29 -96,46 0,19 31,57 41,51 5,-4 9,-16 9,-29 z" /><path
     inkscape:connector-curvature="0"
     id="path152"
     d="m 3020,2912 c 0,-5 14,-18 30,-30 35,-27 40,-15 7,16 -24,23 -37,28 -37,14 z" /><path
     inkscape:connector-curvature="0"
     id="path154"
     d="m 1300,2873 c 1,-21 110,-208 121,-209 8,-1 18,-2 23,-3 5,0 2,-9 -7,-19 -16,-17 -15,-22 14,-75 17,-31 35,-57 40,-57 14,0 11,8 -18,61 l -27,48 22,24 c 31,33 28,47 -12,47 -32,0 -37,5 -71,66 -38,69 -39,82 -8,65 50,-27 196,-82 260,-98 40,-10 73,-21 73,-24 0,-3 -18,-11 -40,-18 -27,-8 -47,-22 -59,-42 -10,-17 -28,-37 -40,-45 -29,-21 -26,-48 9,-99 31,-45 37,-69 20,-80 -21,-13 -10,-66 20,-97 17,-16 30,-37 30,-45 0,-18 86,-179 100,-188 20,-12 9,24 -31,99 -22,43 -38,84 -35,94 4,12 -6,26 -30,45 -36,30 -38,38 -18,108 2,9 -11,40 -31,69 -19,28 -32,56 -29,61 7,12 38,11 51,-2 17,-17 26,7 12,29 -7,11 -10,26 -6,35 8,22 99,49 140,42 20,-4 37,-2 41,3 10,17 -83,72 -120,72 -16,0 -340,115 -366,130 -21,12 -28,13 -28,3 z" /><path
     inkscape:connector-curvature="0"
     id="path156"
     d="m 3464,2573 c -3,-10 -15,-39 -27,-66 l -21,-47 35,-30 c 19,-16 57,-34 87,-41 28,-7 52,-15 52,-19 0,-14 -329,-331 -356,-343 -46,-20 -105,-59 -102,-66 42,-81 42,-82 63,-76 179,57 430,-57 481,-218 49,-156 -67,-287 -255,-287 -91,0 -151,16 -286,78 -92,42 -107,46 -180,46 -66,0 -90,-4 -138,-27 -112,-51 -166,-112 -180,-199 l -6,-37 50,-10 c 28,-6 65,-11 83,-11 19,0 38,-6 43,-12 22,-28 43,-198 26,-198 -35,0 -158,31 -182,46 -17,11 -66,40 -108,66 -102,62 -178,121 -172,133 2,6 27,10 54,10 43,0 50,3 52,20 5,40 -28,62 -104,70 -39,4 -73,3 -76,-2 -2,-4 -7,-25 -11,-45 -6,-31 -4,-38 9,-38 11,0 15,10 15,35 0,41 14,44 89,21 63,-18 68,-40 8,-31 -42,6 -47,5 -63,-20 -18,-27 -18,-28 11,-52 34,-27 98,-70 248,-165 80,-51 110,-75 121,-100 19,-45 45,-78 45,-58 0,8 -6,24 -14,34 -26,34 -5,35 58,2 l 62,-32 -1,-53 c -2,-62 18,-66 26,-5 3,21 10,39 15,39 6,-1 42,-11 80,-22 39,-12 106,-30 150,-39 44,-9 84,-20 88,-24 4,-4 -16,-25 -45,-47 -29,-23 -72,-59 -95,-82 -23,-23 -46,-41 -51,-41 -5,0 -31,38 -58,85 -46,80 -64,100 -64,73 0,-6 16,-39 35,-74 19,-34 35,-65 35,-69 0,-4 -19,-6 -42,-4 -24,1 -60,-1 -82,-6 -31,-6 -40,-5 -48,9 -5,9 -13,16 -18,16 -20,0 -9,-16 26,-39 30,-21 39,-23 55,-13 27,17 68,14 116,-8 l 42,-19 18,23 c 22,27 104,98 167,145 26,19 44,36 42,39 -3,2 -1,13 5,23 8,16 6,19 -17,19 -25,0 -150,27 -239,51 -37,10 -128,47 -217,87 -44,20 -50,36 -10,25 15,-4 38,-7 52,-8 24,0 25,2 23,60 -2,74 -22,183 -34,191 -5,3 -44,11 -87,17 -85,13 -94,23 -71,79 16,39 114,111 181,134 76,25 166,15 270,-32 176,-77 269,-96 381,-74 51,9 75,21 120,57 64,52 86,92 94,166 4,43 0,63 -25,117 -66,147 -250,242 -434,226 -62,-6 -68,-4 -79,16 -10,18 -9,24 2,30 101,58 289,174 305,189 27,25 33,17 24,-31 -4,-21 -3,-45 1,-52 5,-7 9,-28 9,-46 0,-18 4,-40 9,-50 6,-9 20,-39 33,-65 15,-33 43,-65 84,-98 34,-28 66,-61 73,-75 l 11,-24 37,20 c 21,11 43,20 50,20 11,0 49,-59 41,-64 -2,-1 -19,-9 -39,-18 -32,-14 -37,-22 -47,-70 -12,-62 -7,-76 18,-53 25,23 53,12 92,-36 28,-35 36,-40 63,-35 30,6 31,4 89,-109 33,-63 63,-115 67,-115 4,0 16,12 27,28 14,17 24,24 30,17 13,-14 46,-104 40,-110 -3,-3 -54,-8 -114,-11 -60,-3 -112,-8 -116,-12 -4,-4 3,-35 15,-70 l 22,-63 -33,-27 c -37,-31 -44,-78 -14,-105 20,-18 72,-23 72,-7 0,6 -8,10 -18,10 -25,0 -56,35 -48,55 3,8 17,20 30,25 31,11 42,48 28,98 -5,20 -11,44 -13,52 -6,23 160,27 204,5 37,-19 59,-5 35,22 -8,10 -22,36 -31,58 -8,22 -25,62 -36,89 l -22,49 -30,-29 c -25,-24 -32,-26 -40,-14 -13,20 -73,135 -125,241 -23,47 -57,110 -76,140 -18,29 -40,67 -48,82 -8,16 -22,33 -31,37 -9,5 -31,32 -49,60 -31,49 -32,49 -49,29 -12,-15 -29,-21 -66,-22 -47,-2 -50,-1 -50,23 0,23 5,26 58,34 65,10 75,34 11,27 -84,-10 -99,-7 -102,15 -3,19 3,22 50,28 34,5 54,4 56,-3 2,-6 7,-11 12,-11 8,0 -1,48 -18,91 -6,14 -12,50 -14,80 l -3,54 50,-1 c 28,-1 60,-5 73,-9 16,-5 22,-3 22,8 0,21 -25,28 -114,29 -87,1 -122,-11 -189,-64 -27,-21 -54,-38 -60,-38 -10,0 104,125 171,187 44,41 37,58 -28,67 -33,4 -64,16 -85,33 l -32,26 19,38 c 10,21 18,43 18,49 0,16 26,12 118,-20 152,-54 193,-72 182,-85 -14,-17 -29,-134 -20,-164 8,-31 15,-16 26,55 4,27 16,66 27,87 11,21 16,41 13,45 -17,16 -318,122 -348,122 -10,0 -21,-8 -24,-17 z m 154,-395 c 3,-45 2,-46 -32,-58 -38,-12 -56,-7 -56,15 0,9 9,14 23,12 14,-1 22,3 22,13 0,9 -7,14 -17,12 -28,-5 -21,25 10,41 39,21 47,16 50,-35 z m 23,-95 c 12,-33 5,-40 -51,-45 -42,-3 -45,-1 -45,22 0,23 8,28 83,49 1,1 7,-11 13,-26 z m 104,-223 c 17,-18 17,-20 0,-26 -9,-4 -33,-7 -53,-8 -49,-1 -56,27 -10,41 45,15 43,15 63,-7 z m 45,-65 c 19,-22 -35,-41 -68,-23 -22,11 -22,13 -6,25 24,17 59,16 74,-2 z m 98,-137 c 17,-17 -34,-74 -62,-69 -46,7 -48,47 -3,66 40,18 50,18 65,3 z m 47,-87 c 18,-40 14,-61 -10,-61 -18,0 -46,65 -39,85 10,26 30,16 49,-24 z" /><path
     inkscape:connector-curvature="0"
     id="path158"
     d="m 4250,2532 c 0,-10 4,-22 9,-27 11,-13 30,-93 24,-99 -3,-3 -18,1 -34,9 -30,16 -69,20 -69,8 0,-5 7,-27 15,-51 9,-24 13,-47 10,-52 -5,-8 -173,58 -297,118 -16,8 -6,-22 41,-122 27,-56 52,-117 56,-134 12,-56 55,-69 55,-16 0,13 9,33 19,43 18,18 19,20 2,35 -25,23 -31,20 -31,-13 0,-35 -17,-50 -26,-24 -4,10 -22,53 -41,97 -33,77 -36,99 -11,79 7,-5 31,-17 53,-25 22,-9 70,-30 107,-47 99,-46 120,-39 99,35 -6,20 -8,40 -6,44 3,4 25,1 50,-8 25,-8 48,-13 50,-10 2,2 -3,30 -11,62 -8,32 -13,60 -11,62 2,2 25,-7 50,-22 35,-19 47,-32 47,-49 0,-13 10,-48 21,-79 12,-31 19,-59 15,-63 -3,-4 -20,4 -37,16 -43,32 -52,18 -44,-63 6,-49 11,-66 22,-66 13,0 14,9 9,48 -3,27 -4,51 0,54 3,3 23,-1 45,-10 21,-8 42,-12 46,-9 3,4 -3,37 -15,75 -12,37 -26,85 -32,108 -9,38 -15,44 -84,77 -84,42 -96,44 -96,19 z" /><path
     inkscape:connector-curvature="0"
     id="path160"
     d="m 1273,2488 c -43,-48 -35,-102 24,-148 34,-27 63,-22 83,13 15,27 14,28 -17,53 -39,30 -41,46 -11,66 28,19 16,38 -26,38 -21,0 -40,-8 -53,-22 z m 22,-37 c -4,-14 4,-28 34,-52 42,-33 45,-49 10,-49 -44,0 -90,85 -62,113 13,14 24,6 18,-12 z" /><path
     inkscape:connector-curvature="0"
     id="path162"
     d="m 1400,2446 c 0,-22 21,-33 76,-41 39,-5 53,-3 63,9 17,20 5,42 -14,26 -10,-8 -27,-7 -66,4 -63,19 -59,19 -59,2 z" /><path
     inkscape:connector-curvature="0"
     id="path164"
     d="m 1441,2358 c 0,-7 19,-53 43,-101 41,-86 45,-105 16,-86 -22,13 -60,11 -60,-4 0,-21 11,-27 31,-17 12,7 20,7 24,0 3,-5 15,-10 25,-10 15,0 32,-26 70,-107 27,-58 53,-103 57,-100 3,4 -8,37 -24,74 -17,38 -50,111 -72,163 -23,52 -47,104 -53,115 -6,11 -18,32 -25,47 -16,32 -33,45 -32,26 z" /><path
     inkscape:connector-curvature="0"
     id="path166"
     d="m 4138,2231 c -12,-14 -13,-22 -5,-30 14,-14 37,-14 37,-1 0,18 20,11 20,-7 1,-21 67,-66 86,-59 7,3 14,17 16,33 2,21 8,27 23,26 11,-1 14,0 8,3 -7,3 -13,12 -13,19 0,8 -5,17 -10,20 -15,9 -40,-14 -40,-36 0,-31 -29,-22 -51,16 -23,39 -47,44 -71,16 z" /><path
     inkscape:connector-curvature="0"
     id="path168"
     d="m 1304,2166 c -41,-18 -84,-75 -84,-111 0,-102 157,-198 221,-134 26,26 21,38 -25,62 -21,11 -40,26 -43,33 -7,18 -23,18 -23,1 0,-20 33,-47 58,-47 25,0 26,-3 12,-31 -22,-41 -102,-14 -145,48 -29,44 -31,68 -9,112 17,33 67,61 113,61 14,0 33,5 41,10 24,15 -80,12 -116,-4 z" /><path
     inkscape:connector-curvature="0"
     id="path170"
     d="m 1379,2119 c -29,-31 -38,-59 -19,-59 6,0 10,9 10,20 0,13 12,28 30,38 30,17 39,32 19,32 -6,0 -24,-14 -40,-31 z" /><path
     inkscape:connector-curvature="0"
     id="path172"
     d="m 4038,2050 c -24,-34 -38,-36 -94,-17 -22,8 -53,17 -71,20 -29,6 -32,4 -38,-26 -4,-18 -14,-39 -21,-48 -12,-13 -12,-18 -2,-26 19,-15 104,-50 173,-71 l 59,-18 -3,-49 c -4,-72 -12,-78 -74,-50 -60,27 -128,43 -112,27 10,-10 64,-34 167,-72 51,-19 66,-13 47,18 -9,14 -9,30 -2,61 7,25 7,43 1,47 -5,3 -5,11 2,19 14,17 13,17 -92,50 -49,15 -96,34 -107,43 -19,17 -38,72 -24,72 14,0 133,-39 153,-50 17,-9 23,-5 46,30 30,45 29,45 144,3 36,-12 72,-23 80,-23 9,0 22,-6 28,-12 10,-10 6,-18 -20,-39 -41,-34 -33,-46 59,-88 80,-38 178,-115 197,-156 68,-145 81,-192 49,-181 -35,11 -178,63 -195,70 -34,15 -36,-5 -7,-64 16,-33 29,-63 29,-66 0,-3 6,-20 14,-37 24,-54 56,-156 56,-180 0,-25 -78,-111 -157,-174 -28,-22 -104,-66 -168,-99 -83,-42 -111,-60 -95,-62 51,-8 267,118 358,208 58,58 163,184 179,215 18,34 36,154 31,203 -3,26 -24,86 -47,135 -39,80 -48,92 -114,140 -40,29 -94,64 -122,77 -27,14 -52,26 -54,28 -3,1 12,16 33,33 20,17 35,36 34,41 -3,9 -39,22 -183,67 -109,34 -112,34 -137,1 z m 421,-522 c 59,-19 141,-58 141,-67 0,-48 -27,-126 -56,-158 -37,-44 -44,-40 -67,32 -8,28 -27,81 -41,120 -35,96 -36,93 23,73 z" /><path
     inkscape:connector-curvature="0"
     id="path176"
     d="m 2630,1831 c 0,-5 16,-42 35,-82 23,-49 36,-67 41,-56 3,9 -10,44 -31,81 -36,64 -45,76 -45,57 z" /><path
     inkscape:connector-curvature="0"
     id="path178"
     d="m 3360,1801 c 0,-27 26,-70 60,-101 52,-46 61,-82 26,-105 -19,-13 -39,-16 -71,-13 -44,5 -75,-11 -75,-40 0,-25 58,-52 111,-52 116,0 196,97 160,193 -15,38 -91,106 -131,117 -44,12 -80,13 -80,1 z m 131,-69 c 77,-77 76,-136 -3,-195 -49,-36 -152,-29 -166,11 -3,10 9,12 56,6 59,-6 62,-5 92,24 46,46 38,80 -33,143 -25,21 -38,40 -33,47 14,22 39,12 87,-36 z" /><path
     inkscape:connector-curvature="0"
     id="path180"
     d="m 1688,1731 c -34,-11 -56,-27 -75,-54 -26,-36 -50,-45 -87,-31 -25,10 -19,33 12,40 43,9 82,26 82,35 0,15 -22,21 -33,10 -6,-6 -21,-11 -33,-11 -26,0 -84,-45 -84,-65 0,-7 21,-21 48,-30 26,-10 61,-23 77,-30 17,-8 44,-17 60,-21 17,-4 42,-14 57,-22 26,-15 28,-15 52,11 32,35 50,35 42,1 -8,-29 8,-47 57,-65 39,-15 35,-45 -8,-66 -39,-19 -45,-33 -14,-33 33,0 60,19 75,55 13,32 17,34 79,40 95,11 107,2 59,-40 -67,-59 -228,-129 -256,-111 -20,12 -48,-8 -48,-34 0,-16 29,-50 44,-50 4,0 22,16 39,35 23,25 49,40 85,49 36,10 77,34 138,82 l 86,67 -23,19 c -21,17 -34,18 -104,13 -140,-12 -190,-3 -183,33 3,14 42,41 83,56 6,2 7,7 3,11 -10,11 -151,-14 -169,-31 -14,-13 -24,-13 -69,-2 -73,19 -85,40 -43,78 18,16 49,32 70,35 63,11 67,13 53,30 -14,17 -11,17 -72,-4 z m 127,-420 c 7,-12 -12,-24 -25,-16 -11,7 -4,25 10,25 5,0 11,-4 15,-9 z" /><path
     inkscape:connector-curvature="0"
     id="path184"
     d="m 2032,1668 c 3,-8 23,-14 51,-16 51,-3 58,-12 26,-33 -30,-20 -16,-43 44,-73 29,-15 65,-37 80,-50 l 28,-23 -86,-51 c -48,-29 -91,-52 -96,-52 -6,0 -59,-25 -117,-57 -59,-31 -120,-62 -137,-70 -16,-8 -38,-19 -48,-24 -14,-8 -23,-6 -36,5 -9,8 -36,18 -59,22 -23,4 -42,12 -42,18 0,6 16,24 36,39 19,16 39,39 44,52 5,14 20,26 39,30 44,9 40,29 -5,22 -43,-7 -64,-23 -64,-47 0,-10 -18,-33 -41,-50 -55,-44 -51,-71 13,-85 25,-5 50,-13 54,-17 23,-24 100,3 244,86 25,14 51,29 58,32 19,9 29,-5 12,-16 -27,-16 -139,-115 -139,-122 -2,-17 19,-5 91,55 109,89 211,165 291,215 37,24 41,42 9,42 -21,0 -142,76 -142,89 0,6 5,22 12,36 15,34 5,41 -66,50 -46,5 -57,4 -54,-7 z" /><path
     inkscape:connector-curvature="0"
     id="path186"
     d="m 3105,1636 c -23,-35 -15,-74 17,-94 26,-15 28,-15 53,8 30,28 32,63 5,90 -27,27 -56,25 -75,-4 z m 63,-50 c -4,-25 -27,-28 -41,-4 -8,12 -7,21 2,32 18,21 43,2 39,-28 z" /><path
     inkscape:connector-curvature="0"
     id="path190"
     d="m 4145,1550 c -25,-27 -10,-71 27,-84 53,-19 75,29 37,78 -25,31 -40,33 -64,6 z m 52,-26 c 9,-23 -13,-40 -32,-24 -12,10 -13,16 -4,26 15,18 28,18 36,-2 z" /><path
     inkscape:connector-curvature="0"
     id="path192"
     d="m 3787,1483 c -13,-15 -14,-25 -5,-59 6,-23 8,-49 4,-59 -6,-17 -8,-17 -29,4 -32,29 -71,27 -96,-5 -12,-15 -21,-31 -21,-37 0,-5 20,-29 44,-53 49,-50 87,-57 129,-24 30,24 47,25 73,5 26,-20 48,-19 69,5 18,20 17,21 -12,58 -20,24 -33,54 -37,87 -5,28 -17,60 -29,73 -25,26 -68,29 -90,5 z m 71,-19 c 18,-12 22,-25 22,-67 0,-46 4,-56 30,-79 51,-45 34,-63 -29,-32 -31,16 -34,15 -62,-5 -42,-32 -79,-27 -119,14 -28,29 -32,39 -24,53 18,28 46,27 70,-4 22,-27 23,-27 48,-10 28,18 35,61 15,97 -7,15 -7,24 2,35 15,18 19,18 47,-2 z" /><path
     inkscape:connector-curvature="0"
     id="path194"
     d="m 2210,1342 c 0,-16 39,-44 51,-37 8,6 5,13 -12,26 -26,20 -39,24 -39,11 z" /><path
     inkscape:connector-curvature="0"
     id="path196"
     d="m 2131,1256 c -20,-24 -6,-44 36,-51 75,-13 141,-36 157,-54 16,-18 15,-19 -26,-26 -24,-4 -65,-7 -92,-7 -42,-1 -53,-6 -88,-38 -36,-35 -39,-41 -32,-77 8,-47 37,-96 69,-117 30,-20 45,-14 68,26 18,31 18,32 -1,57 -22,30 -63,39 -82,17 -21,-26 -30,-18 -30,23 0,42 11,56 51,66 35,9 106,-46 139,-108 32,-59 22,-81 -39,-85 -70,-5 -45,-21 32,-21 39,1 85,-4 101,-10 25,-10 32,-9 52,10 28,26 44,17 76,-44 13,-27 23,-36 30,-29 7,7 3,21 -14,44 -14,18 -51,77 -82,130 -51,86 -86,133 -86,114 0,-3 20,-40 45,-80 25,-41 45,-79 45,-84 0,-14 -35,-42 -53,-42 -20,0 -22,11 -5,28 23,23 -2,25 -26,3 -32,-30 -49,-20 -30,17 7,15 14,38 14,50 0,34 -28,89 -58,112 -30,24 -22,38 13,22 14,-7 30,-12 35,-12 14,0 12,37 -1,46 -6,3 -17,20 -24,38 -9,21 -21,32 -37,33 -35,2 -111,14 -127,19 -10,3 -11,8 -3,16 8,8 23,7 58,-1 29,-8 51,-8 56,-3 14,14 1,19 -68,27 -48,5 -63,3 -73,-9 z m 44,-306 c -3,-5 -10,-10 -16,-10 -5,0 -9,5 -9,10 0,6 7,10 16,10 8,0 12,-4 9,-10 z m 37,-32 c -9,-9 -12,-7 -12,12 0,19 3,21 12,12 9,-9 9,-15 0,-24 z" /><path
     inkscape:connector-curvature="0"
     id="path198"
     d="m 2942,1223 c 28,-32 51,-172 37,-221 -2,-8 3,-18 11,-22 23,-13 206,-43 264,-44 44,-1 51,2 51,19 0,13 -9,21 -30,25 -46,10 -135,70 -135,92 0,9 26,7 218,-18 148,-20 160,-11 117,91 -7,17 -16,38 -19,48 -5,16 -16,17 -98,14 -57,-2 -141,3 -218,15 -69,10 -145,18 -169,18 -41,0 -43,-1 -29,-17 z m 171,-28 c 58,-8 151,-14 207,-14 56,1 105,-3 110,-7 14,-15 30,-88 21,-97 -4,-4 -46,-4 -92,2 -145,17 -247,22 -254,12 -8,-14 60,-86 95,-101 17,-7 30,-16 30,-21 0,-5 -2,-9 -4,-9 -12,0 -199,41 -205,45 -5,2 -11,33 -14,67 -4,35 -10,80 -13,101 -4,21 -3,37 3,37 5,0 57,-7 116,-15 z" /><path
     inkscape:connector-curvature="0"
     id="path200"
     d="m 3591,1182 c -16,-30 -14,-53 8,-88 12,-19 16,-36 11,-45 -14,-21 -4,-27 62,-34 35,-4 74,-12 87,-17 37,-14 47,5 21,40 -29,39 -19,56 29,47 79,-14 106,-11 109,10 1,11 -4,31 -11,45 -11,22 -22,26 -112,37 -55,7 -121,15 -147,19 -40,6 -47,4 -57,-14 z m 203,-31 c 59,-4 82,-10 90,-23 16,-26 2,-31 -53,-18 -66,16 -91,3 -91,-46 0,-35 0,-35 -37,-28 -48,9 -44,5 -72,57 -34,63 -25,82 37,72 26,-4 83,-10 126,-14 z" /><path
     inkscape:connector-curvature="0"
     id="path202"
     d="m 1718,1184 c -3,-3 -25,-5 -48,-6 h -42 l 7,-57 c 4,-31 9,-87 12,-126 2,-38 10,-105 16,-147 l 11,-77 45,-6 c 88,-10 177,-26 286,-51 61,-13 141,-31 180,-40 38,-9 85,-22 104,-30 35,-15 71,-11 71,7 0,6 -9,7 -20,4 -12,-4 -26,-2 -33,3 -24,20 -107,41 -407,101 -83,17 -85,18 -85,47 0,34 -18,48 -23,19 -7,-34 -20,-42 -59,-36 l -38,6 -7,65 c -8,75 3,98 30,62 22,-28 32,-20 23,16 -6,21 -14,28 -38,30 l -30,3 -7,86 c -4,49 -3,90 2,95 11,11 112,-1 112,-13 0,-4 -4,-19 -10,-33 -8,-21 -16,-26 -46,-26 -24,0 -34,-4 -31,-12 2,-8 17,-12 35,-10 24,2 39,-4 59,-24 24,-24 30,-26 55,-16 30,11 30,12 44,-35 7,-26 20,-12 16,17 -6,42 -23,53 -57,38 -24,-11 -28,-9 -49,17 l -23,29 20,28 c 23,31 30,32 137,15 85,-14 92,-21 108,-122 5,-33 12,-68 17,-77 5,-14 2,-18 -14,-18 -12,0 -21,-6 -21,-15 0,-19 49,-20 56,-1 3,8 -1,43 -10,78 -8,34 -17,84 -21,110 -3,26 -11,50 -16,54 -14,9 -124,24 -209,29 -41,3 -76,9 -78,15 -4,11 -15,13 -24,4 z" /><path
     inkscape:connector-curvature="0"
     id="path204"
     d="m 2527,1053 c -16,-15 -5,-64 21,-95 15,-18 40,-50 55,-70 20,-27 40,-41 70,-49 65,-17 87,-35 87,-70 0,-29 -2,-31 -27,-24 -16,3 -46,25 -67,48 -33,35 -41,39 -44,24 -2,-10 2,-32 9,-49 12,-28 11,-33 -11,-50 -12,-10 -20,-21 -16,-25 3,-3 14,1 24,10 23,21 75,22 92,2 7,-8 24,-15 39,-15 26,0 26,1 26,73 0,70 -1,72 -25,74 -47,4 -138,51 -145,75 -4,13 -21,35 -38,49 -24,21 -31,35 -31,63 0,35 -5,43 -19,29 z" /><path
     inkscape:connector-curvature="0"
     id="path206"
     d="m 1948,983 c -33,-5 -37,-18 -8,-26 11,-3 24,-17 30,-33 8,-20 14,-24 22,-16 8,8 8,15 0,25 -6,7 -9,23 -5,35 3,12 1,21 -3,21 -5,-1 -21,-4 -36,-6 z" /><path
     inkscape:connector-curvature="0"
     id="path208"
     d="m 1775,957 c -4,-10 -5,-21 -1,-24 10,-10 18,4 13,24 -4,17 -4,17 -12,0 z" /><path
     inkscape:connector-curvature="0"
     id="path210"
     d="m 1816,942 c -5,-8 12,-66 27,-90 17,-26 24,-1 12,45 -11,45 -27,64 -39,45 z" /><path
     inkscape:connector-curvature="0"
     id="path212"
     d="m 1984,855 c -18,-14 -18,-14 4,-15 13,0 35,-9 50,-19 61,-43 497,-92 497,-56 0,6 -61,15 -140,21 -190,16 -325,40 -351,65 -24,23 -34,24 -60,4 z" /><path
     inkscape:connector-curvature="0"
     id="path214"
     d="m 2800,854 c 0,-8 5,-12 10,-9 6,3 10,10 10,16 0,5 -4,9 -10,9 -5,0 -10,-7 -10,-16 z" /><path
     inkscape:connector-curvature="0"
     id="path216"
     d="m 3768,844 c -18,-17 -8,-36 15,-30 17,4 30,-1 44,-17 52,-59 49,-123 -10,-220 -45,-74 -56,-140 -30,-192 34,-70 91,-82 146,-31 34,31 37,91 7,129 -51,65 12,133 68,74 12,-13 22,-29 22,-35 0,-20 39,-52 63,-52 75,0 100,158 36,222 -28,29 -91,39 -104,18 -10,-17 -44,-11 -55,9 -5,11 -10,31 -10,45 0,39 -55,75 -126,82 -32,3 -62,3 -66,-2 z m 125,-35 c 28,-15 35,-25 47,-72 6,-20 22,-44 35,-53 23,-15 27,-15 50,0 34,23 62,20 90,-9 20,-19 25,-34 25,-72 0,-93 -52,-137 -86,-71 -27,54 -54,78 -89,78 -61,0 -95,-82 -55,-133 29,-37 24,-93 -11,-119 -25,-19 -28,-19 -57,-4 -46,24 -60,78 -37,148 9,29 29,67 45,84 16,18 31,50 35,73 7,45 -2,118 -16,127 -10,6 -13,34 -3,34 3,0 15,-5 27,-11 z" /><path
     inkscape:connector-curvature="0"
     id="path218"
     d="m 1915,820 c 3,-5 10,-10 16,-10 5,0 9,5 9,10 0,6 -7,10 -16,10 -8,0 -12,-4 -9,-10 z" /><path
     inkscape:connector-curvature="0"
     id="path220"
     d="m 3388,804 c -4,-3 0,-17 8,-32 33,-63 5,-156 -48,-164 -29,-4 -62,-61 -54,-93 4,-14 18,-32 32,-41 35,-24 66,-7 94,51 20,42 22,58 18,150 -5,110 -23,157 -50,129 z m 32,-208 c 0,-19 -38,-104 -50,-111 -22,-13 -50,15 -50,51 0,31 4,37 43,54 52,23 57,24 57,6 z" /><path
     inkscape:connector-curvature="0"
     id="path222"
     d="m 3590,798 c 0,-6 8,-20 18,-31 34,-38 9,-187 -31,-187 -7,0 -27,-15 -44,-32 -80,-86 -65,-208 26,-208 24,0 44,7 53,18 71,80 98,345 43,428 -16,25 -65,34 -65,12 z m 67,-226 c -7,-75 -32,-158 -55,-184 -30,-36 -102,-11 -102,35 0,56 23,97 73,128 30,18 53,41 60,60 19,50 30,33 24,-39 z" /><path
     inkscape:connector-curvature="0"
     id="path224"
     d="m 2810,770 c -8,-5 -12,-11 -9,-14 7,-8 49,5 49,15 0,12 -21,11 -40,-1 z" /><path
     inkscape:connector-curvature="0"
     id="path226"
     d="m 2518,652 c -24,-17 -38,-35 -38,-50 0,-32 -19,-35 -65,-12 -21,11 -52,20 -69,20 h -29 l 7,-52 c 3,-29 6,-63 6,-74 0,-20 6,-22 108,-26 105,-5 347,-46 440,-73 51,-16 58,-14 47,12 -4,10 -9,36 -10,59 -3,54 -26,114 -43,114 -10,0 -12,-6 -7,-17 4,-10 13,-44 20,-76 l 13,-59 -37,5 c -59,7 -185,29 -201,35 -26,9 -51,12 -175,20 -116,7 -119,8 -126,32 -19,70 4,96 53,60 49,-36 69,-31 84,23 8,26 21,47 28,47 8,0 24,9 37,20 37,30 1,24 -43,-8 z" /><path
     inkscape:connector-curvature="0"
     id="path228"
     d="m 2617,553 c -11,-10 -8,-28 8,-49 13,-18 14,-17 15,19 0,35 -8,46 -23,30 z" /></g></svg>