<?xml version="1.0" encoding="UTF-8" standalone="no"?>
<!-- Generator: Adobe Illustrator 17.0.0, SVG Export Plug-In . SVG Version: 6.00 Build 0)  -->

<svg
   xmlns:dc="http://purl.org/dc/elements/1.1/"
   xmlns:cc="http://creativecommons.org/ns#"
   xmlns:rdf="http://www.w3.org/1999/02/22-rdf-syntax-ns#"
   xmlns:svg="http://www.w3.org/2000/svg"
   xmlns="http://www.w3.org/2000/svg"
   xmlns:sodipodi="http://sodipodi.sourceforge.net/DTD/sodipodi-0.dtd"
   xmlns:inkscape="http://www.inkscape.org/namespaces/inkscape"
   version="1.1"
   id="Layer_1"
   x="0px"
   y="0px"
   width="3039px"
   height="3039px"
   viewBox="0 0 3039 3039"
   enable-background="new 0 0 3039 3039"
   xml:space="preserve"
   sodipodi:docname="dagger.svg"
   inkscape:version="0.92.4 (5da689c313, 2019-01-14)"><metadata
   id="metadata1510"><rdf:RDF><cc:Work
       rdf:about=""><dc:format>image/svg+xml</dc:format><dc:type
         rdf:resource="http://purl.org/dc/dcmitype/StillImage" /><dc:title></dc:title></cc:Work></rdf:RDF></metadata><defs
   id="defs1508" /><sodipodi:namedview
   pagecolor="#ffffff"
   bordercolor="#666666"
   borderopacity="1"
   objecttolerance="10"
   gridtolerance="10"
   guidetolerance="10"
   inkscape:pageopacity="0"
   inkscape:pageshadow="2"
   inkscape:window-width="1020"
   inkscape:window-height="754"
   id="namedview1506"
   showgrid="false"
   inkscape:zoom="0.14610069"
   inkscape:cx="1559.5053"
   inkscape:cy="1515.4011"
   inkscape:window-x="2125"
   inkscape:window-y="53"
   inkscape:window-maximized="0"
   inkscape:current-layer="Layer_1" />
<rect
   x="0"
   y="1"
   fill="#FFFFFF"
   width="3039"
   height="3039"
   id="rect761" />

<g
   id="g1503">
	<polygon
   fill="#231F20"
   points="2757.814,2758.103 2878.444,2837.493 2772.01,2757.086 2821.15,2703.835 2729.123,2708.154    2797.828,2711.648  "
   id="polygon1497" />
	<polygon
   fill="#231F20"
   points="2790.623,2878.307 2697.924,2706.675 2790.623,2610.244 2715.65,2707.558  "
   id="polygon1499" />
	<polygon
   fill="#231F20"
   points="2633.956,2901.64 2734.99,2794.436 2618.838,2705.778 2685.719,2705.629 2590.623,2701.334    2722.879,2798.034  "
   id="polygon1501" />
</g>
<g
   transform="matrix(0.57004127,0,0,-0.57004127,-434.6957,3101.9441)"
   id="g417"><path
     inkscape:connector-curvature="0"
     id="path188"
     d="m 4368,5104 c -27,-58 -149,-78 -169,-27 -10,28 -29,22 -29,-9 0,-11 -13,-40 -30,-65 -16,-24 -30,-48 -30,-53 0,-39 -116,-334 -186,-472 l -59,-117 -118,-90 c -64,-50 -120,-91 -123,-91 -4,0 -24,-16 -45,-35 -21,-19 -50,-37 -64,-41 -14,-3 -25,-10 -25,-14 0,-11 47,-48 71,-55 11,-4 19,-10 17,-15 -5,-15 -193,-160 -206,-160 -8,0 -11,7 -8,18 2,9 8,37 11,62 4,25 12,53 17,63 5,9 6,21 3,26 -5,8 -56,-23 -202,-121 -23,-15 -44,-28 -47,-28 -7,0 -76,149 -76,166 0,10 7,10 33,1 39,-15 47,-24 47,-59 0,-37 13,-35 68,11 26,21 65,45 87,53 24,9 45,26 53,42 7,14 20,26 28,26 19,0 18,16 -2,24 -8,3 -12,11 -9,16 6,10 22,8 63,-7 6,-3 12,-1 12,5 0,5 -17,16 -37,25 l -38,15 30,1 c 17,0 59,-6 95,-14 61,-13 81,-13 68,1 -3,3 -42,12 -87,21 -87,17 -113,39 -33,28 26,-4 55,-9 65,-12 9,-2 17,0 17,6 0,5 -21,13 -47,16 -66,9 -73,12 -73,31 0,14 7,15 48,9 31,-4 44,-3 37,3 -5,6 -21,12 -34,14 -14,1 -27,9 -29,17 -4,11 7,13 59,7 35,-4 74,-10 87,-13 12,-3 22,-1 22,4 0,5 -26,14 -57,20 -78,15 -119,31 -107,43 6,6 31,6 64,1 30,-5 57,-7 60,-4 8,7 -24,22 -60,28 -64,10 -83,26 -97,80 -7,28 -13,74 -13,103 0,28 -4,52 -10,52 -6,0 -10,-34 -10,-81 v -80 l -29,20 c -35,25 -56,80 -47,123 3,17 22,53 42,81 39,55 69,116 60,125 -3,3 -7,3 -9,1 -1,-2 -49,-75 -107,-161 -57,-87 -110,-160 -119,-163 -31,-12 -38,33 -21,126 11,59 -2,92 -19,46 -14,-36 -46,-50 -103,-45 -44,5 -53,2 -73,-20 -14,-14 -29,-39 -36,-54 -6,-15 -18,-28 -25,-28 -18,0 -18,-2 8,-72 19,-53 20,-61 6,-74 -8,-9 -33,-18 -54,-21 -37,-5 -43,-2 -82,41 -23,25 -45,46 -47,46 -16,0 -2,-60 19,-79 14,-13 45,-57 69,-100 50,-85 92,-140 81,-106 -4,11 -15,39 -26,63 -21,48 -17,62 17,62 32,0 95,-30 95,-46 0,-6 7,-25 15,-40 27,-52 18,-67 -22,-39 -20,14 -23,14 -33,-5 -6,-11 -14,-42 -17,-68 -5,-43 -2,-53 26,-93 38,-53 98,-222 109,-307 5,-34 6,-62 3,-62 -9,1 -57,79 -74,122 -9,20 -33,63 -55,95 -43,65 -132,209 -132,216 0,6 -183,317 -214,363 -14,22 -37,55 -50,74 -19,29 -24,48 -24,108 0,39 2,72 5,72 7,0 10,-4 97,-119 37,-50 70,-91 71,-91 7,0 -26,122 -50,185 -14,38 -22,72 -17,77 5,5 25,-3 46,-17 51,-35 66,-34 47,3 -10,18 -45,130 -55,175 -6,23 -12,27 -44,28 -20,1 -50,4 -67,8 -28,6 -30,10 -35,56 -5,50 -5,50 -45,56 -22,3 -55,9 -73,13 l -32,8 v -41 c 0,-43 16,-57 22,-18 3,19 8,22 43,18 54,-4 55,-6 55,-56 0,-24 4,-46 9,-49 5,-4 37,-9 71,-13 l 62,-6 20,-46 c 11,-25 22,-57 25,-71 4,-25 3,-26 -36,-22 -56,6 -60,-12 -22,-94 33,-71 42,-116 15,-78 -8,12 -39,52 -69,90 -30,38 -55,79 -55,91 0,13 -4,23 -10,23 -16,0 -29,-35 -19,-51 11,-18 12,-129 1,-129 -5,0 -21,22 -36,50 -15,27 -44,71 -64,97 -21,26 -60,79 -86,117 l -49,69 77,-6 c 60,-5 77,-4 74,6 -3,6 -29,15 -59,18 -30,3 -68,9 -86,13 -35,8 -50,-5 -30,-26 7,-7 16,-20 20,-28 3,-8 31,-49 61,-90 126,-171 179,-261 182,-305 2,-16 7,-59 13,-95 14,-81 10,-92 -31,-88 -27,2 -34,8 -36,29 -3,24 -8,27 -59,34 -30,4 -59,3 -64,-2 -5,-5 -3,-31 7,-62 8,-29 14,-72 12,-94 l -3,-42 50,-7 c 68,-10 93,1 35,16 -32,9 -46,18 -48,31 -1,11 -10,46 -19,78 -9,31 -14,59 -12,61 2,2 17,2 32,-1 19,-4 32,-15 41,-37 13,-31 14,-31 74,-28 71,4 69,0 47,106 -13,60 -13,90 -2,75 21,-25 97,-141 97,-147 0,-7 52,-98 138,-242 12,-19 42,-73 68,-120 26,-47 67,-113 91,-148 24,-34 51,-81 60,-105 9,-23 36,-67 59,-97 23,-30 44,-65 48,-77 8,-25 34,-49 43,-40 3,4 1,12 -4,19 -6,7 -13,31 -16,53 -3,22 -11,72 -17,110 -13,90 -64,237 -101,296 -32,51 -41,129 -15,129 42,0 64,-20 84,-77 11,-32 44,-112 72,-178 83,-194 158,-380 165,-408 4,-14 13,-31 21,-37 14,-12 16,-7 29,71 3,19 11,44 18,53 13,17 17,17 77,2 72,-19 87,-15 41,11 -69,38 -68,37 -15,76 58,43 134,110 134,118 0,3 -19,9 -42,15 -23,5 -43,14 -45,19 -1,6 28,32 65,59 37,28 79,61 94,75 15,13 30,22 33,20 2,-3 -13,-48 -35,-99 -22,-52 -40,-103 -40,-112 0,-9 -8,-30 -17,-47 -10,-16 -14,-33 -11,-37 8,-8 53,19 84,50 11,12 48,45 82,74 80,69 97,66 105,-21 7,-60 42,-215 52,-226 3,-2 11,1 17,7 9,9 7,28 -9,79 -34,108 -37,175 -10,263 l 23,75 90,45 c 83,42 89,47 92,78 5,49 -10,60 -76,60 -43,0 -62,-5 -79,-21 -30,-27 -18,-42 14,-17 46,36 134,20 118,-22 -3,-8 -25,-25 -48,-37 -23,-12 -57,-31 -76,-41 -19,-11 -60,-44 -91,-75 -30,-30 -62,-55 -70,-55 -8,0 -42,-29 -75,-65 -34,-36 -66,-65 -73,-65 -14,0 -16,32 -3,45 5,6 27,55 50,110 23,54 51,109 62,121 12,13 18,27 15,32 -10,17 42,146 159,388 83,171 117,253 156,374 15,47 32,85 37,85 8,0 68,-68 106,-120 7,-9 1,-23 -16,-43 -14,-16 -51,-83 -83,-148 -31,-66 -84,-173 -116,-239 -33,-66 -59,-126 -59,-132 0,-26 16,-11 37,35 32,67 84,134 122,156 26,15 37,16 57,8 49,-23 24,-72 -85,-167 -68,-60 -96,-95 -76,-95 3,0 50,39 105,86 98,84 100,87 100,129 0,35 -5,48 -27,65 -16,12 -23,24 -17,30 11,11 237,90 243,84 2,-2 -8,-22 -23,-45 -15,-22 -26,-42 -24,-43 2,-1 15,-10 31,-19 39,-25 38,-84 -3,-131 -21,-23 -27,-37 -19,-41 7,-5 51,32 109,90 l 98,98 29,-20 c 36,-25 157,-93 203,-114 60,-27 211,-71 218,-64 12,12 -36,42 -79,49 -39,6 -138,51 -289,131 -36,19 -73,34 -83,35 -11,0 -41,-23 -67,-52 l -48,-52 -11,38 c -5,21 -17,47 -26,56 -21,23 -13,49 26,91 69,74 71,85 33,165 -22,47 -33,59 -71,75 -55,23 -75,24 -120,2 -34,-16 -36,-15 -46,2 -5,10 -27,37 -47,59 -20,23 -44,53 -53,69 -17,27 -17,29 9,72 26,44 38,53 48,36 10,-16 60,-19 88,-5 47,24 51,20 44,-42 -11,-96 9,-102 159,-52 69,23 65,24 59,-24 -8,-55 10,-73 63,-65 35,6 62,22 52,32 -3,2 -22,0 -43,-6 -56,-16 -65,-2 -39,63 12,29 24,63 28,76 9,30 -13,29 -25,-2 -6,-16 -20,-27 -42,-31 -18,-4 -38,-11 -44,-16 -17,-14 -124,-40 -135,-33 -16,9 -9,107 10,151 11,23 17,44 13,47 -11,12 -23,5 -34,-20 z m 69,-365 c 8,-8 2,-23 -23,-56 -19,-24 -34,-53 -34,-64 0,-23 -32,-26 -50,-4 -19,23 -5,86 25,113 28,24 64,29 82,11 z m 27,-110 c -3,-5 -10,-7 -15,-3 -5,3 -7,10 -3,15 3,5 10,7 15,3 5,-3 7,-10 3,-15 z m -210,-12 c 3,-13 17,-35 31,-50 29,-28 18,-45 -17,-26 -55,28 -72,61 -46,87 18,18 25,15 32,-11 z m -43,-115 c 4,-10 -24,-13 -37,-4 -6,4 -15,22 -19,40 l -7,32 31,-30 c 17,-17 31,-34 32,-38 z m -1221,-1 c 14,-27 3,-48 -25,-48 -29,0 -43,31 -25,52 17,21 37,19 50,-4 z m 201,-92 c 14,-23 -2,-30 -31,-13 -26,16 -30,16 -65,0 -94,-45 -62,-163 42,-154 24,2 43,2 43,0 0,-9 -42,-62 -49,-62 -5,0 -25,11 -45,25 l -36,24 -1,-27 c 0,-15 -4,-36 -8,-47 -7,-17 -9,-15 -18,15 -6,19 -9,51 -8,70 1,19 -1,44 -5,55 -9,24 18,107 32,99 5,-3 12,4 15,16 6,21 10,22 66,17 33,-3 63,-11 68,-18 z m 123,-9 c 27,-10 32,-25 17,-49 -8,-12 -13,-12 -35,3 -25,16 -26,16 -27,-6 -1,-13 -1,-40 0,-60 2,-33 0,-38 -19,-38 -18,0 -21,4 -17,21 4,15 0,23 -14,26 -24,7 -28,63 -4,63 8,0 22,11 31,25 18,27 30,30 68,15 z m -150,-49 c 11,-18 -13,-63 -32,-59 -21,4 -29,48 -10,59 17,11 35,11 42,0 z m 647,-113 c -11,-23 -37,-86 -58,-140 -42,-105 -31,-94 -208,-222 -52,-38 -95,-75 -95,-82 0,-8 19,-23 41,-35 l 41,-21 -33,-28 c -19,-16 -37,-29 -41,-30 -4,0 -28,-18 -53,-40 -25,-22 -51,-40 -57,-40 -7,0 -8,33 -3,103 5,78 10,105 23,115 9,7 44,32 77,56 33,24 78,61 99,81 22,20 50,43 63,52 34,22 29,38 -19,57 l -43,17 25,20 c 30,24 103,80 190,148 36,27 66,46 68,41 2,-4 -6,-28 -17,-52 z m -466,-95 c -4,-21 -8,-39 -8,-39 -1,-1 -22,-12 -47,-24 -25,-12 -59,-33 -77,-46 -17,-13 -36,-24 -41,-24 -15,0 -22,41 -15,83 4,28 11,39 29,43 13,3 30,4 37,1 7,-3 35,6 63,18 27,13 53,24 58,24 4,1 5,-16 1,-36 z m 12,-177 c -3,-8 -9,-42 -13,-76 -5,-49 -11,-64 -31,-77 -21,-14 -22,-17 -9,-32 12,-13 14,-36 10,-111 -9,-162 -18,-176 -54,-78 -13,35 -42,103 -66,153 l -43,90 32,27 c 18,16 55,41 82,57 28,16 57,36 64,45 17,20 35,21 28,2 z" /><path
     inkscape:connector-curvature="0"
     id="path190"
     d="m 4924,5049 c -10,-12 -64,-54 -119,-94 l -100,-73 -23,-78 c -42,-137 -42,-138 14,-174 40,-26 56,-30 84,-25 19,3 53,8 75,11 l 40,6 -33,-29 c -33,-29 -38,-50 -26,-112 5,-23 19,-41 51,-62 57,-39 73,-34 66,22 -5,36 -3,44 18,60 27,20 25,25 -10,31 -20,2 -26,-3 -36,-37 -9,-31 -15,-39 -31,-37 -26,4 -44,30 -44,62 0,21 17,41 78,92 88,76 130,118 115,118 -6,0 -22,-9 -37,-21 -26,-20 -67,-34 -186,-64 -50,-12 -59,-12 -97,5 -48,21 -49,24 -27,112 18,71 51,112 144,180 63,47 130,108 130,120 0,16 -27,8 -46,-13 z" /><path
     inkscape:connector-curvature="0"
     id="path192"
     d="m 5096,4642 c -13,-21 -41,-53 -63,-70 -26,-21 -33,-31 -21,-32 9,0 20,5 23,10 14,23 22,7 17,-40 -3,-35 0,-57 11,-73 20,-31 76,-57 121,-57 20,0 36,-4 36,-10 0,-5 -26,-27 -57,-49 -89,-62 -117,-88 -104,-95 6,-4 17,-4 24,0 23,14 243,192 256,208 12,14 10,16 -14,16 -16,0 -37,-8 -47,-17 -12,-10 -41,-18 -77,-21 -56,-4 -61,-2 -96,30 l -38,34 18,60 c 9,32 25,74 36,92 36,62 14,75 -25,14 z" /><path
     inkscape:connector-curvature="0"
     id="path196"
     d="m 5502,4406 c -18,-13 -58,-31 -90,-40 -31,-9 -75,-28 -98,-43 -49,-34 -108,-83 -103,-86 2,-2 33,-9 69,-16 36,-7 67,-15 70,-18 3,-3 -7,-15 -22,-27 -31,-24 -40,-76 -13,-76 9,0 41,-9 73,-21 70,-25 261,-74 322,-83 24,-4 50,-11 56,-17 15,-12 59,13 74,42 6,9 25,22 44,29 37,12 53,37 36,54 -7,7 -16,7 -30,-2 -13,-8 -40,-10 -80,-5 -71,7 -84,-11 -15,-21 25,-4 45,-10 45,-14 -1,-4 -11,-19 -23,-34 -21,-25 -24,-26 -72,-16 -48,10 -178,44 -280,75 -27,8 -71,20 -97,26 -25,7 -49,15 -53,19 -4,4 11,16 34,28 23,11 41,24 41,28 0,16 -46,52 -66,52 -26,0 -44,13 -36,26 8,12 97,74 106,74 3,0 6,-10 6,-22 1,-62 50,-72 154,-33 36,14 66,22 66,19 0,-3 -12,-16 -27,-29 -22,-19 -24,-24 -11,-25 16,0 118,82 126,101 9,21 -25,15 -109,-21 -100,-43 -163,-58 -173,-42 -3,5 24,35 59,66 36,30 66,59 66,63 1,16 -18,12 -49,-11 z" /><path
     inkscape:connector-curvature="0"
     id="path198"
     d="m 4759,4276 c -9,-20 -9,-32 -1,-51 7,-14 12,-59 12,-99 0,-40 3,-76 6,-79 4,-4 21,4 38,16 17,12 53,34 81,49 27,14 50,32 50,40 0,7 -19,17 -45,23 -64,14 -100,41 -100,75 0,15 -7,33 -15,40 -12,10 -17,7 -26,-14 z m 121,-137 c 0,-10 -67,-48 -74,-42 -8,8 -8,58 0,65 7,8 74,-13 74,-23 z" /><path
     inkscape:connector-curvature="0"
     id="path200"
     d="m 2439,4264 c -4,-27 5,-61 18,-76 24,-27 32,-22 35,22 3,39 4,39 28,27 20,-10 27,-25 37,-73 20,-101 27,-111 73,-119 32,-5 46,-14 60,-38 33,-53 42,-122 29,-205 l -12,-73 -34,33 c -19,18 -60,76 -91,128 -30,52 -78,128 -106,168 -69,100 -79,85 -61,-94 9,-91 0,-174 -18,-173 -7,0 -34,27 -62,60 -61,74 -81,86 -103,66 -9,-8 -37,-26 -62,-39 -25,-13 -54,-29 -65,-35 -45,-24 -131,-63 -140,-63 -6,0 -21,-9 -34,-19 -30,-23 -11,-39 21,-17 12,9 29,16 36,16 7,0 72,31 143,70 l 130,70 63,-66 c 51,-54 67,-65 84,-60 37,12 47,98 27,239 -4,33 -4,57 1,57 5,0 36,-43 69,-96 33,-53 75,-118 93,-146 17,-27 32,-53 32,-57 0,-4 11,-18 25,-31 14,-13 25,-27 25,-31 0,-5 11,-24 24,-44 13,-19 41,-78 62,-130 24,-61 41,-92 47,-86 10,10 -51,181 -81,228 -10,16 -11,27 -3,41 6,11 16,52 22,93 9,62 9,82 -6,136 -21,79 -47,113 -84,113 -39,0 -56,24 -80,109 -11,41 -24,78 -28,82 -12,12 -113,23 -114,13 z" /><path
     inkscape:connector-curvature="0"
     id="path202"
     d="m 5515,4210 c -11,-18 23,-25 138,-28 115,-4 118,-5 101,-23 -16,-18 -16,-19 2,-19 24,0 90,65 75,74 -5,4 -38,2 -72,-3 -56,-9 -135,-8 -211,4 -15,2 -30,0 -33,-5 z" /><path
     inkscape:connector-curvature="0"
     id="path204"
     d="m 4259,4110 c -25,-54 -49,-87 -106,-140 -40,-39 -82,-70 -93,-70 -11,0 -20,-7 -20,-15 0,-8 5,-15 10,-15 6,0 28,-18 50,-40 29,-29 40,-48 40,-69 0,-41 13,-45 60,-21 23,12 51,20 63,18 19,-3 22,-10 25,-55 3,-55 9,-62 31,-40 10,10 17,7 35,-15 12,-16 29,-28 38,-28 9,0 20,-5 23,-10 5,-8 11,-7 21,1 19,15 8,29 -22,29 -20,0 -29,9 -46,46 -14,34 -23,43 -31,35 -19,-19 -27,-12 -27,24 0,31 -3,35 -27,37 -45,2 -77,-3 -90,-14 -9,-7 -15,-3 -23,17 -6,15 -23,43 -39,62 l -29,35 79,80 c 43,44 84,95 91,114 12,34 28,46 28,20 0,-18 66,-76 85,-76 8,0 15,-3 14,-7 0,-11 -140,-115 -161,-121 -30,-7 -20,-29 16,-35 18,-3 91,-33 162,-67 71,-34 172,-75 224,-91 55,-17 105,-39 118,-53 20,-20 22,-26 11,-49 -14,-32 -44,-35 -59,-7 -14,26 -44,27 -37,1 2,-11 1,-39 -3,-63 -4,-24 -10,-65 -14,-91 -5,-45 -4,-48 14,-42 11,4 29,0 41,-9 14,-9 33,-13 50,-9 34,6 39,-11 9,-27 -11,-6 -20,-15 -20,-20 0,-5 -5,-21 -10,-35 -9,-24 -13,-25 -26,-14 -14,12 -20,9 -40,-16 -13,-17 -24,-36 -24,-42 0,-7 -5,-13 -11,-13 -8,0 -9,11 -5,31 6,31 6,32 -28,26 -44,-7 -50,0 -29,32 9,14 18,48 19,74 2,44 0,47 -18,41 -13,-4 -28,2 -44,17 -32,30 -44,16 -16,-19 54,-67 55,-70 42,-102 -7,-17 -26,-40 -41,-51 -16,-11 -29,-27 -29,-35 0,-17 5,-17 55,1 64,23 67,21 59,-35 -9,-67 5,-65 57,11 l 41,61 28,-27 c 33,-32 45,-21 35,32 l -6,36 43,-8 c 122,-20 219,24 271,123 60,115 71,250 28,346 -23,53 -88,101 -151,110 -98,16 -99,22 -4,67 35,17 66,34 69,40 12,18 31,9 42,-21 13,-35 42,-39 100,-15 38,16 55,13 35,-7 -7,-7 -12,-29 -12,-50 0,-46 19,-58 89,-58 50,0 68,-13 34,-25 -10,-3 -36,-21 -58,-40 -35,-30 -39,-37 -28,-54 11,-17 10,-22 -3,-29 -14,-8 -14,-13 -4,-32 7,-14 10,-45 8,-77 -3,-30 -2,-56 2,-58 4,-2 30,15 57,39 28,23 75,60 104,81 30,21 79,62 109,90 30,29 96,82 145,119 50,36 101,75 115,85 l 25,20 -67,1 c -39,0 -68,-4 -68,-10 0,-5 11,-10 25,-10 14,0 25,-3 25,-8 0,-4 -41,-36 -91,-72 -50,-35 -98,-74 -106,-87 -13,-19 -111,-99 -224,-182 -18,-13 -19,-11 -19,33 0,44 2,47 30,53 17,3 30,8 30,12 0,4 -13,15 -30,24 -16,10 -30,22 -30,26 0,26 119,95 185,107 22,4 48,11 58,16 25,13 21,31 -5,25 -56,-14 -206,-27 -240,-22 -51,9 -50,32 4,96 54,64 43,77 -41,43 -126,-51 -170,-40 -117,30 14,19 22,37 18,40 -4,2 -36,-15 -71,-39 -100,-70 -153,-68 -314,9 -119,56 -113,58 -112,-28 0,-47 -5,-80 -12,-87 -7,-7 -13,-19 -13,-27 0,-10 10,-6 34,12 19,14 38,26 41,26 4,0 5,-21 3,-47 -3,-41 0,-48 17,-51 95,-15 195,-135 195,-233 0,-52 -26,-112 -68,-156 -35,-38 -66,-42 -82,-13 -8,14 -17,19 -29,15 -17,-5 -18,-1 -13,42 6,58 5,57 30,44 15,-8 23,-6 39,12 78,85 52,137 -92,180 -50,15 -106,35 -125,44 -19,9 -84,38 -143,64 -59,26 -107,51 -105,55 4,13 116,96 171,127 26,15 47,35 47,43 0,12 -5,14 -17,8 -10,-5 -42,-9 -71,-9 -45,0 -56,4 -72,25 -10,14 -22,42 -25,63 -4,21 -12,37 -20,37 -7,0 -28,-32 -46,-70 z m 446,-95 c 23,-13 68,-34 98,-45 31,-12 59,-25 62,-30 3,-4 -6,-22 -21,-39 l -25,-30 37,-16 c 20,-8 51,-15 69,-15 17,0 52,-10 76,-23 143,-74 122,-375 -33,-471 -52,-32 -130,-38 -155,-13 -12,12 -10,17 12,31 32,21 55,15 55,-15 0,-19 7,-16 54,27 30,27 54,52 55,56 1,4 -11,8 -26,10 -37,4 -40,38 -10,98 18,34 30,46 50,48 29,4 36,19 12,28 -8,3 -30,34 -49,68 -19,34 -43,69 -53,78 -27,24 -119,68 -142,68 -11,0 -23,5 -26,10 -3,6 -18,10 -32,10 -25,0 -25,1 -22,72 3,47 0,73 -7,75 -6,2 -14,-5 -17,-17 -7,-28 -27,-25 -27,4 0,27 9,56 18,56 3,0 24,-11 47,-25 z" /><path
     inkscape:connector-curvature="0"
     id="path206"
     d="m 5611,3719 c -13,-10 -34,-19 -47,-19 -13,0 -28,-8 -33,-17 -5,-10 -46,-45 -90,-78 -45,-33 -81,-63 -81,-67 0,-3 -17,-17 -37,-29 -77,-46 -113,-82 -113,-112 0,-19 -11,-39 -31,-58 l -32,-30 23,-24 c 13,-14 29,-25 37,-25 20,0 15,-28 -7,-35 -10,-3 -36,-1 -57,4 -57,16 -60,15 -67,-34 -4,-25 -9,-45 -12,-45 -3,0 -17,14 -31,30 -30,37 -50,38 -63,5 -5,-14 -12,-25 -16,-25 -3,0 -19,11 -36,25 -16,14 -35,25 -41,25 -16,0 -82,-44 -129,-86 -20,-18 -57,-42 -82,-54 -25,-11 -60,-33 -78,-48 -18,-16 -76,-60 -128,-99 -52,-38 -126,-98 -163,-133 -37,-34 -70,-60 -73,-57 -3,3 7,45 24,94 16,48 39,122 51,163 12,41 33,113 48,160 32,99 33,105 14,105 -15,0 -26,-32 -76,-207 -15,-54 -34,-103 -41,-109 -15,-12 -97,8 -156,37 -22,11 -34,11 -75,-1 -86,-26 -297,-178 -309,-223 -4,-13 -11,-21 -17,-19 -11,3 -39,90 -38,117 0,8 3,47 5,87 6,84 -5,99 -39,57 -13,-16 -25,-27 -28,-24 -11,12 -16,59 -7,65 6,4 8,11 5,16 -4,5 1,9 11,9 14,0 15,2 3,17 -13,15 -12,15 16,1 17,-9 41,-35 54,-58 20,-35 22,-49 16,-97 l -7,-55 23,16 c 13,9 34,16 46,16 23,0 52,19 192,128 41,31 77,57 79,57 3,0 10,-14 16,-32 22,-64 34,-43 15,27 -3,9 4,16 19,18 12,2 22,5 22,6 0,2 -21,24 -46,50 -37,36 -45,51 -42,71 5,25 -8,75 -25,103 -19,28 42,58 68,33 42,-37 271,-136 281,-120 9,15 -4,27 -44,39 -70,23 -297,133 -325,158 -21,20 -30,23 -39,14 -16,-16 -53,-15 -67,2 -7,8 -9,25 -5,40 8,33 -18,36 -40,5 -8,-12 -45,-43 -83,-70 -204,-145 -228,-160 -231,-145 -5,21 36,208 54,252 17,40 10,59 -11,30 -15,-20 -46,-119 -65,-206 -24,-110 -31,-131 -61,-165 -46,-52 -18,-42 40,14 28,27 51,48 51,45 0,-2 25,12 55,31 57,37 83,42 118,23 12,-6 36,-14 52,-18 25,-5 29,-11 27,-31 -2,-13 -6,-43 -9,-67 l -5,-43 36,17 c 35,17 38,17 121,-11 47,-15 90,-34 95,-40 8,-10 -7,-26 -59,-64 -39,-28 -75,-51 -80,-51 -6,0 -27,-17 -48,-39 -21,-21 -50,-41 -65,-45 -25,-6 -26,-5 -26,37 1,51 -27,113 -62,139 -15,11 -45,18 -78,19 -46,2 -57,-2 -80,-24 -22,-22 -25,-30 -15,-45 6,-10 19,-51 28,-90 11,-43 22,-71 29,-69 6,3 10,9 9,14 -1,5 3,10 10,10 7,0 19,2 27,4 10,3 16,-5 18,-22 2,-21 -2,-28 -22,-33 -19,-5 -28,-17 -37,-46 -13,-44 -34,-43 -25,1 4,21 2,29 -8,29 -19,0 -25,19 -32,101 l -7,69 h -32 c -24,0 -55,-18 -126,-71 -52,-39 -103,-75 -114,-79 -11,-5 -40,-23 -65,-39 -38,-26 -70,-39 -70,-28 0,1 7,34 15,72 25,111 28,135 20,135 -17,0 -34,-37 -35,-71 0,-20 -6,-57 -14,-83 -8,-27 -12,-54 -10,-61 5,-11 -32,-39 -133,-101 -10,-7 -15,-15 -11,-19 3,-3 14,-1 25,5 26,17 180,-11 278,-50 85,-34 117,-37 159,-15 16,9 31,13 34,10 3,-2 0,-24 -6,-47 -6,-24 -13,-55 -16,-70 -4,-17 -20,-34 -49,-51 -24,-14 -94,-62 -156,-106 -61,-45 -115,-81 -118,-81 -4,0 -16,9 -28,20 -36,34 -259,126 -400,165 -87,25 -139,45 -147,58 -20,31 5,97 36,97 11,0 210,136 225,154 7,9 18,16 23,16 6,0 56,32 112,70 55,39 124,85 151,102 36,23 45,33 32,36 -9,2 -62,-27 -118,-65 -56,-37 -116,-77 -134,-88 -17,-11 -56,-38 -86,-60 -69,-51 -201,-135 -211,-135 -12,0 -10,15 13,83 12,34 34,109 48,167 19,75 30,105 41,105 8,0 14,-6 12,-13 -4,-23 15,-12 79,46 85,76 165,142 174,142 9,0 -4,-76 -21,-116 -16,-39 -18,-80 -4,-89 5,-3 54,20 107,52 54,32 112,67 128,76 17,10 63,34 103,53 41,20 72,41 72,49 0,16 9,19 26,7 18,-11 10,-98 -11,-122 -13,-15 -15,-24 -8,-31 13,-13 33,-4 33,15 0,8 17,28 37,45 34,29 35,31 12,29 -21,-3 -24,1 -22,26 3,37 -13,66 -35,66 -9,0 -49,16 -89,35 -40,19 -121,55 -180,79 -146,59 -163,68 -163,79 0,5 -10,7 -22,4 -12,-4 -36,0 -52,8 -17,7 -89,34 -161,60 -71,25 -179,65 -240,89 -223,89 -416,159 -422,152 -3,-3 -4,-8 -2,-10 6,-5 522,-209 584,-231 28,-9 59,-21 70,-26 11,-5 63,-24 115,-43 119,-43 193,-72 247,-97 24,-10 47,-19 51,-19 5,0 22,-6 38,-14 16,-8 62,-29 102,-47 40,-18 71,-38 69,-43 -3,-10 -86,-58 -152,-89 -17,-8 -72,-40 -123,-72 -52,-31 -95,-55 -98,-53 -2,3 2,22 9,44 8,21 17,62 21,89 4,28 9,58 12,68 13,42 -60,-3 -172,-107 -66,-60 -107,-80 -126,-61 -3,3 6,58 20,121 17,81 21,119 14,126 -7,7 -15,0 -25,-25 -23,-54 -177,-219 -376,-402 -99,-92 -181,-171 -181,-176 0,-5 -5,-9 -11,-9 -6,0 -9,7 -5,15 20,53 -92,99 -173,72 -76,-27 -109,-56 -116,-104 -4,-28 -10,-41 -17,-37 -7,4 -8,2 -4,-5 4,-6 2,-27 -4,-45 -9,-27 -8,-42 6,-75 15,-39 15,-43 0,-60 -9,-10 -16,-26 -16,-37 0,-11 -5,-25 -11,-31 -20,-20 6,-23 96,-12 50,6 108,7 134,3 25,-4 53,-8 61,-9 9,0 14,-8 12,-19 -2,-11 1,-16 10,-14 7,3 13,15 12,27 0,16 4,20 17,16 11,-4 30,6 52,25 19,16 39,30 45,30 6,0 18,7 26,16 18,17 10,41 -27,82 l -20,22 24,26 c 13,14 46,42 74,62 27,20 69,56 93,80 25,23 47,41 49,38 3,-3 -2,-36 -10,-73 -34,-149 -31,-160 28,-113 47,37 55,37 57,3 2,-36 5,-76 7,-87 0,-5 7,-3 15,3 11,9 25,9 60,0 58,-14 64,-24 28,-43 -16,-8 -32,-22 -35,-31 -4,-8 -18,-15 -31,-15 -15,0 -30,-8 -36,-21 -15,-26 -7,-34 19,-19 12,6 36,8 57,4 32,-6 35,-9 29,-31 -16,-65 -18,-86 -7,-79 12,7 42,103 42,135 0,32 19,25 35,-12 7,-17 32,-65 54,-106 23,-41 41,-80 41,-87 0,-18 -34,-18 -68,0 -28,14 -127,40 -291,76 -77,17 -97,18 -111,8 -80,-58 -139,-104 -139,-109 -1,-4 23,-4 52,-2 28,3 75,6 102,7 l 50,1 -3,-42 c -4,-54 11,-56 26,-4 23,75 20,79 -51,76 -34,-1 -72,-6 -84,-10 -13,-4 -23,-3 -23,1 0,14 89,64 114,64 30,0 326,-75 373,-95 19,-8 44,-15 53,-15 10,0 27,-12 38,-27 21,-29 45,-24 25,5 -57,82 -169,320 -156,333 11,11 114,-22 250,-82 24,-11 49,-19 56,-19 7,0 30,-15 51,-34 34,-30 37,-36 26,-56 -17,-32 -4,-37 28,-9 85,78 138,102 185,85 9,-3 24,-8 32,-11 25,-7 28,-32 12,-82 -9,-26 -14,-49 -13,-50 2,-2 15,6 30,18 15,12 30,19 33,15 4,-3 -1,-33 -10,-66 -10,-33 -17,-67 -17,-76 0,-9 -7,-31 -16,-50 -9,-19 -14,-37 -12,-40 6,-5 147,138 161,163 5,8 6,18 2,21 -4,4 -29,-17 -56,-47 -28,-29 -52,-51 -56,-48 -6,7 21,104 43,155 15,35 18,62 7,62 -4,0 -20,-12 -36,-27 l -30,-28 6,31 c 8,41 -13,70 -58,78 -19,4 -35,11 -35,16 0,10 99,81 215,151 47,29 89,57 92,62 8,14 -38,-3 -69,-24 -38,-27 -52,-25 -44,9 14,57 25,98 31,120 11,33 -22,29 -69,-10 -41,-34 -51,-33 -142,8 -33,14 -122,38 -186,49 -21,3 -38,9 -38,13 0,4 26,21 58,37 31,16 76,42 99,57 23,15 45,28 50,28 4,0 41,25 81,55 40,30 78,52 86,49 7,-3 19,-32 25,-65 15,-76 65,-132 115,-128 17,2 36,0 43,-4 6,-4 16,0 23,8 19,22 56,18 86,-10 34,-32 38,-31 63,4 12,16 49,43 84,60 89,44 227,69 227,42 0,-4 -48,-40 -107,-79 -188,-125 -268,-184 -271,-197 -4,-17 21,-32 26,-17 4,14 66,43 102,48 14,2 41,6 61,9 33,6 39,3 67,-30 35,-43 66,-45 33,-3 -35,44 -28,58 28,58 46,0 50,-2 68,-37 47,-91 66,-124 70,-119 3,3 3,11 1,18 -3,7 -6,16 -7,20 -1,4 -10,28 -21,53 -10,24 -16,46 -12,49 4,2 21,-2 37,-9 22,-9 40,-32 68,-86 21,-41 45,-83 53,-93 43,-60 6,61 -42,133 -32,49 -29,85 6,89 27,3 53,-19 150,-130 105,-121 316,-297 383,-321 7,-2 9,-7 6,-11 -3,-4 -67,18 -141,48 -74,30 -154,59 -179,66 -24,6 -53,15 -64,20 -35,17 -207,81 -295,110 -47,15 -136,46 -198,69 -110,40 -152,49 -152,34 0,-5 55,-28 123,-51 67,-24 185,-66 262,-94 77,-28 217,-77 310,-109 94,-32 177,-62 186,-68 9,-5 66,-24 125,-41 60,-17 121,-40 136,-51 32,-23 38,-24 38,-5 0,8 -7,17 -17,20 -14,6 -49,28 -198,125 -125,81 -304,255 -395,383 l -40,56 75,67 c 57,51 79,65 92,59 10,-4 45,-17 78,-29 51,-18 60,-26 63,-48 6,-48 18,-29 31,48 7,41 16,75 21,75 4,0 11,-18 15,-41 8,-47 47,-126 130,-262 33,-54 78,-130 101,-168 22,-39 56,-83 74,-97 32,-25 33,-25 64,-8 30,17 31,17 44,-1 63,-91 117,-158 185,-229 44,-47 77,-87 74,-91 -4,-3 -19,-1 -34,5 -74,29 -323,54 -323,33 0,-5 30,-12 68,-15 140,-14 220,-28 317,-58 55,-16 105,-34 112,-40 7,-6 14,-5 18,2 7,12 -2,30 -16,30 -20,0 -124,74 -182,129 -74,70 -197,227 -197,250 0,24 -27,28 -64,10 -48,-23 -55,-18 -105,68 -19,32 -50,83 -70,113 -43,67 -49,76 -82,137 -66,120 -79,148 -80,172 0,31 -40,115 -54,116 -5,0 -16,-27 -23,-60 -8,-33 -16,-61 -17,-63 -2,-2 -23,6 -48,17 -25,12 -53,21 -61,21 -35,0 -21,21 46,71 39,30 83,63 98,74 48,36 139,95 162,105 13,6 46,28 73,50 28,22 54,40 58,40 5,0 22,-13 38,-29 27,-28 29,-32 23,-90 -5,-42 -3,-61 4,-61 19,0 30,33 29,88 -1,41 4,57 20,74 l 21,21 31,-54 c 17,-30 31,-60 31,-66 0,-7 7,-13 15,-13 11,0 13,8 9,30 -4,16 -3,50 1,75 l 6,46 52,-2 c 34,-2 63,3 84,14 18,9 41,17 52,17 23,0 38,18 19,24 -106,31 -124,49 -93,90 8,11 15,27 15,36 0,17 35,54 87,92 18,13 78,60 133,106 94,77 132,95 111,54 -5,-9 -17,-35 -27,-57 -9,-22 -37,-85 -61,-140 -74,-168 -163,-458 -191,-620 -29,-162 -34,-202 -31,-223 6,-34 24,-27 25,11 1,17 11,88 23,157 36,208 122,490 211,695 28,66 59,138 68,160 9,22 29,55 46,73 35,37 25,62 -13,31 z M 3822,3440 c 12,-11 34,-20 49,-20 38,0 59,-10 59,-27 0,-8 7,-30 15,-49 8,-19 22,-50 31,-69 8,-19 13,-39 10,-44 -3,-5 -1,-23 5,-40 6,-18 9,-34 7,-36 -2,-3 -28,4 -56,15 -29,11 -63,20 -77,20 -16,0 -25,6 -25,15 0,19 -19,19 -44,0 -29,-22 -36,-9 -20,37 22,63 21,65 -56,78 -38,6 -70,16 -70,21 0,4 26,26 58,48 32,21 64,46 71,55 17,20 17,20 43,-4 z M 2586,3098 c -4,-23 -12,-49 -19,-57 -7,-8 -11,-21 -9,-30 3,-22 -51,-226 -86,-321 -21,-58 -37,-85 -69,-114 -36,-32 -44,-35 -49,-22 -4,9 -2,36 4,59 6,23 17,66 24,96 7,30 20,59 30,65 18,11 26,41 9,34 -5,-1 -44,-37 -87,-78 -43,-41 -90,-84 -104,-95 -127,-95 -176,-145 -141,-145 6,0 24,-13 42,-30 l 33,-29 -25,-10 c -14,-5 -31,-16 -38,-25 -7,-9 -21,-16 -30,-16 -9,0 -27,-7 -39,-16 -19,-13 -33,-14 -95,-4 -48,8 -91,8 -130,2 -32,-5 -60,-6 -62,-2 -2,4 19,23 48,43 29,20 81,64 116,97 35,33 69,60 77,60 7,0 16,-16 20,-37 9,-54 30,-117 40,-120 5,-2 9,46 9,105 0,108 0,109 34,153 19,24 81,85 138,134 58,50 159,147 226,218 67,70 125,127 130,127 6,0 7,-18 3,-42 z m 1474,-177 c 0,-17 -12,-41 -21,-41 -10,0 -12,33 -2,43 9,10 23,9 23,-2 z m -104,-49 c -14,-14 -16,-14 -22,2 -4,11 0,22 12,31 16,12 19,12 22,-2 2,-8 -3,-22 -12,-31 z m 174,-2 c 0,-97 -59,-198 -129,-218 -49,-15 -51,-15 -51,3 0,8 4,15 9,15 14,0 63,78 70,112 4,20 15,37 29,43 13,6 22,19 22,31 0,25 8,34 32,34 11,0 18,-7 18,-20 z m 106,5 c -3,-9 -15,-48 -28,-88 -12,-39 -33,-92 -48,-117 -24,-41 -30,-45 -61,-42 -49,5 -52,13 -20,52 15,19 42,65 60,102 29,61 69,108 93,108 6,0 7,-7 4,-15 z m -611,-55 c 3,-5 1,-10 -4,-10 -6,0 -11,5 -11,10 0,6 2,10 4,10 3,0 8,-4 11,-10 z m 383,-47 c -28,-63 -109,-145 -126,-128 -3,3 -15,-1 -27,-9 -28,-18 -104,-33 -90,-18 22,23 221,161 233,161 8,1 12,-2 10,-6 z M 1936,2650 c 47,-30 53,-57 18,-86 -40,-32 -51,-30 -61,13 -7,30 -14,38 -41,45 -37,10 -41,25 -9,38 35,14 57,12 93,-10 z m -79,-79 c 3,-11 11,-22 19,-25 21,-8 17,-39 -6,-54 -26,-16 -36,-10 -59,39 l -20,40 22,9 c 33,13 38,12 44,-9 z m 704,-206 c 0,-5 -9,-11 -21,-13 -20,-3 -27,8 -13,22 10,9 34,3 34,-9 z" /><path
     inkscape:connector-curvature="0"
     id="path208"
     d="m 4135,3624 c -8,-20 -15,-40 -15,-43 0,-11 -53,-57 -73,-65 -34,-11 -11,-30 64,-54 68,-21 75,-22 86,-7 17,25 27,95 14,108 -7,7 -12,-2 -17,-32 -8,-51 -15,-56 -59,-40 -41,15 -42,19 -15,44 11,10 23,33 26,52 8,43 25,50 61,26 24,-17 97,-48 155,-67 10,-3 20,-20 24,-41 7,-38 21,-55 28,-33 10,33 14,118 6,118 -6,0 -10,-7 -10,-15 0,-15 -21,-21 -33,-8 -4,3 -28,14 -54,23 -27,10 -74,29 -105,44 -31,14 -59,26 -62,26 -3,0 -13,-16 -21,-36 z" /><path
     inkscape:connector-curvature="0"
     id="path210"
     d="m 2007,3428 c -2,-7 6,-32 19,-55 21,-41 22,-45 7,-99 -8,-31 -12,-63 -9,-71 11,-29 24,-1 31,67 4,38 10,70 14,70 4,0 18,-12 32,-26 13,-14 41,-35 62,-46 43,-21 71,-19 134,12 44,21 52,12 26,-27 -10,-16 -24,-37 -31,-48 -54,-86 -75,-115 -83,-115 -5,0 -9,-4 -9,-9 0,-5 26,-18 58,-29 56,-19 57,-20 54,-53 -2,-19 -8,-38 -13,-43 -13,-14 -11,-26 4,-26 17,0 36,35 39,73 3,24 -3,32 -32,47 -19,11 -43,21 -53,24 -16,5 -15,10 9,58 15,29 45,74 66,100 31,38 78,125 78,144 0,15 -31,0 -45,-22 -24,-37 -143,-90 -167,-75 -10,6 -24,11 -31,11 -16,0 -107,93 -126,128 -13,24 -27,29 -34,10 z" /><path
     inkscape:connector-curvature="0"
     id="path212"
     d="m 1084,3403 c 2,-10 7,-29 11,-43 13,-50 30,-72 73,-91 23,-11 46,-26 49,-34 9,-26 24,-16 21,13 -2,21 -9,28 -30,30 -40,5 -88,54 -88,89 0,28 -15,53 -33,53 -4,0 -6,-8 -3,-17 z" /><path
     inkscape:connector-curvature="0"
     id="path214"
     d="m 1210,3411 c 0,-5 9,-13 20,-16 27,-8 141,-180 222,-333 15,-29 40,-74 55,-100 14,-26 52,-94 83,-152 66,-123 102,-179 113,-180 11,0 -2,41 -18,60 -13,15 -87,148 -173,310 -25,47 -51,92 -58,101 -8,8 -14,20 -14,26 0,6 -7,16 -15,23 -8,7 -26,36 -40,65 -13,29 -35,66 -48,82 -13,15 -30,39 -37,52 -11,22 -11,23 11,19 13,-3 32,-9 42,-13 9,-4 17,-3 17,3 0,5 -33,21 -72,36 -80,29 -88,30 -88,17 z" /><path
     inkscape:connector-curvature="0"
     id="path216"
     d="m 1390,3351 c 0,-5 96,-40 213,-79 245,-82 271,-91 313,-108 17,-8 55,-20 85,-28 30,-8 76,-22 103,-31 56,-17 75,-19 60,-6 -5,4 -38,17 -74,29 -36,11 -94,31 -130,43 -307,103 -564,189 -567,189 -2,0 -3,-4 -3,-9 z" /><path
     inkscape:connector-curvature="0"
     id="path222"
     d="m 1160,3131 c 0,-17 5,-31 10,-31 6,0 10,11 10,24 0,14 -4,28 -10,31 -6,4 -10,-7 -10,-24 z" /><path
     inkscape:connector-curvature="0"
     id="path224"
     d="m 1230,3143 c 0,-28 10,-53 21,-53 11,0 1,50 -12,65 -5,5 -9,0 -9,-12 z" /><path
     inkscape:connector-curvature="0"
     id="path226"
     d="m 1301,3121 c -6,-11 -11,-36 -11,-55 0,-40 -6,-44 -26,-18 -12,15 -13,11 -14,-30 0,-55 12,-68 34,-36 15,21 15,23 -1,30 -16,6 -16,7 -2,7 18,1 29,21 29,52 0,33 14,21 45,-38 35,-67 44,-167 25,-268 -20,-109 -23,-131 -12,-120 18,19 34,110 39,220 5,94 3,112 -11,124 -9,7 -16,20 -16,27 0,8 -11,32 -25,54 -14,22 -25,44 -25,49 0,20 -19,21 -29,2 z" /><path
     inkscape:connector-curvature="0"
     id="path230"
     d="m 4768,3084 c -19,-18 78,-137 147,-181 43,-27 59,-52 33,-54 -7,0 -38,-18 -68,-39 -30,-22 -70,-49 -87,-61 -18,-11 -33,-25 -33,-30 0,-16 44,-37 93,-44 69,-9 144,-40 272,-113 44,-25 90,-54 102,-65 26,-23 29,-22 38,16 7,26 -9,40 -17,15 -3,-8 -23,0 -59,24 -109,72 -261,142 -334,152 -25,4 -45,11 -45,15 0,9 108,87 175,126 48,27 49,29 24,35 -64,18 -154,90 -200,161 -33,52 -33,52 -41,43 z" /><path
     inkscape:connector-curvature="0"
     id="path232"
     d="m 1180,3010 c 0,-5 5,-10 10,-10 6,0 10,5 10,10 0,6 -4,10 -10,10 -5,0 -10,-4 -10,-10 z" /><path
     inkscape:connector-curvature="0"
     id="path236"
     d="m 1184,2939 c 3,-17 6,-74 6,-125 0,-56 4,-94 10,-94 6,0 10,36 10,88 0,102 -9,162 -23,162 -5,0 -7,-13 -3,-31 z" /><path
     inkscape:connector-curvature="0"
     id="path244"
     d="m 1053,2681 c -8,-23 -7,-33 8,-52 10,-13 24,-24 31,-24 7,-1 21,-5 31,-9 10,-5 21,-5 25,-1 4,4 3,9 -3,11 -5,2 -25,13 -43,24 -26,16 -31,24 -26,44 8,34 -10,40 -23,7 z" /><path
     inkscape:connector-curvature="0"
     id="path246"
     d="m 1180,2668 c -1,-18 -3,-50 -6,-70 -6,-41 10,-53 20,-15 9,36 7,117 -4,117 -5,0 -10,-15 -10,-32 z" /><path
     inkscape:connector-curvature="0"
     id="path248"
     d="m 1333,2543 c -6,-38 -12,-73 -14,-79 -2,-7 1,-13 6,-14 11,-1 33,78 34,128 2,57 -15,34 -26,-35 z" /><path
     inkscape:connector-curvature="0"
     id="path252"
     d="m 1070,2543 c 0,-45 12,-103 21,-103 4,0 7,21 5,48 -2,26 -4,55 -5,65 -2,28 -21,19 -21,-10 z" /><path
     inkscape:connector-curvature="0"
     id="path254"
     d="m 3531,2531 c -6,-10 -11,-34 -13,-52 -1,-19 -6,-40 -11,-46 -5,-7 -7,-24 -4,-39 2,-15 -10,-65 -30,-122 -19,-53 -36,-121 -39,-150 -5,-65 -33,-130 -73,-169 -26,-26 -30,-39 -36,-111 -4,-45 -12,-82 -18,-82 -5,0 -57,-23 -115,-50 -58,-28 -109,-49 -113,-48 -10,3 138,124 177,146 32,17 30,25 -6,39 -22,8 -32,20 -36,42 -6,31 -18,39 -28,22 -8,-12 14,-71 25,-71 26,0 2,-34 -56,-80 -36,-28 -77,-66 -92,-84 -32,-37 -132,-110 -140,-102 -11,10 34,101 54,111 11,6 46,30 77,54 57,44 57,44 37,64 -14,14 -26,18 -46,13 -28,-7 -26,-21 2,-21 31,0 23,-22 -20,-53 -25,-17 -47,-29 -50,-26 -11,12 43,135 78,178 36,44 99,85 111,73 4,-4 0,-24 -9,-44 -23,-55 -30,-83 -19,-83 14,0 35,28 28,39 -3,5 1,22 9,37 8,16 15,39 15,51 0,12 9,27 20,33 19,10 19,30 1,30 -4,0 -38,-18 -75,-41 -37,-22 -70,-39 -72,-36 -2,2 5,26 15,53 50,125 100,268 96,273 -13,12 -37,-33 -73,-139 -37,-105 -117,-326 -143,-393 -7,-16 -39,-46 -78,-72 -36,-25 -88,-61 -116,-80 -27,-19 -55,-35 -61,-35 -6,0 -19,-9 -29,-20 -25,-27 -6,-26 62,6 62,28 78,26 95,-11 9,-21 9,-31 0,-46 -16,-25 -15,-32 3,-25 8,3 15,1 15,-5 0,-17 -39,-155 -71,-249 -25,-76 -29,-104 -14,-88 7,7 53,145 90,268 28,93 61,146 108,171 24,13 22,8 -12,-30 -19,-21 -33,-52 -42,-94 -7,-34 -27,-90 -46,-126 -61,-121 -64,-161 -9,-161 21,0 20,1 -3,19 -22,17 -23,20 -11,56 7,21 23,53 35,71 13,19 35,74 50,123 17,55 37,99 51,112 33,31 40,18 20,-34 -18,-48 -20,-67 -7,-67 5,0 11,12 14,28 10,50 48,122 70,134 62,33 247,51 247,24 0,-8 -4,-17 -9,-21 -26,-15 50,-214 89,-235 31,-17 24,-36 -25,-70 -25,-17 -43,-36 -40,-41 4,-5 23,4 43,21 20,16 48,30 62,30 36,-1 112,-37 108,-52 -2,-7 7,-23 20,-36 18,-18 22,-33 22,-90 0,-66 -1,-70 -40,-110 -41,-44 -57,-48 -132,-36 -21,4 -38,10 -38,15 0,15 58,137 68,143 6,3 15,-1 22,-9 18,-22 27,-18 33,14 3,16 9,40 13,55 3,15 2,26 -4,26 -5,0 -12,-9 -15,-19 -3,-15 -11,-18 -27,-14 -15,4 -26,1 -32,-11 -5,-9 -12,-16 -17,-16 -20,0 -133,84 -165,123 l -35,43 16,54 c 8,30 19,59 24,65 17,18 9,43 -21,69 -27,22 -37,25 -78,20 -40,-5 -53,-13 -89,-52 -31,-33 -40,-49 -32,-58 7,-9 4,-24 -10,-53 -26,-50 -27,-83 -3,-104 25,-23 33,-11 15,21 -14,25 -13,31 11,84 14,31 26,63 26,71 0,49 105,93 143,60 33,-30 12,-92 -27,-77 -9,3 -16,2 -16,-4 0,-5 9,-12 20,-15 26,-7 25,-21 -2,-47 l -22,-20 22,-23 c 28,-30 28,-37 -1,-37 -47,0 -69,48 -47,104 13,36 -6,33 -25,-3 -11,-22 -20,-28 -35,-24 -11,3 -20,0 -20,-6 0,-6 7,-11 15,-11 9,0 25,-16 36,-35 21,-36 28,-39 94,-51 23,-4 56,-21 79,-41 22,-18 57,-41 78,-51 20,-9 38,-23 38,-29 0,-7 -12,-42 -27,-78 -18,-44 -32,-65 -44,-65 -21,0 -147,102 -174,141 -13,20 -26,28 -39,25 -10,-3 -30,0 -44,5 -19,7 -22,13 -14,21 15,15 15,28 2,28 -13,0 -40,-66 -40,-100 0,-15 8,-34 19,-44 16,-14 17,-22 8,-60 -13,-58 -3,-94 30,-107 38,-14 53,5 16,23 -34,16 -40,44 -20,102 15,43 15,44 -11,63 -37,28 -24,57 20,48 41,-8 73,-42 58,-61 -6,-7 -10,-30 -8,-51 3,-35 6,-38 36,-41 36,-4 45,15 10,20 -19,2 -23,9 -23,37 0,19 5,36 10,38 6,1 36,-20 68,-47 32,-27 66,-54 75,-59 17,-10 16,-20 -15,-115 -4,-12 -2,-17 5,-12 6,3 18,29 27,57 20,58 29,64 79,51 30,-9 58,-7 114,9 8,2 18,-3 23,-11 24,-40 58,-131 69,-182 7,-37 17,-58 25,-58 24,0 25,17 3,61 -36,74 -38,78 -38,91 0,7 -10,32 -22,55 -18,34 -21,47 -12,60 19,30 52,28 66,-4 21,-51 68,-148 81,-166 10,-15 9,-20 -7,-32 -10,-8 -24,-16 -30,-18 -6,-2 -7,-8 -3,-13 15,-16 62,23 65,55 3,24 19,42 79,91 42,33 81,60 88,60 6,0 16,-10 22,-22 13,-31 -2,-179 -23,-224 -9,-19 -14,-37 -11,-41 7,-6 72,39 135,93 21,17 51,38 68,47 40,20 63,47 41,47 -8,0 -27,20 -41,44 -28,47 -51,70 -39,39 4,-10 17,-35 30,-56 24,-38 23,-57 -2,-57 -7,0 -37,-20 -66,-45 -56,-48 -74,-52 -73,-17 3,99 4,104 24,109 23,6 26,18 7,26 -20,8 -86,150 -93,201 -6,44 -6,46 18,46 28,0 63,-33 53,-50 -3,-6 6,-23 22,-39 15,-15 36,-39 46,-52 16,-23 16,-22 0,21 -9,25 -21,52 -28,60 -17,21 -68,135 -89,197 -25,73 -19,96 24,104 60,10 112,41 144,87 l 31,44 62,-5 c 75,-6 136,-34 203,-94 27,-25 50,-42 50,-38 0,4 -20,38 -45,76 -25,37 -63,105 -84,151 -34,74 -55,124 -121,288 -10,25 -21,61 -24,80 l -7,35 45,-47 c 49,-53 221,-287 373,-508 114,-166 307,-431 391,-538 31,-40 61,-86 65,-102 11,-43 29,-38 21,5 -9,52 -9,54 -1,132 5,40 12,75 18,78 22,14 4,38 -63,83 -40,27 -86,52 -103,56 l -29,7 19,-21 c 11,-12 40,-32 65,-45 25,-13 55,-31 67,-41 21,-19 21,-20 5,-97 -9,-42 -19,-77 -22,-77 -3,0 -28,30 -55,68 -57,79 -181,249 -246,336 -25,33 -59,81 -75,106 -16,25 -55,82 -87,128 -32,45 -55,87 -52,92 17,27 221,-54 282,-113 26,-25 31,-35 27,-61 l -6,-31 21,25 c 11,14 21,30 21,36 1,35 -141,123 -262,163 -71,24 -78,30 -53,51 14,12 14,15 -4,34 -10,12 -22,32 -26,45 l -7,24 95,-7 c 102,-7 127,2 90,33 -22,18 -70,107 -62,115 10,10 202,56 235,56 19,0 34,5 34,11 0,16 -105,4 -195,-22 -38,-11 -78,-23 -87,-25 -26,-8 -22,-23 17,-83 19,-29 35,-57 35,-63 0,-6 -15,-7 -37,-4 -67,10 -173,18 -173,14 0,-6 39,-81 51,-98 12,-17 -4,-70 -21,-70 -6,0 -32,30 -58,66 -26,37 -80,109 -121,161 l -74,95 26,54 27,54 h 52 c 75,0 238,-26 252,-40 8,-8 4,-16 -16,-32 -27,-19 -40,-68 -18,-68 9,0 80,98 80,112 0,17 -112,38 -236,44 l -134,7 -25,-58 -26,-58 -29,34 c -16,19 -29,37 -30,42 0,4 -5,7 -11,7 -37,0 127,-445 203,-553 11,-16 18,-30 16,-32 -2,-2 -26,7 -53,21 -52,25 -185,48 -185,31 0,-17 -82,-108 -111,-122 -35,-19 -69,-19 -69,-2 0,7 11,28 25,47 14,19 23,41 20,51 -3,9 1,22 9,28 13,11 13,18 -3,59 -16,41 -44,148 -79,301 -6,26 -7,53 -2,66 8,20 3,27 -33,52 -66,44 -86,47 -40,6 40,-37 41,-40 47,-115 6,-77 0,-92 -24,-63 -6,8 -32,26 -56,40 l -44,26 6,57 c 3,31 8,64 11,72 7,17 14,96 13,158 0,28 5,42 13,42 15,0 108,-197 157,-335 12,-33 42,-103 67,-155 25,-52 52,-113 60,-135 18,-46 33,-66 33,-44 0,19 -29,96 -70,184 -47,102 -56,124 -74,180 -9,28 -21,59 -26,70 -24,55 -50,118 -50,126 0,13 58,11 66,-2 3,-6 1,-16 -5,-22 -14,-14 -14,-37 -1,-37 5,0 12,11 16,25 3,13 12,29 20,36 28,23 15,35 -42,36 -30,1 -62,7 -71,15 -9,7 -29,40 -44,73 -51,106 -111,160 -73,66 14,-36 15,-52 6,-109 -6,-37 -21,-150 -32,-251 -11,-101 -23,-187 -26,-192 -3,-5 -16,-9 -29,-9 -21,0 -24,5 -27,47 -3,41 -6,48 -28,53 -33,8 -42,64 -11,73 10,2 24,0 30,-6 14,-14 14,-14 45,78 26,81 34,155 16,155 -5,0 -10,-11 -10,-25 0,-69 -54,-136 -149,-186 -52,-27 -81,-67 -81,-112 0,-38 -3,-40 -72,-53 -37,-6 -38,-5 -37,22 1,59 33,120 83,163 27,24 60,47 73,52 23,9 31,33 14,43 -13,8 14,104 38,137 18,25 18,39 0,39 -15,0 -46,-68 -59,-130 -13,-65 -35,-104 -51,-94 -5,3 -5,14 1,24 5,10 10,30 10,44 0,13 14,64 31,113 52,150 90,302 82,331 -7,27 -19,28 -32,3 z m 19,-656 c 0,-25 1,-48 3,-52 1,-5 -15,-9 -36,-11 -43,-4 -55,13 -36,50 36,71 69,77 69,13 z m 273,-50 c 52,-50 57,-58 57,-98 0,-48 -15,-74 -45,-79 -16,-3 -21,-12 -23,-51 -4,-65 -28,-80 -114,-72 l -63,6 25,-20 c 23,-19 42,-26 63,-22 4,1 21,-6 38,-15 24,-12 28,-19 20,-27 -8,-8 -16,-8 -29,-1 -9,6 -37,11 -61,12 -34,2 -42,-1 -37,-13 7,-20 -8,-27 -29,-11 -14,10 -16,16 -6,34 12,22 -1,32 -14,12 -3,-5 -15,-10 -26,-10 -15,0 -27,16 -47,60 -15,33 -30,60 -34,60 -13,0 -8,-33 7,-60 20,-35 18,-50 -5,-50 -11,0 -20,-4 -20,-10 0,-5 8,-10 18,-10 10,0 26,-6 36,-13 16,-12 13,-16 -28,-55 -25,-23 -49,-42 -54,-42 -17,0 -81,79 -88,107 -4,16 -13,37 -20,48 -16,23 -18,88 -4,116 12,22 55,25 143,8 66,-12 82,-7 64,22 -10,16 -8,26 9,57 22,37 49,61 59,51 3,-3 -7,-27 -21,-53 -24,-43 -26,-51 -15,-87 7,-21 16,-39 22,-39 6,0 8,9 4,20 -9,27 2,25 29,-6 37,-43 102,-29 141,30 15,22 14,27 -5,64 -12,22 -28,43 -36,46 -13,5 -15,16 -9,59 13,107 18,108 98,32 z m -350,-104 c -3,-63 -9,-73 -29,-47 -16,23 -19,72 -4,81 6,4 7,11 4,17 -4,6 1,8 12,6 16,-3 19,-12 17,-57 z m -91,-53 c -6,-14 -49,-9 -62,6 -9,12 -9,21 2,43 7,15 18,28 25,28 6,0 15,4 20,8 8,9 22,-71 15,-85 z m -112,16 c 13,-34 13,-34 -9,-34 -24,0 -45,25 -37,45 9,24 36,18 46,-11 z m 666,-55 22,-70 -27,-10 c -24,-10 -25,-12 -8,-23 22,-17 22,-18 -8,-62 -14,-20 -25,-45 -25,-55 0,-25 -21,-35 -32,-16 -4,9 -24,36 -42,61 l -34,44 23,22 c 13,13 27,37 31,54 3,17 16,42 29,56 12,14 26,35 30,48 3,12 9,22 13,22 4,0 17,-32 28,-71 z m -220,49 c 9,-10 -15,-48 -32,-48 -17,0 -28,24 -20,45 5,14 38,16 52,3 z m -538,-14 c -2,-10 -29,-25 -70,-39 -80,-27 -80,-16 0,25 67,34 75,36 70,14 z m -248,1 c 0,-3 -4,-13 -9,-23 -6,-9 -17,-41 -26,-69 -15,-49 -35,-71 -35,-39 0,7 -10,25 -21,40 -23,30 -23,31 36,70 38,25 55,32 55,21 z m 787,-233 c 21,-13 0,-30 -25,-21 -13,5 -20,13 -17,19 7,12 25,13 42,2 z m -122,-11 c 11,-18 69,-41 87,-35 11,3 25,0 33,-6 8,-6 19,-9 24,-6 5,4 12,2 15,-3 4,-5 21,-7 39,-5 19,3 39,0 51,-9 20,-14 48,-85 40,-99 -10,-16 -53,-8 -64,11 -15,29 -13,34 15,27 14,-4 25,-2 25,4 0,16 -63,28 -82,16 -13,-8 -23,-7 -38,2 -11,7 -20,9 -20,5 0,-12 -50,-32 -64,-27 -7,3 -19,-2 -26,-11 -7,-8 -23,-15 -35,-15 -32,0 -126,51 -123,66 3,13 98,94 110,94 4,0 9,-4 13,-9 z m 215,-11 c 8,-5 12,-12 8,-15 -9,-9 -48,4 -48,16 0,12 21,11 40,-1 z m -92,-167 c -3,-13 -12,-17 -33,-15 -49,5 -64,13 -40,22 11,5 33,9 48,9 22,1 28,-3 25,-16 z m 134,-10 c 41,-5 50,-10 63,-36 19,-39 20,-37 -14,-37 -31,0 -49,14 -31,25 21,13 9,25 -25,25 -37,0 -48,-14 -17,-22 10,-3 22,-23 30,-54 8,-27 18,-62 24,-79 21,-62 20,-91 -4,-102 -13,-6 -44,-29 -70,-52 -25,-22 -49,-41 -52,-41 -8,0 -66,120 -66,136 0,14 97,11 149,-5 19,-6 37,-9 39,-6 11,10 -12,23 -52,29 -54,8 -61,17 -71,81 -4,28 -12,56 -17,63 -8,9 -8,19 0,35 5,12 13,30 16,41 5,14 12,17 29,11 12,-3 43,-9 69,-12 z m -162,-48 c 16,-19 6,-45 -17,-45 -10,0 -27,10 -37,21 -15,18 -15,23 -5,30 21,13 45,11 59,-6 z m 1,-85 c 27,-15 24,-30 -7,-30 -14,0 -34,-5 -45,-10 -16,-9 -19,-7 -19,10 0,12 9,24 23,30 29,11 26,11 48,0 z" /><path
     inkscape:connector-curvature="0"
     id="path256"
     d="m 3550,1550 c 0,-5 5,-10 10,-10 6,0 10,5 10,10 0,6 -4,10 -10,10 -5,0 -10,-4 -10,-10 z" /><path
     inkscape:connector-curvature="0"
     id="path258"
     d="m 3590,1540 c 0,-5 5,-10 10,-10 6,0 10,5 10,10 0,6 -4,10 -10,10 -5,0 -10,-4 -10,-10 z" /><path
     inkscape:connector-curvature="0"
     id="path260"
     d="m 3450,1496 c -13,-49 -11,-77 7,-84 18,-5 29,28 13,38 -10,6 -10,15 -1,40 13,40 14,50 2,50 -4,0 -14,-20 -21,-44 z" /><path
     inkscape:connector-curvature="0"
     id="path262"
     d="m 3530,1338 c 0,-22 4,-23 62,-22 37,0 63,5 66,12 2,8 -13,12 -47,12 -27,0 -53,5 -56,10 -11,18 -25,11 -25,-12 z" /><path
     inkscape:connector-curvature="0"
     id="path266"
     d="m 1084,2404 c 3,-9 6,-33 6,-55 0,-21 5,-39 10,-39 11,0 13,52 4,88 -4,12 -11,22 -16,22 -6,0 -7,-7 -4,-16 z" /><path
     inkscape:connector-curvature="0"
     id="path268"
     d="m 1310,2405 c 0,-8 5,-15 10,-15 6,0 10,7 10,15 0,8 -4,15 -10,15 -5,0 -10,-7 -10,-15 z" /><path
     inkscape:connector-curvature="0"
     id="path272"
     d="m 1281,2283 c -12,-43 -25,-87 -28,-98 -6,-17 -4,-18 9,-7 9,7 25,48 37,91 24,87 24,91 13,91 -5,0 -19,-35 -31,-77 z" /><path
     inkscape:connector-curvature="0"
     id="path274"
     d="m 1105,2178 c 7,-111 10,-127 21,-116 9,10 -8,228 -19,228 -6,0 -7,-40 -2,-112 z" /><path
     inkscape:connector-curvature="0"
     id="path278"
     d="m 1892,2231 c -40,-27 -83,-58 -95,-69 -12,-12 -42,-32 -67,-45 -24,-12 -45,-28 -47,-34 -4,-11 214,-39 225,-29 14,14 -18,26 -86,32 -46,4 -71,11 -69,18 2,6 54,45 115,86 99,67 128,92 105,89 -5,0 -41,-22 -81,-48 z" /><path
     inkscape:connector-curvature="0"
     id="path280"
     d="m 3580,2211 c 0,-9 83,-31 115,-31 32,0 13,18 -29,29 -54,13 -86,14 -86,2 z" /><path
     inkscape:connector-curvature="0"
     id="path284"
     d="m 1217,2087 c -9,-30 -17,-63 -17,-74 0,-12 -13,-51 -30,-88 -30,-68 -39,-108 -20,-89 15,15 49,106 76,204 26,96 27,100 16,100 -5,0 -16,-24 -25,-53 z" /><path
     inkscape:connector-curvature="0"
     id="path286"
     d="m 1553,2098 c -5,-7 -17,-29 -27,-48 -9,-19 -27,-51 -39,-71 -12,-19 -42,-69 -66,-110 -24,-41 -62,-95 -85,-120 -23,-25 -75,-86 -116,-135 -41,-49 -108,-123 -147,-165 -72,-74 -82,-89 -63,-89 10,0 137,87 145,100 4,7 102,57 140,71 23,9 164,115 169,128 9,20 -11,10 -88,-45 -73,-53 -121,-83 -176,-110 -19,-10 -38,-20 -42,-22 -29,-15 8,36 105,144 61,69 123,144 136,167 13,23 45,76 70,117 25,42 51,84 57,95 17,31 34,30 34,-4 0,-34 30,-61 67,-61 31,0 29,-14 -4,-35 -50,-32 -183,-157 -183,-171 0,-19 7,-18 31,5 16,15 30,18 58,14 44,-7 50,-11 53,-43 2,-18 -2,-25 -17,-28 -48,-8 -46,-16 5,-23 30,-4 57,-6 59,-3 2,2 -4,22 -14,44 -21,46 -52,70 -92,70 -26,0 -23,5 50,75 50,48 90,78 109,82 16,3 32,13 36,22 3,9 10,19 16,23 6,4 7,10 4,14 -4,4 -19,-1 -32,-10 -33,-21 -78,-20 -105,2 -16,13 -21,30 -23,75 -2,58 -8,67 -25,45 z" /><path
     inkscape:connector-curvature="0"
     id="path290"
     d="m 2440,2056 c -5,-15 -10,-33 -10,-39 0,-7 -18,-20 -39,-30 -38,-17 -40,-17 -155,13 -65,16 -126,30 -137,30 -32,0 -21,-17 16,-24 42,-8 44,-20 8,-43 -16,-9 -47,-34 -70,-56 -22,-22 -46,-36 -51,-33 -6,3 -13,2 -17,-4 -3,-5 5,-12 19,-16 14,-3 30,-12 37,-20 6,-8 15,-14 20,-14 14,0 11,22 -6,40 -14,16 -13,20 18,43 19,14 37,24 39,21 3,-2 -3,-30 -12,-62 -10,-31 -23,-75 -29,-97 -6,-22 -16,-48 -24,-58 -12,-17 -15,-17 -60,-2 -27,9 -77,29 -112,46 -70,32 -75,33 -75,19 0,-5 12,-13 28,-16 15,-4 36,-13 47,-20 28,-18 165,-74 181,-74 7,0 12,8 12,18 -1,9 5,33 14,52 20,45 58,166 58,185 0,21 21,63 35,68 6,3 52,-5 101,-18 81,-20 91,-21 107,-7 13,12 20,13 29,4 21,-21 34,-13 35,24 2,58 19,65 55,21 29,-36 33,-38 74,-31 24,3 44,2 44,-2 0,-5 -11,-28 -25,-51 -18,-33 -20,-43 -10,-43 15,0 101,158 91,167 -2,3 -22,-7 -43,-21 -50,-34 -77,-33 -103,4 -12,17 -29,30 -39,30 -9,0 -22,5 -29,12 -8,8 -14,5 -22,-16 z" /><path
     inkscape:connector-curvature="0"
     id="path292"
     d="m 1106,2014 c -10,-26 -7,-104 4,-104 6,0 10,17 10,38 0,20 3,47 6,60 7,25 -11,31 -20,6 z" /><path
     inkscape:connector-curvature="0"
     id="path294"
     d="m 1913,1999 c -11,-12 -37,-31 -56,-43 -117,-70 -201,-136 -174,-136 8,0 22,9 32,20 9,10 35,29 57,40 57,30 146,97 158,120 14,26 10,25 -17,-1 z" /><path
     inkscape:connector-curvature="0"
     id="path300"
     d="m 2460,1839 c -179,-123 -225,-155 -267,-182 -45,-30 -48,-47 -7,-47 31,0 30,-5 -6,-41 l -29,-30 -138,42 c -226,67 -256,72 -279,42 -19,-26 -17,-33 10,-33 18,0 31,-11 50,-46 14,-26 26,-54 26,-62 0,-21 12,-8 39,41 12,21 19,43 16,48 -9,14 -25,0 -18,-16 3,-8 0,-15 -5,-15 -12,0 -67,68 -61,74 2,3 89,-20 194,-50 104,-30 190,-54 191,-54 1,0 5,11 8,25 5,18 20,32 51,45 54,23 57,37 10,46 -39,7 -45,19 -15,29 11,3 38,22 61,41 44,36 65,44 55,19 -11,-31 87,-47 139,-23 20,9 28,9 38,-2 9,-10 9,-14 0,-17 -15,-5 -73,-125 -108,-223 -47,-132 -36,-120 -95,-105 -28,7 -75,23 -104,36 -30,12 -60,20 -68,17 -7,-3 -21,-41 -32,-84 -10,-44 -23,-84 -28,-91 -5,-7 -5,-14 2,-18 12,-7 43,61 54,117 8,45 19,53 48,36 40,-22 92,-38 125,-38 22,0 36,-6 43,-21 12,-22 35,-21 35,2 1,17 23,97 34,124 5,11 15,36 22,55 24,66 79,177 94,190 11,9 12,17 4,32 -10,19 -17,20 -90,14 -76,-7 -79,-7 -79,14 0,21 53,80 71,80 11,0 103,69 107,81 7,17 -14,6 -98,-52 z" /><path
     inkscape:connector-curvature="0"
     id="path302"
     d="m 1096,1878 c -2,-7 -9,-46 -15,-86 -6,-41 -21,-92 -32,-114 -20,-39 -20,-68 0,-68 6,0 13,12 17,28 3,15 19,44 35,64 33,42 35,48 13,48 -14,0 -15,10 -9,70 4,39 4,70 1,70 -4,0 -8,-6 -10,-12 z" /><path
     inkscape:connector-curvature="0"
     id="path304"
     d="m 1125,1807 c -4,-10 -5,-21 -1,-24 10,-10 18,4 13,24 -4,17 -4,17 -12,0 z" /><path
     inkscape:connector-curvature="0"
     id="path306"
     d="m 4710,1411 c 0,-6 30,-26 68,-46 37,-19 89,-51 115,-71 47,-34 48,-36 42,-75 -4,-21 -3,-39 2,-39 10,0 35,78 28,90 -3,4 -44,35 -93,67 -112,75 -162,98 -162,74 z" /><path
     inkscape:connector-curvature="0"
     id="path308"
     d="m 2965,1390 c -3,-5 1,-10 9,-10 9,0 16,5 16,10 0,6 -4,10 -9,10 -6,0 -13,-4 -16,-10 z" /><path
     inkscape:connector-curvature="0"
     id="path310"
     d="m 1570,1380 c 0,-5 4,-10 9,-10 6,0 13,5 16,10 3,6 -1,10 -9,10 -9,0 -16,-4 -16,-10 z" /><path
     inkscape:connector-curvature="0"
     id="path312"
     d="m 1620,1370 c 0,-5 6,-10 13,-10 38,0 267,-74 425,-137 6,-3 12,0 12,6 0,14 -77,50 -180,85 -177,59 -270,78 -270,56 z" /><path
     inkscape:connector-curvature="0"
     id="path314"
     d="m 1476,1330 c -32,-22 -83,-54 -115,-69 -53,-27 -95,-61 -75,-61 5,0 27,7 49,15 76,27 276,14 316,-21 12,-11 15,-27 11,-64 -3,-30 0,-50 5,-50 12,0 25,94 16,116 -11,28 -63,45 -163,51 -55,3 -100,9 -100,12 1,3 32,26 70,51 38,25 70,48 70,53 0,16 -30,5 -84,-33 z" /><path
     inkscape:connector-curvature="0"
     id="path316"
     d="m 2927,1263 c -15,-56 -16,-71 -3,-82 10,-9 13,-27 10,-64 -6,-59 -1,-68 41,-89 17,-8 28,-20 26,-29 -2,-8 -6,-22 -8,-31 -10,-33 13,-18 26,17 15,42 10,51 -29,60 -38,8 -39,11 -31,65 6,40 9,45 30,42 21,-2 22,0 10,14 -7,9 -24,20 -37,25 -22,9 -24,14 -18,49 6,39 -8,58 -17,23 z" /><path
     inkscape:connector-curvature="0"
     id="path318"
     d="m 3110,1200 c 0,-5 7,-10 15,-10 8,0 15,5 15,10 0,6 -7,10 -15,10 -8,0 -15,-4 -15,-10 z" /><path
     inkscape:connector-curvature="0"
     id="path320"
     d="m 2258,1140 c -20,-11 -53,-40 -74,-66 -33,-40 -38,-53 -38,-99 -1,-38 4,-59 18,-74 26,-28 14,-48 -33,-56 -38,-6 -59,-20 -48,-31 5,-5 70,10 113,26 l 24,9 -25,45 c -28,50 -31,92 -11,139 16,37 61,82 94,92 21,6 22,4 16,-22 -4,-15 -11,-36 -16,-46 -10,-19 -2,-41 12,-32 24,15 34,136 11,135 -3,-1 -23,-10 -43,-20 z" /><path
     inkscape:connector-curvature="0"
     id="path322"
     d="m 1767,1125 c -55,-32 -113,-93 -100,-106 7,-7 16,-2 27,16 9,14 41,42 71,62 30,19 55,40 55,44 0,13 -10,10 -53,-16 z" /><path
     inkscape:connector-curvature="0"
     id="path324"
     d="m 1840,1112 c 0,-5 12,-12 28,-15 15,-3 53,-11 85,-18 63,-12 77,-29 77,-90 0,-31 19,-41 21,-11 4,42 -4,88 -17,101 -7,8 -37,18 -66,23 -29,4 -70,10 -90,14 -23,4 -38,2 -38,-4 z" /><path
     inkscape:connector-curvature="0"
     id="path326"
     d="m 2350,1071 c -37,-10 -7,-24 36,-17 49,10 74,-7 74,-49 0,-28 -7,-40 -40,-66 -22,-18 -37,-36 -34,-41 6,-10 61,26 86,56 23,28 23,88 0,109 -19,17 -75,21 -122,8 z" /><path
     inkscape:connector-curvature="0"
     id="path328"
     d="m 2770,1070 c 0,-5 6,-10 14,-10 27,0 36,-24 23,-59 -14,-39 -1,-66 34,-66 19,0 25,-6 27,-30 5,-44 19,-55 68,-55 56,0 58,18 2,22 -39,3 -43,6 -49,36 -4,20 -2,44 6,60 34,72 26,101 -10,35 -11,-21 -28,-39 -37,-41 -27,-5 -25,54 2,70 29,18 25,26 -17,37 -48,14 -63,14 -63,1 z" /><path
     inkscape:connector-curvature="0"
     id="path330"
     d="m 2690,971 c -8,-5 -40,-14 -70,-20 -30,-6 -68,-18 -85,-25 -16,-8 -50,-20 -75,-27 -25,-7 -49,-15 -53,-19 -9,-7 44,-45 111,-79 23,-12 42,-25 42,-30 0,-8 -260,-24 -268,-16 -5,5 10,45 46,123 25,56 21,84 -7,43 -23,-35 -81,-193 -75,-203 3,-5 12,-4 19,2 8,7 81,14 174,17 117,4 164,10 172,20 9,10 7,13 -9,13 -12,0 -30,10 -42,22 -11,12 -39,31 -62,43 -23,11 -43,25 -45,31 -2,5 43,24 99,43 135,43 158,52 158,62 0,11 -10,11 -30,0 z" /><path
     inkscape:connector-curvature="0"
     id="path334"
     d="m 2020,890 c 0,-11 5,-20 10,-20 6,0 10,9 10,20 0,11 -4,20 -10,20 -5,0 -10,-9 -10,-20 z" /><path
     inkscape:connector-curvature="0"
     id="path336"
     d="m 1998,813 c -32,-8 -20,-26 13,-19 17,3 35,6 40,6 5,0 9,5 9,10 0,10 -30,12 -62,3 z" /><path
     inkscape:connector-curvature="0"
     id="path338"
     d="m 1940,790 c 0,-5 5,-10 10,-10 6,0 10,5 10,10 0,6 -4,10 -10,10 -5,0 -10,-4 -10,-10 z" /></g></svg>